<svg fill="none" height="400" viewBox="0 0 527 400" width="527" xmlns="http://www.w3.org/2000/svg"><g fill="#fff" stroke="#000" stroke-miterlimit="10" stroke-width=".25"><path d="m77.8816 212.664c-102.5109 42.726-102.5086 111.998.0057 154.723 102.5147 42.726 268.7197 42.726 371.2307 0 102.511-42.725 102.509-111.997-.005-154.723s-268.72-42.726-371.2314 0z"/><path d="m488.525 259.137c8.455-8.724 13.421-39.563 5.174-46.483h-41.959c-8.245 6.918-3.284 37.745 5.166 46.475.072.081.155.159.231.24.097.097.194.194.291.288.239.233.492.462.765.687.067.056.135.106.202.16.207.164.411.329.638.488.351.255.716.491 1.093.706 6.955 4.061 18.23 4.061 25.185 0h.001c.379-.217.746-.454 1.1-.712.21-.147.4-.301.594-.454.083-.066.167-.128.249-.198.263-.217.507-.438.738-.663.113-.107.224-.22.336-.332.064-.067.134-.133.196-.202z"/><path d="m455.383 209.867c-9.573 5.59-9.573 14.653 0 20.242 9.573 5.59 25.096 5.59 34.67 0 9.573-5.59 9.573-14.652 0-20.241-9.574-5.589-25.096-5.59-34.67-.001z"/></g><path d="m459.988 212.556c-7.031 4.105-7.031 10.76 0 14.865s18.43 4.105 25.46 0c7.031-4.105 7.031-10.76 0-14.865-7.03-4.105-18.43-4.105-25.46 0z" fill="#000"/><path d="m485.448 219.611c-7.03-4.104-18.429-4.104-25.46 0-1.706.933-3.153 2.275-4.211 3.905 1.058 1.631 2.505 2.973 4.211 3.905 7.031 4.105 18.43 4.105 25.46 0 1.706-.932 3.153-2.274 4.212-3.905-1.059-1.631-2.506-2.972-4.212-3.905z" fill="#e55b2d"/><path d="m458.663 153.468 13.158 13.579-13.345-8.425c-.575 4.599-.338 9.264.699 13.782 3.58 2.832 6.933 5.94 10.029 9.295l-10.325-5.734s-1.69 7.079-.143 18.422c.405 2.97 2.906 8.868 4.404 13.228.682 2.012 1.499 3.976 2.445 5.878.052.122.114.237.174.36 2.679-1.096 5.448-2.136 8.309-3.121 2.234-3.453 5.712-12.247 7.517-19.585 6.882-28.096-12.525-47.268-29.136-55.025 3.086 5.367 5.19 11.241 6.214 17.346z" fill="#000"/><path d="m470.788 156.275c2.428 3.512 4.022 7.532 4.66 11.753.79 4.177 1.121 8.428.986 12.678-.171 8.503-2.351 16.846-6.364 24.345l-.005.009c-.053.097-.065.211-.034.317s.103.195.2.248.211.065.317.034.196-.103.248-.2l.004-.006c3.942-7.652 6.015-16.13 6.051-24.738.065-4.274-.336-8.542-1.198-12.728-.71-4.223-2.373-8.229-4.865-11.712z" fill="#fff"/><path d="m525.572 163.714c-.007.008-.015.016-.023.022-5.919 7.388-11.386 15.127-16.372 23.173l-15.965 2.626 11.788 2.017-6.291 10.041-15.709 3.307 12.283 1.954s-3.367 11.992-12.137 17.017c-4.841 2.774-6.945 2.847-8.672 1.823-2.109-1.25-3.123-4.685-3.989-9.81-.867-5.125.879-15.49 5.684-25.568 1.307-2.697 2.993-5.193 5.006-7.413 11.584-12.99 33.532-19.309 44.397-19.189z" fill="#e55b2d"/><path d="m508.878 168.999c-8.386 3.535-15.937 8.789-22.167 15.423-3.098 3.356-5.652 7.176-7.569 11.322-1.858 4.161-3.017 8.6-3.43 13.139 0 .005 0 .011.002.017.002.005.004.01.008.015.004.004.008.008.014.011.005.002.01.004.016.004.011.001.022-.002.031-.009.008-.007.014-.016.017-.027.836-4.417 2.229-8.71 4.144-12.776 1.909-4.058 4.363-7.835 7.296-11.226 6.073-6.691 13.449-12.071 21.674-15.813.005-.002.01-.005.014-.01.004-.004.007-.009.009-.014.002-.006.003-.012.003-.018-.001-.005-.002-.011-.005-.016-.004-.011-.013-.019-.024-.023s-.023-.004-.033.001z" fill="#fff"/><path d="m416.772 170.578c1.471-.155 2.95-.221 4.43-.198 5.833.144 11.625 1.008 17.246 2.574 2.084.568 4.185 1.234 6.259 2.004 1.037.384 2.067.795 3.088 1.232 5.052 2.077 9.721 4.984 13.815 8.6 1.91 1.733 3.596 3.698 5.019 5.849.183.278.379.547.553.832l.003.006c.447.736.853 1.462 1.24 2.182 3.597 6.213 5.557 13.238 5.694 20.416.275 5.047-.914 10.954-1.808 11.987-.121.138-.258.26-.408.365-1.351 1.045-3.68.719-8.161-1.278-8.978-4.002-13.433-15.801-13.433-15.801l11.694-3.096-15.525-1.657-7.071-9.099 11.208-3.108-15.705-.974c-5.614-7.297-11.662-14.248-18.113-20.816-.009-.005-.018-.011-.025-.019z" fill="#e55b2d"/><path d="m421.201 170.381c5.833.144 11.626 1.008 17.247 2.573 2.084.568 4.184 1.235 6.259 2.004 1.037.385 2.067.796 3.088 1.232 5.052 2.078 9.721 4.984 13.815 8.6 1.91 1.734 3.596 3.699 5.019 5.85.183.277.379.547.553.832l.003.005c.446.737.853 1.462 1.24 2.183 3.597 6.212 5.557 13.238 5.694 20.416.275 5.047-.914 10.954-1.808 11.987-.121.137-.258.26-.408.365-.273.2-.581.347-.909.431.344-7.895-5.289-27.325-11.837-34.932-6.813-7.914-22.265-18.885-42.359-21.329l.014-.022c1.458-.153 2.924-.218 4.389-.195z" fill="#e55b2d"/><g fill="#fff"><path d="m471.043 226.857c-.151-5.808-1.054-11.573-2.687-17.149-1.562-5.623-3.994-10.967-7.209-15.839-3.503-4.696-7.825-8.722-12.758-11.882-4.861-3.21-10.132-5.752-15.671-7.557-.012-.004-.025-.003-.036.003-.011.005-.02.015-.024.027-.005.012-.004.025.001.036.005.012.014.021.025.026 5.32 2.237 10.399 5.009 15.159 8.273 2.388 1.599 4.664 3.36 6.809 5.272 2.182 1.858 4.147 3.956 5.859 6.255 3.253 4.76 5.742 9.999 7.377 15.527 1.751 5.515 2.778 11.233 3.057 17.011.001.013.007.025.016.033.009.009.021.013.034.013.013-.001.025-.006.033-.015.009-.009.014-.021.015-.033z"/><path d="m47.3646 281.102c-8.4546-8.724-13.4209-39.563-5.1744-46.483h41.959c8.2444 6.918 3.2837 37.745-5.166 46.475-.0724.081-.1556.159-.2316.24-.0968.097-.1933.194-.2911.288-.2385.233-.4919.462-.7643.687-.067.056-.1349.106-.2021.16-.2071.164-.4116.329-.638.488-.3511.255-.7161.491-1.0932.706-6.9547 4.06-18.2305 4.06-25.1846 0h-.001c-.3797-.217-.747-.454-1.1002-.712-.2108-.147-.4001-.301-.594-.454-.0832-.066-.1672-.128-.2498-.198-.2625-.217-.5066-.438-.7371-.663-.1129-.107-.2245-.22-.336-.332-.0644-.067-.1352-.133-.1956-.202z" stroke="#000" stroke-miterlimit="10" stroke-width=".25"/><path d="m80.5057 231.832c9.5735 5.59 9.5732 14.653 0 20.242-9.5733 5.589-25.0961 5.59-34.6694 0-9.5734-5.59-9.5735-14.652 0-20.241s25.0957-5.59 34.6694-.001z" stroke="#000" stroke-miterlimit="10" stroke-width=".25"/></g><path d="m75.9008 234.521c7.0309 4.104 7.0306 10.76 0 14.865-7.0307 4.104-18.4296 4.104-25.4605 0-7.0309-4.105-7.0305-10.76 0-14.866 7.0306-4.105 18.4301-4.104 25.4605.001z" fill="#000"/><path d="m50.4407 241.576c7.0305-4.105 18.4294-4.105 25.46 0 1.7056.933 3.1528 2.274 4.2113 3.905-1.0585 1.63-2.5056 2.972-4.2113 3.905-7.0306 4.105-18.4295 4.105-25.46 0-1.7058-.933-3.153-2.275-4.2115-3.905 1.0585-1.631 2.5057-2.973 4.2115-3.905z" fill="#e55b2d"/><path d="m77.2259 175.433-13.1577 13.579 13.3443-8.425c.5751 4.599.3387 9.264-.6985 13.781-3.5801 2.833-6.9334 5.941-10.0293 9.296l10.3248-5.734s1.6897 7.079.1433 18.421c-.4049 2.971-2.9063 8.869-4.4042 13.229-.6823 2.012-1.4991 3.975-2.4451 5.878-.0521.122-.1142.237-.1742.36-2.6784-1.096-5.4479-2.136-8.3086-3.121-2.2349-3.453-5.7125-12.247-7.5167-19.585-6.8825-28.096 12.5246-47.268 29.1355-55.025-3.0856 5.367-5.1897 11.241-6.2136 17.346z" fill="#000"/><path d="m65.1004 178.24c-2.4274 3.512-4.0212 7.532-4.6598 11.753-.7898 4.177-1.1204 8.428-.986 12.678.1708 8.503 2.3516 16.846 6.364 24.345l.0049.009c.0529.097.0652.211.0341.317s-.103.195-.2.248c-.0969.053-.2109.065-.3169.034s-.1953-.103-.2483-.2l-.0031-.006c-3.9421-7.652-6.0158-16.13-6.0513-24.738-.0657-4.274.3362-8.542 1.1984-12.728.7093-4.223 2.3728-8.229 4.864-11.712z" fill="#fff"/><path d="m10.317 185.679c.0067.008.0146.016.0234.022 5.9183 7.388 11.3853 15.126 16.3715 23.173l15.965 2.626-11.788 2.017 6.2908 10.041 15.7097 3.306-12.2832 1.955s3.3669 11.991 12.1368 17.016c4.8413 2.774 6.9448 2.847 8.6719 1.824 2.1088-1.251 3.1229-4.686 3.9895-9.811s-.8799-15.489-5.6849-25.568c-1.3069-2.696-2.9925-5.193-5.0057-7.413-11.5837-12.99-33.532-19.308-44.3968-19.188z" fill="#e55b2d"/><path d="m27.0111 190.964c8.3858 3.535 15.9371 8.789 22.1666 15.423 3.0986 3.355 5.6525 7.176 7.569 11.322 1.8586 4.161 3.0175 8.6 3.4299 13.138.0006.006 0 .012-.0017.018-.0017.005-.0045.01-.0083.015-.0037.004-.0083.008-.0134.011-.0052.002-.0108.004-.0166.004-.011.001-.0219-.002-.0306-.009s-.0148-.016-.017-.027c-.836-4.417-2.2287-8.71-4.1446-12.776-1.9082-4.058-4.3629-7.835-7.2957-11.226-6.0733-6.691-13.4485-12.072-21.6739-15.813-.0053-.002-.01-.006-.0139-.01-.004-.004-.007-.009-.009-.015-.002-.005-.0029-.011-.0027-.017.0003-.006.0017-.011.0042-.016.0049-.011.0137-.019.0244-.023.0108-.004.0227-.004.0333.001z" fill="#fff"/><path d="m119.117 192.543c-1.471-.156-2.951-.222-4.43-.198-5.833.144-11.625 1.008-17.2464 2.574-2.0837.567-4.1842 1.234-6.2588 2.003-1.0377.385-2.067.796-3.0879 1.233-5.0518 2.077-9.7212 4.984-13.8153 8.599-1.9095 1.734-3.5955 3.699-5.0191 5.85-.1829.278-.3785.547-.5517.832l-.0031.005c-.4468.737-.8528 1.462-1.2401 2.183-3.5975 6.213-5.5569 13.238-5.6941 20.416-.2747 5.047.9136 10.954 1.8076 11.987.1211.137.2582.26.4083.365 1.3511 1.044 3.6801.718 8.1611-1.279 8.978-4.002 13.4324-15.801 13.4324-15.801l-11.6928-3.096 15.524-1.657 7.0715-9.098-11.2077-3.108 15.7051-.975c5.613-7.296 11.662-14.247 18.113-20.815.009-.005.017-.012.025-.019z" fill="#e55b2d"/><path d="m64.8465 248.822c.1504-5.808 1.0533-11.573 2.6861-17.149 1.5624-5.623 3.9949-10.968 7.2092-15.839 3.5029-4.696 7.8248-8.722 12.7579-11.882 4.8614-3.21 10.1324-5.752 15.6713-7.557.012-.004.025-.003.036.003.011.005.02.015.024.027.005.012.004.025-.001.036-.005.012-.014.021-.025.026-5.3203 2.237-10.3994 5.009-15.1594 8.273-2.3885 1.598-4.6636 3.36-6.8091 5.272-2.182 1.858-4.1475 3.956-5.8592 6.255-3.2528 4.76-5.7419 9.998-7.3772 15.527-1.7502 5.514-2.7776 11.232-3.0566 17.011-.0004.013-.0058.025-.0152.034s-.0219.014-.0348.013c-.0129 0-.0252-.006-.0341-.015s-.0137-.022-.0133-.035z" fill="#fff"/><path d="m295.169 288.488 3.179-1.72-3.231-.778z" fill="#000"/><path d="m327.528 293.308s-38.877-15.949-39.257-13.339c-.081.519-.054 1.049.078 1.557-.035-.045-.077-.089-.108-.136l.884 4.81c1.751 1.333 3.851 2.127 6.045 2.287-.005-.233-.036-1.674-.053-2.496 1.199.444 2.351 1.005 3.44 1.675 2.511 1.542 4.192 4.337 6.916 7.556 1.985 2.345 5.406 3.348 10.44 3.88 5.417.571 10.126-.644 11.411-2.149.332-.544.524-1.161.56-1.797.035-.636-.087-1.271-.356-1.848z" fill="#e55b2d"/><path d="m326.439 292.451c-.382-.374-1.802-1.835-3.708-3.414-1.82-1.604-3.72-3.114-5.692-4.526-1-.645-1.945-1.372-2.824-2.174-.694-.696-1.361-1.419-1.983-2.179-1.707-2.119-3.198-4.404-4.45-6.82-1-1.793-1.474-3.831-1.367-5.881-.017-5.734.327-11.462 1.029-17.153l-18.426.302c.64 2.907 1.017 7.877 1.419 11.194.612 5.044.788 6.164-.988 11.284-.691 1.439-1.146 2.979-1.348 4.563-.025 2.593 2.079 4.754 4.386 5.937 1.912.98 4.085 1.352 5.944 2.403 1.901 1.204 3.572 2.737 4.934 4.528 1.348 1.608 2.453 3.527 4.302 4.625 1.953 1.058 4.098 1.716 6.309 1.937 2.779.39 5.595.429 8.383.116 3.959-.459 6.862-2.02 4.08-4.742z" fill="#fff" stroke="#000" stroke-miterlimit="10" stroke-width=".25"/><path d="m324.142 289.706c-1.699-1.334-4.107-3.244-7.01-5.386-.982-.304-2.018-.394-3.038-.263-1.02.132-2 .481-2.873 1.025-5.571 3.213-6.382 7.504-6.382 7.504 1.024 1.879 2.743 3.283 4.788 3.91 6.669 2.643 18.381 1.295 18.384-1.751.001-1.939-1.806-3.42-3.869-5.039zm-34.37-17.734s-.345 1.013-1.276 3.006c-.509.904-.754 1.933-.706 2.97.048 1.036.388 2.038.98 2.891.675.992 1.547 1.834 2.562 2.474s2.151 1.064 3.337 1.245c1.609-5.834-2.57-11.423-4.897-12.586z" fill="#e55b2d"/><path d="m260.077 278.868c1.084 1.741-.321 8.305-.074 12.977.225 4.246 1.357 11.646.053 15.84-1.546 4.971-4.689 10.739-10.532 6.082-3.621-2.886-5.697-6.617-6.19-12.729-.343-4.247 1.351-10.122 2.807-15.332 1.7-6.087 2.347-9.341 2.347-9.341z" fill="#e55b2d"/><path d="m248.083 247.55c-.417 9.904.735 16.857.802 23.2-.025 2.877-.327 5.745-.903 8.564-.832 4.046-2.244 9.672-2.837 12.295-.829 3.664-1.458 5.974-.191 10.084.105.323.244.634.414.928 1.769 3.387 6.265 5.945 7.705 5.535.293.375.687.657 1.136.814s.934.182 1.396.071c.162-.028.322-.067.479-.117.164-.053.325-.118.48-.194.592-.327 1.109-.772 1.521-1.307.412-.536.709-1.151.873-1.806.093-.295.17-.594.231-.896.636-3.431.7-6.943.189-10.394-.114-2.303.021-5.235.224-8.95s1.086-15.383 2.378-20.96c.958-3.893 2.153-8.777 3.413-13.983z" fill="#fff" stroke="#000" stroke-miterlimit="10" stroke-width=".25"/><path d="m244.268 296.379c3.547-1.564 13.828-1.782 15.466 3.222.043 4.713.071 7.907-2.905 12.007-3.954 5.449-9.114-.327-11.092-3.995-1.625-3.507-2.138-7.427-1.469-11.234z" fill="#e55b2d"/><path d="m261.49 118.2c-5.009 8.978-9.05 16.547-10.354 40.266-1.472 26.768-1.253 36.962-1.381 40.193-.128 3.23-2.21 9.155-3.978 25.063s.095 54.477.095 54.477 1.251 2.598 7.334 3.188c3.045.417 6.145-.08 8.908-1.426 0 0 8.92-50.64 11.12-60.214s8.619-41.057 8.619-41.057l3.485 25.598s-1.777 8.773-.166 22.747c1.611 13.973 4.599 40.703 4.599 40.703 2.504 1.621 5.343 2.652 8.303 3.016 3.16.389 6.359-.301 9.078-1.958 0 0 5.438-55.385 5.553-71.209.116-15.824-1.105-55.31-5.915-78.774z" fill="#fff" stroke="#000" stroke-miterlimit="10" stroke-width=".25"/><path d="m327.618 88.8706s.271 2.3701-3.284 7.0008c-3.296 4.2916-1.833 10.1486 1.894 10.9276 3.726.778 7.996-2.054 13.27-4.652 5.485-2.7009 15.159-8.2179 19.992-11.1763 2.962-1.8124 6.332-1.8877 9.581-2.7489 3.24-.9509 6.211-2.6527 8.671-4.9672.978-.8295 1.829-1.7967 2.528-2.8714.629-.9578.973-2.0752.989-3.2211-.058-.3677-.018-.7444.118-1.0913.135-.3468.361-.6511.654-.8815.614-.6714.949-1.5524.936-2.4627-.163-1.0914-.238-2.1941-.224-3.2975.109-.7971-.167-2.0971-1.296-1.943-.251.051-.488.1528-.697.299-2.293 1.3945-4.385 3.0879-6.656 4.5153-1.035.8049-2.205 1.4195-3.456 1.8154-1.674.2583.063-1.8541.432-2.4265.38-.5493.706-1.1336.975-1.7448.379-1.0604.477-2.201.283-3.3104-.016-.1347-.06-.2644-.13-.3807-.098-.1179-.232-.201-.382-.2372-.149-.0361-.307-.0234-.448.0363-.281.1262-.53.3135-.729.5483-1.03 1.0533-2.03 2.1406-3.142 3.1068-1.215 1.0554-2.556 1.959-3.764 3.0221-1.749 1.5387-3.193 3.3848-4.926 4.9391-1.842 1.4504-3.919 2.5744-6.141 3.3235-6.336 2.7367-18.44 5.8811-25.048 7.8783z" fill="#fff" stroke="#000" stroke-miterlimit="10" stroke-width=".25"/><path d="m295.353 68.1775c5.621 1.2877 8.898 2.0677 16.114 7.6897 10.965 8.5427 16.068 12.6461 16.068 12.6461l16.339-4.6163c-.712 5.9279.966 11.1922 5.208 13.6569-4.765 2.9371-9.713 5.5671-14.814 7.8741-8.808 4.155-10.76 3.478-16.984-.577-6.447-4.2-23.854-14.5687-23.854-14.5687z" fill="#e55b2d"/><path d="m265.499 30.4405c-3.236 3.579-3.571 9.2909-2.317 14.0376.723 2.2054 1.713 4.3143 2.948 6.2797 1.87 3.3684 4.073 6.5411 6.576 9.4707.877 1.1532 2.079 2.0172 3.452 2.4806 2.304.6913 2.712-2.983 5.1-2.8619 1.524-.156 2.968-.7649 4.143-1.7483.616-.733 1.318 3.4156 1.603 2.5019 1.024-3.2992 2.488-6.4455 4.352-9.3543 1.55-2.4141 3.619-5.7679 6.069-7.0652 1.013-.5365 2.153-1.2427 2.33-2.4503-.099.653.017 1.3207.331 1.9016.315.5808.811 1.0427 1.413 1.3155-.31-.3299-.502-.7539-.544-1.2048-.042-.4508.067-.9029.311-1.2847.416-.7993 1.092-1.4138 1.491-2.2241.26-.5468.387-1.1471.371-1.7521-.015-.6051-.173-1.1981-.46-1.7309.464.2793.801.7277.941 1.2508.14.523.072 1.08-.191 1.5536.486-.31.885-.7375 1.161-1.2429.277-.5054.421-1.0723.421-1.6484.003-2.8024-2.665-3.6843-3.806-5.8127-.39-1.0455-.69-2.1222-.898-3.2184-.283-.8427-.609-1.6698-.979-2.4778-.744-1.597-1.795-3.0322-3.092-4.2242-4.909-4.5034-12.034-4.2161-17.861-2.3257-2.929.8555-5.563 2.5087-7.607 4.7748-1.341 1.3541-2.274 3.057-2.695 4.9152-.973.5598-1.841 1.2856-2.563 2.1447z" fill="#000"/><path d="m255.807 130.111c-1.824-2.265.877-2.037 1.924-16.745.27-3.792-2.911-14.0216-2.911-14.0216s3.266-6.4049 1.049-24.7071l15.336-7.6528 11.276-.4978 12.873 2.2925c3.732 2.97 7.05 6.4254 9.866 10.2743 4.829 7.1366 5.558 14.8947.348 20.5696-.077 1.1219.651 18.3279 2.055 22.5329 1.305 3.905 1.05 6.602-1.05 8.345-7.809 8.856-32.031 11.4-50.766-.39z" fill="#fff" stroke="#000" stroke-miterlimit="10" stroke-width=".25"/><path d="m269.763 55.2641c-.848.1209-1.712.0123-2.503-.3145-.792-.3269-1.481-.86-1.996-1.5439-2.372-2.8286-2.594-5.7099-1.491-7.6296.906-1.5776 3.143-2.5872 4.712-1.5219 1.679 1.1395 1.732 2.0712 2.367 3.3589.652 1.3223 2.259.2807 1.712-4.899 3.255-1.666 2.73-7.5896 4.488-10.0073.992-1.3141 2.42-2.2298 4.028-2.5814s3.289-.1158 4.738.6646c.869-.6812 1.922-1.0867 3.024-1.164 1.101-.0773 2.201.177 3.156.7302 2.19 1.2712 3.648 3.947 4.425 13.1485.793 9.3802-.697 15.6317-2.69 17.6222-1.372 1.3696-9.795 1.4661-12.833 1.2763l.864 4.0983s13.806 10.207 2.611 9.3104c-8.388-.672-12.685-7.7986-12.685-7.7986l-.075-14.225s-.181 1.1337-1.852 1.4758z" fill="#fff" stroke="#000" stroke-miterlimit="10" stroke-width=".25"/><path d="m298.333 39.1812c-.206-.019-.42-.0359-.641-.0502-2.128-.2087-4.275-.0308-6.339.5249-1.987.7493-2.658 1.5099-3.78 1.5707-1.2.0526-2.004-.6375-4.207-1.1827-2.258-.3437-4.558-.3043-6.803.1166-.234.0377-.461.0753-.677.1146-.236.0957-.433.2692-.557.4919s-.168.4812-.126.7325c.115.5098.371.9772.738 1.3492.116.1658.203.3502.257.5453.257 1.2829.613 2.5441 1.063 3.7726.242.4922.565.9408.954 1.3274.146.14.303.2681.469.383.088.0585.174.1141.267.1687.248.1428.512.2584.785.3446.044.014.088.0275.131.0377.066.018.137.0377.207.0533.07.0157.141.0298.215.0442.225.0421.452.0684.68.0787.094.0074.19.0097.29.0117.115-.0007.237-.0017.361-.0076.975.04 1.938-.2361 2.743-.7874.806-.5512 1.412-1.348 1.728-2.2716.605-1.4766.301-3.5118 1.586-3.5689.041-.0022.082-.0018.123.0013.039.002.077.0066.115.0139.964.1883.963 2.0648 1.644 3.3855.259.5249.597 1.0068 1.002 1.4288.074.0753.151.148.231.2171.04.0363.081.0691.123.1017.042.0327.084.0659.128.0972.038.0288.076.0557.116.0821.068.0444.096.0635.126.0811.032.0212.065.0401.099.0587.022.0141.045.0271.069.0403.356.1955.74.3358 1.139.4161.034.0064.069.0141.104.02.451.0809.91.1069 1.367.0775.855.0106 1.688-.2621 2.371-.7754.683-.5134 1.177-1.2385 1.404-2.062.286-1.2682.474-2.5565.562-3.8536.027-.1847.098-.3603.207-.5121.304-.4189.479-.918.502-1.4352-.006-.6106-.422-1.1493-.776-1.1822zm-13.049 6.0445c-.096.7485-.387 1.4586-.843 2.0596l-.002.0009c-.366.4245-.823.7613-1.337.9857s-1.071.3306-1.631.3107c-.574.051-1.151-.0439-1.677-.2758-.527-.2319-.986-.5933-1.336-1.0506-.036-.0468-.071-.0938-.102-.1396-.034-.0473-.065-.0929-.094-.1389-.028-.0433-.055-.0871-.08-.1313-.023-.0388-.046-.0791-.067-.1184-.018-.0316-.035-.0628-.05-.0943-.016-.0291-.031-.0572-.043-.0848-.024-.0468-.047-.0955-.069-.1417v-.0018c-.066-.1428-.123-.281-.172-.4156l-.004-.0102c-.031-.0854-.06-.1695-.088-.2497-.048-.1455-.088-.2827-.121-.4035l-.021-.0773-.021-.0741c-.277-.9992-.654-2.9713-.202-3.4422 1.097-.7736 2.452-1.0903 3.779-.8834.071 0 .146.0054.223.0117.322.0236.642.0655.959.1255.125.0227.251.0492.374.0771.319.0719.634.1626.943.2717.101.0355.198.0728.29.1105.111.0434.216.0909.316.1392.021.0097.042.0196.063.0307.04.0191.078.0386.115.0608.251.1188.474.2887.655.4988.413.9628.498 2.0342.244 3.0503zm12.082-1.0167c-.023.652-.193 1.2903-.498 1.8669-.306.5765-.738 1.0763-1.264 1.4617-.775.4068-1.665.5361-2.524.3667-.858-.1695-1.632-.6276-2.194-1.2982l-.01-.0145c-.023-.031-.044-.0608-.063-.0898-.025-.0354-.048-.0713-.069-.1047-.012-.017-.023-.0359-.035-.0547-.031-.0513-.062-.1044-.089-.1559-.033-.0605-.065-.1204-.094-.1829-.016-.0287-.03-.0587-.044-.0886l-.022-.0502c-.012-.0259-.022-.0502-.033-.0753-.008-.0202-.018-.0401-.024-.0579-.1-.2416-.182-.4901-.246-.7435-.352-.9818-.394-2.0479-.121-3.0546.876-.9181 2.044-1.504 3.304-1.6577.314-.0578.631-.0984.949-.1215.038-.0024.077-.0049.113-.0067.042-.0025.082-.0043.122-.0058.113-.0054.225-.0059.331-.0063.041 0 .081.0001.121.0018.054.002.106.0031.157.0069.09.0025.177.0095.261.0183.163.014.324.0364.484.0671.039.0075.078.0152.115.0236.01.001.02.0032.03.0065.025.0056.051.0104.078.0184.039.0078.079.0197.117.0298.047.0118.096.0276.14.041.084.0265.16.054.232.0845.014.0048.028.0104.041.0167.194.0757.374.1828.533.3168.473.4232.343 2.4219.202 3.4419zm-21.387-2.1095-6.364 3.138c-.345-.3623-.723-.6915-1.129-.9832l7.308-3.7999z" fill="#000"/><path d="m282.481 66.4859 12.872 1.6912c6.44 5.0851 14.04 13.9205 14.33 20.7964.221 3.8747-.184 7.7596-1.199 11.5055 0 0-.736 14.239.705 21.644 1.441 7.406 4.828 25.335 4.828 25.335-2.586 2.466-5.742 4.255-9.187 5.207-1.476-9.494-4.889-45.335-4.482-53.6591.407-8.3244-1.724-25.1334-17.867-32.52z" fill="#e55b2d"/><path d="m304.687 77.7191c2.812 3.7581 4.848 7.7596 4.996 11.2548.221 3.8746-.184 7.7595-1.199 11.5051 0 0-.736 14.239.705 21.645 1.441 7.405 4.828 25.335 4.828 25.335" stroke="#000" stroke-miterlimit="10" stroke-width=".25"/><path d="m271.205 66.984s2.063 4.2652 5.672 13.0156c3.609 8.7505 7.101 16.7085 6.865 24.7374-.236 8.029-4.209 49.772-4.209 49.772s-14.601 0-20.909-2.003l1.004-16.35-3.88 15.446c-2.016-.67-3.901-1.685-5.569-3 1.3-17.65 7.26-25.346 6.153-35.696-1.02-9.523-7.229-18.0418-1.511-40.0929z" fill="#d12626"/><path d="m271.205 66.984s2.063 4.2652 5.672 13.0156c3.609 8.7505 7.101 16.7085 6.865 24.7374-.236 8.029-4.209 49.772-4.209 49.772s-14.601 0-20.909-2.003l1.004-16.35-3.88 15.446c-2.016-.67-3.901-1.685-5.569-3 1.3-17.65 7.26-25.346 6.153-35.696-1.02-9.523-7.229-18.0418-1.511-40.0929z" fill="#e55b2d"/><path d="m388.976 272.073 1.647-14.561-17.566 1.098s.267 7.903.513 12.376c.146 2.645-3.611 7.555-3.611 7.555s8.252 4.197 12.673 2.728c4.42-1.469 6.76-6.688 6.698-7.826s-.354-1.37-.354-1.37z" fill="#fff" stroke="#000" stroke-miterlimit="10" stroke-width=".25"/><path d="m350.009 294.818c-.26.646-.333 1.352-.211 2.038.121.685.433 1.323.899 1.84 3.65 2.518 8.112 3.574 12.503 2.961 6.241-.664 9.642-2.456 12.166-4.417 2.524-1.96 6.061-4.725 8.887-5.273 2.246-.364 4.398-1.166 6.335-2.359.85-.763.788-4.22.788-4.22z" fill="#000"/><path d="m389.104 272.046c.225.011.44.099.609.249s.282.353.32.575c.177.956.341 3.728.728 5.299.601 2.759.763 5.595.48 8.405-.371 1.764-4.657 2.919-7.398 3.869-3.214 1.283-6.22 3.037-8.917 5.204-3.904 2.69-8.48 4.239-13.216 4.472-4.802-.118-10.186-1.707-11.391-3.868-1.492-2.674-2.56-5.769 4.611-8.815 1.357-.576 6.135-3.186 7.764-4.133 4.408-2.565 7.518-4.934 9.6-9.571.175-.577.545-1.076 1.047-1.411.442-.17.925-.204 1.386-.095 2.357.296 4.69.766 6.979 1.404.949.455 2.297.988 2.258 2.163-.031.41-.128.812-.288 1.191-.089.238-.161.557.055.703.205.138.481-.01.669-.167.71-.672 1.364-1.401 1.955-2.18.338-.404.722-.768 1.145-1.083.424-.222.835-.468 1.231-.738.439-.407.343-.922.373-1.473z" fill="#000"/><path d="m374.926 295.647c1.257-.962 2.591-1.89 3.928-2.717v-.006s-8.452 4.745-11.8 2.465c-2.158-1.469-1.093-3.189-1.032-3.743.061-.555-7.574-4.61-9.687-4.889-.595.303-1.093.546-1.406.679-7.171 3.046-6.102 6.141-4.61 8.815 1.205 2.161 5.096 3.899 11.303 4.008 4.059.071 10.341-2.345 13.304-4.612z" fill="#000"/><path d="m418.558 279.241-3.184-13.732 16.37-1.926.277 13.179s1.57 4.762.516 6.452c-1.053 1.69-11.942 3.208-12.912 2.038-.971-1.169-1.067-6.011-1.067-6.011z" fill="#fff" stroke="#000" stroke-miterlimit="10" stroke-width=".25"/><path d="m419.208 308.937c.386 4.231 1.19 6.982 2.919 9.314s4.886 2.806 8.043 1.76c3.157-1.045 7.174-3.403 7.986-7.166.73-3.351.64-6.83-.265-10.139z" fill="#000"/><path d="m432.021 276.762c1.311-.036.854 5.735 1.761 11.385.973 6.055 3.056 8.393 3.913 13.352.979 5.666.716 8.267-1.408 11.961-2.125 3.695-9.878 7.88-13.877 3.286-3.261-3.746-3.511-8.232-3.377-14 .237-4.877.204-9.764-.098-14.637-.37-4.278-1.5-8.106-.377-8.698.105.624.212 1.417.321 2.029.084.469.276 2.786 1.011 2.736.044-.541.035-1.084-.029-1.623-.044-.246-.039-.5.016-.744.056-.245.159-.476.305-.679.633-.487 1.357-.842 2.13-1.044 1.281-.359 3.567-.788 4.873-1.025.65-.118 1.303-.211 1.958-.269.554-.066 1.115-.049 1.664.051.152.026.295.086.421.174.125.089.229.205.303.34.071.209.101.429.086.649.01.395.076.787.196 1.164.052.165.186.359.373.3.068-.033.124-.086.161-.152.036-.066.051-.142.042-.217-.013-.694-.123-1.189-.18-1.992-.027-.371-.107-.873-.123-1.247-.014-.368-.028-.736-.065-1.1z" fill="#000"/><path d="m437.355 299.893c.149.817 1.068 6.229-.551 7.381-1.752 1.247-2.844-2.972-2.844-2.972s-4.208-.749-10.222 2.27c.336.86-.524 3.89-2.208 3.434-1.673-.451-2.495-6.683-2.506-6.764-.106 5.527.221 9.866 3.386 13.502 3.999 4.595 11.754.41 13.877-3.285 2.122-3.695 2.387-6.295 1.408-11.961-.098-.567-.214-1.097-.34-1.605z" fill="#000"/><path d="m429.285 133.733c5.682 35.889 2.249 81.583 2.249 81.583 1.128 7.062 1.684 14.203 1.664 21.355-.139 13.449-.297 32.498-.297 32.498s-8.86 6.908-17.757 2.165c0 0-6.231-24.986-8.872-44.549-2.11-15.64-5.93-38.887-5.93-38.887l-6.18 24.777s.659 9.647.501 16.408c-.183 7.863-4.465 38.014-4.465 38.014s-9.931 5.69-17.509-.205c0 0-2.921-43.866-3.291-53.315-.726-18.534-.268-57.237 1.777-80.707z" fill="#e55b2d"/><path d="m450.433 125.579c-.288 3.678-1.867 17.167-2.796 21.084h-17.652c1.682-10.369 3.769-27.791 3.769-27.791l-5.159-20.109c-.063.4142-.113.8285-.176 1.255-.539 3.565-3.025 10.394-2.987 17.875.152 6.866.916 13.705 2.284 20.435 0 0-8.422 9.1-33.05 7.632-19.343-1.143-22.707-8.297-22.707-8.297s.088-3.327.214-8.235c-3.611 1.524-7.298 2.86-11.046 4.004-6.352 2.046-17.584 6.296-17.584 6.296-3.567-5.485-5.189-10.895-3.9-16.189 12.376-3.502 26.09-11.333 26.09-11.333s.502-4.38 2.498-20.5099c2.009-16.205 6.572-23.9175 12.527-25.9331 5.956-2.0155 11.235-4.2346 23.17-4.2346 11.936 0 22.619 5.6773 24.477 6.4555 7.544 2.8745 12.454 6.4275 14.525 13.2938 2.071 6.8662 5.648 24.5273 6.389 29.4723 1.105 7.356 1.516 9.896 1.114 14.829z" fill="#fff" stroke="#000" stroke-miterlimit="10" stroke-width=".25"/><path d="m443.821 156.052c.172 1.693.193 3.399.063 5.096-.156 2.019-.6 4.006-1.318 5.9-.49 1.318-.791 2.748-1.356 4.016-.514.867-1.115 1.679-1.795 2.423-.665.904-.878 2.021-1.694 2.824-1.431 1.393-2.938 1.619-4.306 2.285-.577.878-1.544 2.749-2.196 3.577-1.67 2.109-2.109-1.305-2.072-2.46.082-1.245.297-2.478.641-3.678.816-3.021 1.466-6.084 1.945-9.176.088-.552.703-2.824-.188-2.799-.147.019-.288.068-.415.144-.128.075-.238.176-.326.295-.555.757-1.066 1.545-1.531 2.36-.437.59-.92 1.144-1.444 1.657-.403.48-.892.88-1.443 1.18-.577.251-2.711.452-2.812-.552-.009-.161.026-.322.101-.465.426-1.042.941-2.046 1.368-3.088.46-1.029.858-2.085 1.192-3.163.65-3.196 1.898-6.241 3.678-8.975 1.071-2.123 1.743-4.425 1.983-6.79h13.871c-.844 3.086-1.493 6.222-1.946 9.389z" fill="#fff" stroke="#000" stroke-miterlimit="10" stroke-width=".25"/><path d="m340.279 125.521c-4.587.651-5.917-.21-8.877-.273-.217-.032-.437.022-.614.151-.209.279-.4.571-.573.874-.265.335-.559.661-.855.968-.377.39-5.173 6.366-5.101 6.403l2.258 1.18s7.284 8.03 11.879 5.079c1.043-.669 2.287-.328 3.354-.799.991-.429 1.857-1.105 2.515-1.962.633-1.363.714-2.918.224-4.339l-.841-3.999c-.263-1.253-.401-2.618-1.798-3.074-.146-.048-1.571-.209-1.571-.209z" fill="#fff" stroke="#000" stroke-miterlimit="10" stroke-width=".25"/><path d="m417.227 27.3854c-.592-1.4994-1.735-2.7156-3.195-3.3995-.68-3.9752-5.09-8.6094-13.403-8.8679-.979.0536-1.96-.096-2.879-.4394-1-.4518-1.872-1.2159-2.845-1.7358-.915-.4935-1.935-.7591-2.975-.7744-.846-.0264-1.683.1769-2.423.5881-.794.4631-1.398 1.1936-1.704 2.0608-.253.8878-.338 1.8151-.25 2.7341-.689-.1933-1.426-.1193-2.064.2071-.888.3301-1.627.9706-2.079 1.8031-.397.8885-.469 1.8879-.205 2.8243.253.8991.707 1.7295 1.325 2.4293-.613.3672-1.089.9263-1.353 1.5909s-.301 1.3976-.106 2.0857c.161.663.517 1.2624 1.022 1.7211.506.4586 1.137.7554 1.812.8521-.161-.0169.095 1.106.133 1.1955.177.4031.487.7327.879.9325.881.4166 1.795.758 2.733 1.0205l3.859 1.4184c3.19 1.1727 6.381 2.3454 9.571 3.5182l8.031 2.9523-.111 4.9574.006 7.11c.494-.2014.943-.4986 1.322-.8745.378-.3759.679-.8231.884-1.3158 1.431-3.1974 2.473-6.5553 3.103-10.0013 1.931-9.312 1.735-12.8454.912-14.5928z" fill="#000"/><path d="m416.563 48.9646c-.352.2763-.76.4719-1.195.5729-.435.1011-.888.1051-1.325.0117-.437-.0933-.848-.2817-1.204-.5518s-.649-.6152-.857-1.0109l.251 17.0724c-3.219 5.3679-6.152 6.2538-9.784 5.7489-3.631-.5048-5.476-2.908-4.438-5.7489l2.384-7.4641s-5.137 1.1967-6.803.9352c-2.78-.4268-5.156-2.6141-6.062-6.9778-1.092-5.2619-1.285-16.7358.041-21.9559.428-1.6852.87-3.6204 2.191-4.4417 3.279-2.0387 13.414-2.9246 16.126 1.7615-.31 2.8932.467 6.0555 2.736 6.9448.174 4.5571.772 6.7477 2.311 7.4534 1.251.5738 1.804-1.6973 2.631-2.7724.388-.418.881-.7255 1.427-.891.546-.1656 1.126-.1833 1.681-.0513s1.065.4089 1.478.8025.714.8898.873 1.4378c.739 1.5657.898 3.3434.447 5.0151-.451 1.6718-1.483 3.1285-2.909 4.1096z" fill="#fff" stroke="#000" stroke-miterlimit="10" stroke-width=".25"/><path d="m371.763 92.2883.349 21.5487-1.133 16.807-1.18 17.503" stroke="#000" stroke-miterlimit="10" stroke-width=".25"/><path d="m341.183 138.467c-3.896-1.181-7.416-3.357-10.216-6.312-.22-.195-.392-.437-.505-.708-.112-.272-.162-.565-.144-.859.11-.351.312-.667.587-.913.63-.674 1.261-1.348 1.891-2.022.819-.801 1.526-1.709 2.102-2.7.371-.624.513-1.358.4-2.076-.158-.702-.394-1.026-1.112-1.082-.247-.02-.798.309-1.553.934-2.007 1.661-3.583 1.878-6.347 3.534-2.69 1.611-6.287 2.975-8.497 2.837v.001-.001c-6.718-1.257-36.789-10.901-36.789-10.901s-14.227-25.9092-16.808-31.2135c-2.58-5.3044-4.646-10.138-9.151-13.1135-6.473 2.2105-12.353 12.1099-8.052 21.8584 4.3 9.7486 16.773 29.8816 19.067 33.7926 2.293 3.911 4.325 5.91 10.052 7.208 5.42 1.229 30.334 3.683 37.25 4.632l-.082.228c4.568.567 5.704 1.182 6.435 1.504 3.135 1.382 7.734.854 11.515.385.785-.068 1.556-.244 2.293-.526.688-.293 1.298-.75 1.99-1.036 1.198-.334 2.414-.6 3.642-.796 1.188-.283 2.269-.904 3.111-1.788.115-.135.769-.807.779-.984-.585.262-1.245.303-1.858.117z" fill="#fff" stroke="#000" stroke-miterlimit="10" stroke-width=".25"/><path d="m254.82 72.8132c-5.809 2.4877-12.621 10.9287-9.301 20.4894 3.32 9.5604 17.561 32.5584 20.001 36.6064 2.441 4.049 3.99 5.943 7.695 6.977 3.704 1.034 21.791 2.842 21.791 2.842 1.499-3.005 2.461-6.249 2.843-9.585.775-5.919-1.12-7.407-1.12-7.407l-15.246-4.889s-16.796-32.1242-19.121-36.3446c-2.326-4.2205-4.575-7.4727-7.542-8.6892z" fill="#e55b2d"/><path d="m254.82 72.8132c-5.809 2.4877-12.621 10.9287-9.301 20.4894 3.32 9.5604 17.561 32.5584 20.001 36.6064 2.441 4.049 3.99 5.943 7.695 6.977 3.704 1.034 21.791 2.842 21.791 2.842 1.499-3.005 2.461-6.249 2.843-9.585.775-5.919-1.12-7.407-1.12-7.407l-15.246-4.889s-13.724-28.8113-16.642-31.7043" stroke="#000" stroke-miterlimit="10" stroke-width=".25"/><path d="m332.525 143.268c-.836.166-1.702.073-2.484-.266-1.043-.851-2.121-1.185-2.887-2.292-.267-.426-.57-.827-.908-1.2-.604-.541-1.319-.944-2.095-1.18-.725-.266-1.372-.659-2.127-.901-.365-.118-.945-.132-1.127.305-.318-.412-.702-.77-1.136-1.058-.466-.284-1.582-.645-1.892.034-.072.19-.107.391-.103.594-.054 1.224-.107 2.448-.161 3.673-.028.305-.012.612.048.913.124.344.317.658.567.925.251.266.553.478.888.623.375.213.779.367 1.2.457.515.099 1.048.056 1.561.159 1.065.214 1.964 1.037 3.048 1.095.675.037 1.332-.233 2.008-.256.557-.019 1.105.13 1.661.163.745.043 3.284-1.431 3.939-1.788z" fill="#fff" stroke="#000" stroke-miterlimit="10" stroke-width=".25"/><path d="m323.284 128.213c-.499.225-1.007.433-1.491.691-1.274.676-2.348 1.668-3.548 2.467-.764.54-1.621.932-2.529 1.157-.619.134-2.019.292-2.255-.562-.039-.276.029-.556.189-.784.517-.963 1.076-1.902 1.676-2.818.496-.919 1.161-1.737 1.96-2.41 1.026-.699 2.118-1.294 3.262-1.775.484-.233.99-.414 1.511-.542.971-.144 1.96-.109 2.919.101 1.441.226 3.487.452 4.928.683-.279.215-.976.72-1.164.832-.603.356-1.204.712-1.811 1.06-1.189.682-2.396 1.336-3.647 1.9z" fill="#fff" stroke="#000" stroke-miterlimit="10" stroke-width=".25"/><path d="m171.63 289.935c-.325 4.488-1.065 7.456-2.696 10.067s-4.61 3.232-7.683 2.582c-1.879-.383-3.634-1.226-5.107-2.453-1.473-1.228-2.618-2.802-3.333-4.581-1.081-2.973-.604-6.54.146-10.696z" fill="#000"/><path d="m159.257 257.023c-1.255.081-1.712 6.107-2.52 12.135-.867 6.461-2.899 10.053-3.605 14.408-.979 6.036-.597 8.765 1.476 12.461 2.072 3.695 10.259 7.613 14.039 2.416 3.082-4.238 3.274-8.983 3.084-15.04-.278-5.134-.299-10.279-.061-15.415.309-4.536.684-8.931-.398-9.452-.094.666-.187 1.511-.286 2.164-.075.502-.235 2.958-.938 2.971-.049-.569-.045-1.141.01-1.71.085-.513-.031-1.039-.323-1.469-.377-.361-.864-.587-1.384-.641-1.229-.276-2.471-.486-3.723-.63-.623-.066-1.25-.102-1.877-.105-.767-.09-1.542-.094-2.311-.012-.151.047-.29.125-.409.229-.118.105-.213.233-.278.377-.066.224-.092.459-.076.692-.006.42-.064.837-.174 1.242-.049.179-.175.396-.354.35-.145-.038-.201-.22-.199-.37.005-.731.106-1.262.151-2.113.022-.393.093-.928.104-1.323.011-.389.02-.777.052-1.165z" fill="#e55b2d"/><path d="m199.354 271.969 5.345-1.825-1.617-3.629-3.345 2.925z" fill="#000"/><path d="m194.186 262.268s-.316 3.433-.396 4.515c-.081 1.083 4.435 4.595 5.564 5.186l.383-2.529c1.011 1.285 1.857 2.692 2.52 4.187.841 1.573 1.885 4.531 4.269 6.599 3.538 3.069 9.148 4.744 14.912 5.133 5.763.388 9.111-.928 10.791-2.129.713-.396 1.281-1.011 1.619-1.754.339-.742.43-1.574.26-2.373-.365-1.478-39.922-16.835-39.922-16.835z" fill="#000"/><path d="m209.983 251.005.131-1.994c1.065.001 1.104 2.895 2.578 5.48 2.134 3.864 4.756 7.438 7.801 10.635 5.686 5.512 10.805 9.021 13.342 11.503 3.395 3.319-2.901 8.235-12.303 7.417-4.667-.406-12.898-3.012-15.146-5.847s-3.549-7.184-5.356-9.249c-1.806-2.065-5.755-4.21-6.844-6.682-.598-1.358-.165-4.471.299-7.114.427-2.425.614-6.157 1.977-5.812l.059 1.256c.528 1.083 1.775 2.882 5.525 3.634 1.872.375 7.481.717 7.937-3.227z" fill="#e55b2d"/><path d="m160.279 121.255c-2.544 36.225-3.651 76.584-3.651 76.584-.798 7.303-1.19 14.645-1.175 21.992-.121 13.182.708 45.423.708 45.423s8.371 5.942 17.411 1.461c0 0 6.704-35.667 9.718-54.789 2.41-15.287 5.681-34.925 5.681-34.925l2.756 18.282c-.973 7.071-1.305 14.215-.992 21.345.515 7.692 3.3 36.938 3.3 36.938s10.874 8.902 19.38.362c0 0 4.042-48.917 4.587-58.169 1.069-18.15.433-51 0-74.031z" fill="#fff" stroke="#000" stroke-miterlimit="10" stroke-width=".25"/><path d="m176.907 11.5671c1.309-3.65961 4.006-3.94593 4.006-3.94593.829-3.90853 5.968-8.464129 13.038-7.487185 7.07.976945 10.525 3.405055 12.748 8.188475 2.223 4.78344.339 8.11834.339 8.11834l-20.684-1.4803c-.008 1.0996-.093 2.1973-.253 3.2853-.495 3.4978-3.54 7.6053-3.54 7.6053l-.03 4.9118-.216 7.0381c-1.014-.4285-1.818-1.2378-2.241-2.2538-1.142-3.3374-1.935-6.7844-2.366-10.2856-.997-6.0085-1.764-11.0035-.801-13.6945z" fill="#000"/><path d="m225.935 63.6651c-2.934-8.6094-7.415-11.6439-13.833-13.667l-18.765-4.2612-12.003.2872c-8.592 1.9885-22.563 3.7421-31.152 12.3467-8.588 8.6046-13.43 36.9708-14.293 43.1882-.907 6.528.493 8.656 4.895 11.421 2.861 1.798 12.723 5.324 19.278 7.572-.194 4.055-.381 6.894-.381 6.894s8.805 14.683 33.773 13.65c19.603-.811 27.435-7.46 27.435-7.46s-2.342-25.247-2.183-39.7625c1.567 3.1914 3.03 5.5858 4.063 6.059 3.661 1.6765 12.77-1.5651 14.021-5.098-2.021-6.5106-7.834-22.3059-10.855-31.1694zm-65.852 30.4666c.18 2.8473.319 5.8843.372 8.8153l-2.823-1.646s1.094-3.2487 2.451-7.1693z" fill="#e55b2d"/><path d="m177.009 32.2968c2.248 1.8246 4.467-.7062 4.467-.7062l-.226 13.7359c.129 1.2799.547 2.5138 1.223 3.6084.676 1.0947 1.592 2.0216 2.678 2.7108 5.479 3.8585 8.36 3.6114 9.968 3.0473s3.188-4.5129-1.844-7.1455l-.875-4.9568s6.234.3453 7.983.1513c2.917-.3146 4.87-2.7534 5.92-6.1867 1.685-5.5216 1.932-15.3397-.155-25.4766-3.654-3.48952-13.115-3.6576-20.17.7051-.008 6.4385-1.755 9.187-1.867 11.5186-.337.653-.793 1.2377-1.344 1.7243-1.112.9548-1.835-1.7503-2.668-2.8469-.841-1.0885-3.67-2.6876-5.29.6241-1.638 3.3727.258 7.9225 2.2 9.4929z" fill="#fff" stroke="#000" stroke-miterlimit="10" stroke-width=".25"/><path d="m184.068 22.462c.242 6.9083 2.372 7.4058 4.569 7.8295 2.909.5606 4.362-1.1822 9.572-1.1332 3.161.0296 4.144 1.086 5.935 1.9267 1.324.6213 2.704.5479 2.925-.8742.391-2.9624.539-5.9518.442-8.9383.356 4.1726.351 8.3681-.015 12.5398-.455 3.2421-1.251 6.2744-2.872 7.7782-2.244 2.0822-6.942 2.3564-12.76.8685-5.732-1.4659-7.957-3.6662-8.64-5.9674-2.219-7.468-1.298-10.9824-2.052-12.3977s2.896-1.6319 2.896-1.6319z" fill="#000"/><path d="m197.481 31.2236c-2.975-.0974-3.952.4962-4.112 2.7664-.228 3.2501-.092 4.347 1.02 4.5265 1.312.2116 2.274.3098 2.327-.6117.127-.6985.067-1.4183-.174-2.0862-.457-.6249-.295-.7155 1.012-.6697 1.352.0472 1.287.3004.897.7455-.25.6646-.344 1.378-.272 2.0846-.002.7029.136.9755 2.014.792 1.641-.1604 1.372-1.6286 1.363-4.4226-.007-1.8815-.708-3.0147-4.075-3.1248z" fill="#fff" stroke="#000" stroke-miterlimit="10" stroke-width=".25"/><path d="m198.841 65.2204c-.063-.2316-.144-.5184-.208-.7065l-.001-.0048-2.807.12c.007.3389-.009.7629-.032 1.2525 1.061.1197 2.132-.1126 3.048-.6612z" fill="#e55b2d" opacity=".15"/><path d="m190.089 107.873c-.348-.457-1.413.496-3.682 1-2.897.644-4.023.542-7.096 1.345-1.38.466-2.82.732-4.276.79l11.19 2.293c1.136-.477 2.195-1.121 3.14-1.911.542-.387.917-.965 1.051-1.617.135-.652.018-1.33-.327-1.9z" fill="#000"/><path d="m239.197 77.4314c.789-.3347 1.346-.0145 1.243.7155l-5.231 37.3811-52.492 22.279 5.36-37.44c.104-.4238.304-.8177.584-1.1518.281-.3341.634-.5996 1.033-.7759l29.982-12.7234 2.131-3.7971c.149-.2534.377-.4508.648-.5619l12.431-5.2868c.299-.1492.644-.1775.963-.0789s.588.3165.751.6084l.615 1.6731z" fill="#000"/><path d="m235.208 113.745-50.716 21.525 5.302-35.3423 52.36-22.2201z" fill="#fff" stroke="#000" stroke-miterlimit="10" stroke-width=".25"/><path d="m182.717 137.807 8.777-35.4c.147-.422.378-.81.679-1.139.302-.33.667-.594 1.074-.778l49.503-21.008c.788-.3348 1.284-.0191 1.107.7048l-8.648 35.3412z" fill="#000"/><path d="m194.14 113.379c-2.635.222-5.285.196-7.915-.078l-11.19-2.292c-4.984.578-18.174 8.472-8.745 11.147 5.04 1.43 7.832 2.831 13.154 3.613 2.859.489 5.757.705 8.656.647 1.034.02 2.067-.09 3.074-.327 1.55-.715 2.996-1.637 4.297-2.743.424-.256.779-.613 1.031-1.039.303-.619.174-1.405.562-1.974.327-.48.942-.684 1.322-1.124.664-.769.586-1.975 1.109-2.845.447-.745 1.355-1.606.877-2.554-.756-1.499-2.653-.725-6.232-.431z" fill="#fff" stroke="#000" stroke-miterlimit="10" stroke-width=".25"/><path d="m240.825 92.5775c2.254 2.7372 2.279 4.8948 1.447 8.4985-.831 3.605-3.175 7.895-4.493 9.057-1.317 1.162-3.784 2.814-6.557 2.254-2.743-.556-2.852-4.103-4.094-5.583-1.986-2.366.689-4.119 3.267-4.474 3.336-.32 6.485-1.686 8.999-3.901z" fill="#fff" stroke="#000" stroke-miterlimit="10" stroke-width=".25"/><path d="m126.538 317.162 3.344-1.712-3.339-.885z" fill="#000"/><path d="m160.059 322.936s-40.033-17.494-40.49-14.791c-.096.538-.081 1.09.044 1.621-.035-.048-.077-.095-.109-.144l.806 5.021c1.788 1.426 3.952 2.302 6.229 2.52 0-.243.002-1.741.004-2.596 1.235.489 2.42 1.1 3.535 1.822 2.573 1.662 4.255 4.607 7.011 8.017 2.008 2.484 5.54 3.608 10.76 4.279 5.617.722 10.541-.431 11.912-1.965.358-.557.572-1.194.624-1.854.052-.661-.06-1.324-.326-1.93z" fill="#e55b2d"/><path d="m158.947 322.02c-.388-.398-1.829-1.95-3.773-3.637-1.854-1.709-3.793-3.324-5.81-4.838-1.025-.694-1.99-1.472-2.885-2.326-.704-.74-1.381-1.507-2.009-2.312-1.931-2.52-3.58-5.244-4.918-8.123-.75-1.351-1.333-2.788-1.736-4.28-.318-1.57-.499-3.166-.54-4.768-.155-7.22-.015-8.368-.061-13.864l-16.8.795c.596 3.038 1.494 7.187 1.834 10.644.517 5.258.674 6.427-1.293 11.706-.753 1.479-1.262 3.07-1.509 4.711-.088 2.694 2.048 4.991 4.418 6.274 1.965 1.064 4.215 1.502 6.122 2.638 1.948 1.296 3.648 2.929 5.022 4.823 1.363 1.703 2.467 3.724 4.362 4.908 2.006 1.146 4.22 1.881 6.512 2.162 2.879.472 5.806.579 8.712.319 4.126-.383 7.179-1.937 4.352-4.832z" fill="#fff" stroke="#000" stroke-miterlimit="10" stroke-width=".25"/><path d="m156.624 319.112c-1.734-1.427-4.192-3.469-7.159-5.763-1.014-.34-2.089-.458-3.152-.345-1.063.112-2.09.452-3.01.997-5.866 3.208-6.81 7.65-6.81 7.65 1.02 1.977 2.773 3.476 4.884 4.177 6.87 2.904 19.075 1.779 19.15-1.386.047-2.016-1.797-3.598-3.903-5.33zm-35.306-19.243s-.383 1.044-1.397 3.094c-.551.928-.83 1.992-.804 3.07.026 1.079.355 2.129.951 3.028.677 1.048 1.564 1.944 2.604 2.633s2.21 1.156 3.439 1.373c1.81-6.027-2.402-11.934-4.793-13.198z" fill="#e55b2d"/><path d="m90.461 308.485c1.1641 1.786-.1529 8.639.2063 13.491.3264 4.408 1.664 12.075.3998 16.463-1.4981 5.201-4.6392 11.265-10.8139 6.553-3.8272-2.921-6.0659-6.753-6.7127-13.096-.4494-4.408 1.1844-10.551 2.5835-15.999 1.6342-6.364 2.2362-9.76 2.2362-9.76z" fill="#e55b2d"/><path d="m77.3104 276.193c-.2179 10.303 1.1312 17.506 1.3391 24.097.0377 2.992-.214 5.98-.7518 8.923-.7765 4.223-2.1206 10.102-2.6807 12.841-.7821 3.826-1.3847 6.241.0215 10.486.1165.333.2674.653.4503.955 1.9124 3.482 6.6417 6.043 8.1303 5.586.3125.383.7285.668 1.1985.821.47.154.9741.168 1.4523.043.168-.032.3335-.076.4952-.132.17-.058.3355-.129.4952-.212.6077-.352 1.1363-.826 1.5528-1.392.4164-.566.7118-1.212.8676-1.897.09-.308.1637-.621.2208-.936.5857-3.58.5754-7.232-.0303-10.809-.1686-2.391-.0932-5.441.0369-9.308.13-3.866.7941-16.013 2.0146-21.839.911-4.068 2.047-9.169 3.2429-14.609z" fill="#fff" stroke="#000" stroke-miterlimit="10" stroke-width=".25"/><path d="m74.4098 327.032c3.6527-1.704 14.3347-2.155 16.1471 3.012.1467 4.897.2461 8.217-2.7579 12.544-3.9916 5.75-9.4808-.142-11.6169-3.911-1.7664-3.61-2.3849-7.673-1.7723-11.645z" fill="#e55b2d"/><path d="m88.4244 141.446c-5.0104 9.442-8.7182 17.153-8.8575 45.024s.0525 35.676-.0107 39.038c-.0631 3.361-1.9363 9.393-3.4268 25.967-1.4904 16.575 1.3306 49.5 1.3306 49.5s.8786 2.421 7.2149 2.902c5.8455.443 8.2288-2.005 8.2288-2.005s7.8653-45.128 9.9423-55.127c2.078-10 8.064-42.866 8.064-42.866l4.181 26.532s-1.655 9.158.324 23.648 5.868 41.887 5.868 41.887c2.655 1.69 5.741 2.578 8.888 2.558 2.762.007 5.474-.742 7.841-2.164 0 0 3.919-57.041 3.694-73.492-.225-16.45-.67-57.468-6.181-81.753z" fill="#fff" stroke="#000" stroke-miterlimit="10" stroke-width=".25"/><path d="m122.472 90.6228c9.747 1.3216 13.409 6.4874 17.978 14.6332 3.92 6.989 8.43 14.919 8.43 14.919 1.389-1.126 12.757-10.47 15.467-14.071 2.865-3.808 1.842-5.611 1.849-8.2391.008-2.6284.933-4.6625.404-8.7718-.253-1.9606 1.865-1.5387 2.712-.3936 1.709 2.3089 1.511 6.5021 2.632 6.3043 1.232-.851 2.258-1.9684 3-3.2695 2.082-3.2016 2.508-6.1323 4.214-9.5211.656-1.3021 1.536-2.7414 3.193-2.6928.169.0143.336.0395.502.0753.117.0308.222.0955.302.1859s.131.2025.148.3221c.045.4454.043.8944-.009 1.3392-.037.3173-.195 1.2401-.195 1.2401s1.489.2358 1.719.8721c.301.9883.278 2.0468-.066 3.0211.622.4393 1.588 1.5519.598 3.9027.567.2408 1.762 1.8417.775 5.0247-.939 2.9335-2.207 5.7504-3.782 8.3984-2.441 3.896-4.773 5.33-8.061 9.406-3.287 4.075-9.38 13.02-14.857 19.265-6.354 7.245-8.921 9.133-15.082 5.74-3.192-1.757-20.321-25.187-20.321-25.187z" fill="#fff" stroke="#000" stroke-miterlimit="10" stroke-width=".25"/><path d="m123.018 90.3075c7.904 1.6236 10.83 4.1521 13.491 7.854 2.66 3.7015 12.69 21.7545 12.69 21.7545l11.712-10.184s-.28 3.305 3.001 7.119c3.281 3.813 5.397 3.065 5.397 3.065s-7.614 11.656-12.669 16.622-8.322 4.662-12.63 1.799c-4.307-2.863-20.535-24.946-20.535-24.946z" fill="#e55b2d"/><path d="m136.482 148.151c-.564-4.528-.991-7.957-1.135-9.861-.036-4.691.097-11.998.097-11.998 8.339-7.647 4.43-15.477 1.321-20.199-3.907-5.887-8.732-11.1104-14.293-15.4696-4.941-.9898-9.949-1.609-14.982-1.8525-3.782-.1507-7.5674.2124-11.2519 1.0795-3.1815.5951-11.0621 2.552-11.0621 2.552-2.3423 1.288-4.3762 3.8808-4.299 11.0736-.0953 5.048.8728 10.06 2.8414 14.709 1.8578 5.093 3.317 10.322 4.3642 15.641 1.2994 5.191.4421 9.012-1.8805 13.877-1.1204 2.347-.1026 4.765 6.5669 7.996 4.4735 2.167 21.135 5.202 34.958.961 5.424-1.665 9.059-5.996 8.755-8.509z" fill="#fff" stroke="#000" stroke-miterlimit="10" stroke-width=".25"/><path d="m90.9437 66.2565c2.8889 6.4725 6.1632 8.8312 8.8588 14.7009 6.8405-.3023 15.2735-11.6555 23.1645-16.4812 4.606-2.8165 7.607-6.3506 6.295-12.1411-2.151-9.502-9.659-14.5131-22.551-11.5464-5.22 1.2014-10.9993 5.6162-12.0099 11.7911-6.3644 2.3655-5.6931 9.341-3.7574 13.6767z" fill="#000"/><path d="m98.8694 88.6186s8.6926 16.9494 11.7926 25.2024c3.101 8.254 2.255 15.082 2.348 30.396.071 11.793 0 29.595 0 29.595s-25.6859.343-33.2057-9.118c1.4184-5.963 6.4296-17.869 7.6489-21.692 1.2194-3.824 1.0347-9.086-1.9341-17.536-2.9689-8.45-4.9627-14.873-5.2866-21.252-.3238-6.3801 2.321-10.5718 3.8682-11.782z" fill="#e55b2d"/><path d="m139.822 164.606c-.664-6.85-2.985-33.914-2.34-37.016.644-3.101 8.041-10.143 1.289-20.225-4.412-6.407-9.717-12.1505-15.753-17.0574l-11.67-1.554s19.816 16.3974 20.847 31.4814c1.032 15.085 1.935 49.133 1.935 49.133" fill="#e55b2d"/><path d="m122.367 51.0788c1.37.6456 3.579 4.0123 4.13 17.1108.446 10.6039-3.064 14.413-5.029 15.3474-1.64.7802-8.102.1938-10.261-.8742l1.553 6.7722c4.913 2.9195 10.873 11.201 4.125 12.325s-15.51-7.5953-17.9246-12.1905l.7614-12.0412s-2.4542 2.0862-5.7311-.497c-2.7053-2.132-3.2314-6.4887-1.3961-8.7446.4813-.5409 1.0865-.9571 1.7638-1.2129.6773-.2557 1.4065-.3434 2.1252-.2555.7186.0878 1.4052.3487 2.001.7601.5957.4114 1.0828.9611 1.4195 1.602 0 0 3.9829 2.7727 3.6259-3.9087-.401-7.5305 2.401-15.1309 7.339-13.6022 8.851 2.7393 8.69-1.9912 11.498-.5907z" fill="#fff" stroke="#000" stroke-miterlimit="10" stroke-width=".25"/><path d="m139.822 164.605c-.664-6.849-2.985-33.913-2.34-37.015.644-3.101 8.041-10.143 1.289-20.225-1.847-2.735-3.878-5.34-6.081-7.797" stroke="#000" stroke-miterlimit="10" stroke-width=".25"/><path d="m84.8254 92.2452c-7.672 1.3475-10.7174 6.0293-14.0902 15.9928-4.6082 13.612-8.6539 27.022-9.5255 33.837l18.0986-4.95 9.6789-19.483s3.6333-15.651-4.1618-25.3968z" fill="#e55b2d"/><path d="m61.2097 142.076 18.0986-4.95 9.6789-19.484c1.0983-5.382 1.1066-10.929.0244-16.314" stroke="#000" stroke-miterlimit="10" stroke-width=".25"/><path d="m121.516 168.862-39.1542-6.019-5.9561-50.196 39.1553 6.019z" fill="#000"/><path d="m120.069 166.662-37.5152-5.777-5.5531-46.815 37.5153 5.777z" fill="#fafafa"/><path d="m115.25 152.482-3.75-31.609-35.0955-8.239 5.9579 50.22 37.1046 8.712c.156.049.322.055.482.019.159-.036.306-.113.427-.223.12-.111.209-.251.258-.407s.057-.322.021-.482l-1.899-16.011c-.05-.343-.199-.663-.428-.922-.228-.26-.528-.447-.861-.539z" fill="#000"/><path d="m61.4649 142.076c-.0243 5.146.7635 6.004 6.4095 8.896 5.646 2.893 19.8905 7.346 31.1766 8.435 7.354.71 11.139.364 13.994-.766 2.526-.984 4.636-2.805 5.978-5.16 1.341-2.355 1.832-5.1 1.389-7.774 1.224-3.552-.637-4.033-2.167-4.418l.276 2.325c-1.893 1.269-4.07 2.055-6.338 2.286-3.039.042-.217-3.518.328-5.665.544-2.147.433-3.386-1.326-4.401-.988-.009-1.312 1.354-4.38 4.406-2.329 2.317-4.145 6.547-7.7537 6.057-2.8329-.384-19.6249-8.174-19.6249-8.174l-.761-6.433z" fill="#fff" stroke="#000" stroke-miterlimit="10" stroke-width=".25"/><path d="m61.2097 142.076c-.2179 3.207.3487 4.889 1.8303 6.271 1.4817 1.381 7.5829 4.257 11.3306 5.565 3.7477 1.307 13.5802 3.966 15.4623 4.314-1.9527-3.05-1.4733-9.065.1826-11.766 1.6559-2.702 3.8395-2.044 3.8395-2.044l-14.4514-6.502-1.044-8.799z" fill="#e55b2d"/></svg>