<svg enable-background="new 0 0 425.2 226.8" viewBox="0 0 425.2 226.8" xmlns="http://www.w3.org/2000/svg"><g fill="#fff"><path d="m351.4 100c-.2-.7-.5-1.3-.9-1.8-.4-.6-.9-1-1.5-1.3-.7-.3-1.4-.5-2.1-.5-1.4-.1-2.8.6-3.6 1.8-.4.6-.7 1.2-.8 1.9-.2.7-.3 1.4-.2 2.1 0 .7.1 1.5.3 2.2s.5 1.3.9 1.9c.4.5.9 1 1.5 1.3.7.3 1.4.5 2.2.5s1.5-.1 2.2-.5c.6-.3 1.1-.8 1.4-1.3.4-.6.6-1.2.8-1.9s.2-1.5.2-2.2c-.2-.9-.3-1.6-.4-2.2m-9.2-5.5v2.1h.1c.4-.8 1.1-1.5 2-1.9s1.9-.6 3-.6 2.1.2 3.1.7c.9.4 1.6 1 2.2 1.8s1 1.6 1.3 2.6.5 2 .5 3.1c0 1-.1 2.1-.4 3.1-.3.9-.7 1.8-1.3 2.6-.6.7-1.4 1.3-2.2 1.7-1 .4-2 .7-3.1.6-.4 0-.9 0-1.3-.1-.5-.1-.9-.2-1.4-.4s-.9-.4-1.3-.7-.7-.7-1-1.2h-.1v7.9h-2.5v-21.3zm-8.8 15.4v-2.4h-.1c-.5.9-1.2 1.6-2.1 2.1s-1.9.7-3 .7c-.9 0-1.7-.1-2.5-.4-.6-.2-1.2-.6-1.6-1.2-.4-.5-.7-1.1-.9-1.8s-.3-1.5-.2-2.3v-10.1h2.5v10.4c-.1 1.6 1.1 3 2.6 3.1h.5c.7 0 1.4-.1 2-.3.5-.2 1-.6 1.4-1s.7-1 .9-1.5c.2-.6.3-1.3.3-1.9v-8.7h2.5v15.4zm-27.2-10.9c.3-.9.8-1.8 1.4-2.6.7-.7 1.5-1.3 2.4-1.7 1-.4 2.1-.7 3.2-.6 1.1 0 2.2.2 3.2.6.9.4 1.7 1 2.3 1.7s1.1 1.6 1.4 2.5c.3 1 .5 2.1.5 3.2s-.2 2.1-.5 3.2c-.3.9-.8 1.8-1.4 2.6-.6.7-1.4 1.3-2.3 1.7-1 .4-2.1.6-3.2.6s-2.2-.2-3.2-.6c-.9-.4-1.7-1-2.4-1.7-.6-.7-1.1-1.6-1.4-2.6s-.5-2.1-.5-3.2c0-1 .2-2.1.5-3.1m2.6 5.7c.2.7.5 1.3 1 1.8.4.5.9.9 1.5 1.1.6.3 1.2.4 1.9.4.6 0 1.3-.1 1.9-.4s1.1-.6 1.5-1.1.8-1.2 1-1.8c.5-1.6.5-3.4 0-5-.2-.7-.6-1.3-1-1.8-.9-1-2.1-1.5-3.4-1.5-.6 0-1.3.1-1.9.4s-1.1.6-1.5 1.1c-.5.5-.8 1.2-1 1.8-.5 1.6-.5 3.3 0 5m-9.3-10.2v3.2h.1c.5-1.1 1.3-2 2.3-2.7 1-.6 2.2-.9 3.4-.8v2.6c-.9 0-1.8.1-2.6.4-.7.3-1.2.7-1.7 1.2-.5.6-.8 1.3-1 2-.2.9-.3 1.8-.3 2.6v6.8h-2.5v-15.3zm-12.2 15.1c-1.2.5-2.5.7-3.7.7-1.5 0-2.9-.3-4.3-.9-1.2-.6-2.3-1.4-3.2-2.4s-1.6-2.2-2-3.4c-.5-1.3-.7-2.6-.7-4 0-1.5.2-3 .6-4.4.4-1.3 1.1-2.6 1.9-3.7s1.9-1.9 3.1-2.6c1.4-.7 2.9-1 4.4-.9 1.1 0 2.2.1 3.3.4 1 .2 1.9.7 2.8 1.3.8.6 1.5 1.3 2 2.2.6 1 1 2.1 1.1 3.2h-2.8c-.1-.7-.4-1.5-.8-2.1s-.8-1.1-1.4-1.4c-.6-.4-1.2-.7-1.9-.8-.7-.2-1.5-.3-2.2-.3-2.2-.1-4.3 1-5.5 2.8-.6.9-1 1.9-1.3 2.9-.3 1.1-.4 2.2-.4 3.3s.2 2.2.5 3.2.8 1.9 1.4 2.7 1.4 1.4 2.3 1.9c1 .5 2.1.7 3.1.7s2-.2 3-.5c.8-.3 1.6-.8 2.2-1.5.6-.6 1-1.4 1.3-2.2.3-.9.4-1.8.4-2.7h-6.8v-2.4h9.3v11.2h-1.8l-.8-2.7c-.8 1.1-1.9 1.9-3.1 2.4"/><path d="m85 88.8-6 6.8v-6.8h-6.8v20.9h6.8v-6.6l1.7-1.7 4.9 8.3h8.2l-8.4-13 7.6-7.9z"/><path d="m101.6 106.7c-1.2 0-1.9-.5-1.9-1.3 0-2 2.6-1.5 4.6-2.5.1 2.2-.6 3.8-2.7 3.8m9.5 3v-.3c-.6-.5-1-1.2-.8-2v-7.1c0-3.6-.4-6.3-7.6-6.3-6 0-8.2 1.9-8.2 5.1h5.8c.1-1.3 1.3-1.5 2.1-1.5.6 0 2 .2 2 1.2 0 2.8-10.8-.3-10.8 6.6 0 3.2 2.5 4.6 5.4 4.6 2.1.1 4.2-.6 5.7-2.1l.3 1.6z"/><path d="m126.5 94.5h-5.1l-2.3 9.4h-.1l-2.3-9.4h-5.8l5 15.2h5.8l2.1-8.9h.1l2.3 8.9h5.9l4.8-15.2h-5.7l-2.3 9.4h-.1z"/><path d="m144.3 106.7c-1.2 0-1.9-.5-1.9-1.3 0-2 2.6-1.5 4.6-2.5.1 2.2-.6 3.8-2.7 3.8m9.5 3v-.3c-.6-.5-1-1.2-.8-2v-7.1c0-3.6-.4-6.3-7.6-6.3-6 0-8.2 1.9-8.2 5.1h5.8c.1-1.3 1.3-1.5 2.1-1.5.6 0 2 .2 2 1.2 0 2.8-10.8-.3-10.8 6.6 0 3.2 2.5 4.6 5.4 4.6 2.1.1 4.2-.6 5.7-2.1l.3 1.6z"/><path d="m155.2 109.7h6v-7.7c0-1.9.5-3.2 2.3-3.2 1.7 0 2.1 1.3 2.1 2.9v8.1h6v-9.1c0-4.2-1.9-6.6-5.8-6.6-2.1 0-4 1.1-5.1 2.8v-2.4h-5.5z"/><path d="m198.5 109.7v-4.9h-9.4v-16h-6.8v20.9z"/><path d="m207.6 106.7c-1.2 0-1.9-.5-1.9-1.3 0-2 2.6-1.5 4.6-2.5.1 2.2-.6 3.8-2.7 3.8m9.5 3v-.3c-.6-.5-1-1.2-.8-2v-7.1c0-3.6-.4-6.3-7.6-6.3-6 0-8.2 1.9-8.2 5.1h5.8c.1-1.3 1.3-1.5 2.1-1.5.6 0 2 .2 2 1.2 0 2.8-10.8-.3-10.8 6.6 0 3.2 2.5 4.6 5.4 4.6 2.1.1 4.2-.6 5.7-2.1l.3 1.6z"/><path d="m218.1 109.7h6v-7.5c0-1.8.4-3.4 2.1-3.4 1.6 0 2 .9 2 3.2v7.8h6v-7.5c0-1.8.3-3.4 2.1-3.4 1.6 0 2 .9 2 3.2v7.8h6v-9c0-4.2-1.4-6.7-5.8-6.7-2.1 0-4.1 1-5.2 2.8-.7-1.6-2.2-2.8-4.9-2.8-1.9.1-3.7 1.1-4.8 2.7v-2.3h-5.5z"/><path d="m253.5 106.7c-1.2 0-1.9-.5-1.9-1.3 0-2 2.6-1.5 4.6-2.5.1 2.1-.6 3.8-2.7 3.8m9.4 3v-.3c-.6-.5-.9-1.2-.8-2v-7.1c0-3.6-.4-6.3-7.6-6.3-6 0-8.2 1.9-8.2 5.1h5.8c.1-1.3 1.3-1.5 2.1-1.5.6 0 2 .1 2 1.2 0 2.8-10.8-.3-10.8 6.6 0 3.2 2.5 4.6 5.4 4.6 2.1.1 4.2-.6 5.7-2.1l.3 1.6z"/><path d="m78.5 117.8c.6 0 1.2.1 1.8.2.5.1 1 .3 1.5.6.4.3.8.7 1 1.1.3.5.4 1.1.4 1.7 0 .4-.1.8-.2 1.1-.1.4-.3.7-.5 1s-.5.5-.8.8c-.3.2-.6.4-1 .4.9.1 1.7.5 2.3 1.2s.9 1.5.8 2.4c0 .3 0 .5-.1.8 0 .3-.1.6-.2.9s-.3.6-.5.9c-.3.3-.6.6-.9.8-.4.2-.9.4-1.4.6-.7.2-1.3.2-2 .2h-6.2v-14.6h6zm0 6.4c.5 0 1-.1 1.5-.2.4-.1.7-.3 1-.5s.5-.5.6-.8.2-.7.2-1c0-1.8-1.1-2.7-3.3-2.7h-4.8v5.2zm0 7c.5 0 1 0 1.5-.1.4-.1.9-.2 1.2-.5.4-.2.6-.6.8-.9.2-.5.3-1 .3-1.5.1-.8-.3-1.6-1-2.1-.9-.5-1.9-.8-2.9-.7h-4.8v5.8z"/><path d="m88.7 121.8v2.5c.3-.8.8-1.5 1.5-2s1.6-.7 2.5-.6v1.3c-.5 0-1.1 0-1.6.2s-.9.4-1.2.8c-.4.3-.6.8-.8 1.2-.2.5-.3 1-.3 1.5v5.6h-1.3v-10.6h1.2z"/><path d="m97 117.8v2.1h-1.3v-2.1zm0 4v10.6h-1.3v-10.5z"/><path d="m102.4 121.8v1.8c.3-.6.7-1.2 1.3-1.6s1.3-.6 2.1-.6c.6 0 1.3.1 1.8.3.9.3 1.6 1.1 1.8 2.1.1.6.2 1.1.2 1.7v6.8h-1.3v-6.6c0-.4 0-.8-.1-1.3-.1-.4-.2-.7-.4-1s-.5-.5-.8-.7c-.4-.2-.9-.3-1.3-.2-.5 0-.9.1-1.4.3-.4.2-.7.4-1 .8-.3.3-.5.7-.7 1.2s-.2.9-.3 1.4v6.2h-1.3v-10.6z"/><path d="m122.6 133.7c-.1.6-.4 1.1-.8 1.6-.4.4-.9.8-1.4 1-.7.3-1.4.4-2.2.4-.5 0-1-.1-1.6-.2-.5-.1-.9-.3-1.4-.6-.4-.3-.7-.6-1-1s-.4-.9-.5-1.4h1.3c0 .4.2.7.4 1s.4.5.7.6c.3.2.6.3.9.4s.7.1 1 .1c1 .1 1.9-.3 2.6-1 .6-.9.9-1.9.8-2.9v-1.4c-.3.6-.7 1.2-1.3 1.6s-1.3.6-2 .6-1.5-.1-2.2-.4c-.6-.3-1.1-.7-1.5-1.1-.4-.5-.7-1.1-.8-1.7-.2-.7-.3-1.4-.3-2.1s.1-1.4.3-2 .5-1.2.9-1.7.9-.9 1.4-1.2c.6-.3 1.3-.4 2-.4.4 0 .8 0 1.1.2.3.1.7.3.9.5.3.2.5.4.8.7.2.2.4.5.5.8v-1.8h1.3v9.7c.3.3.2 1 .1 1.7zm-3-2.9c.4-.2.8-.6 1.1-.9.3-.4.5-.9.7-1.4.1-.5.2-1 .2-1.6 0-.5-.1-1-.2-1.6-.1-.5-.3-1-.6-1.4s-.6-.8-1.1-1c-.5-.3-1-.4-1.6-.4s-1.1.1-1.6.4c-.4.2-.8.6-1.1 1s-.5.9-.6 1.4-.2 1.1-.2 1.6.1 1 .2 1.6c.1.5.3.9.6 1.4.3.4.7.7 1.1.9.5.2 1 .4 1.6.4.5 0 1.1-.1 1.5-.4z"/><path d="m134.7 121.8 3.3 9.3 3.3-9.3h1.3l-4 10.6h-1.4l-4.1-10.6z"/><path d="m145.9 123.5c.2-.4.5-.8.9-1.1s.8-.5 1.3-.6 1.1-.2 1.7-.2c.5 0 .9 0 1.4.1.4.1.9.3 1.2.5.4.3.7.6.9 1 .3.5.4 1.1.4 1.7v5.6c-.1.4.2.7.6.8h.2c.1 0 .3 0 .4-.1v1.1l-.4.1h-.5c-.3 0-.5 0-.8-.1-.2-.1-.3-.2-.5-.4-.1-.2-.2-.4-.2-.6s-.1-.5-.1-.8c-.2.3-.4.6-.7.9-.2.3-.5.5-.8.7s-.6.3-1 .4-.9.2-1.3.1c-.5 0-.9-.1-1.4-.2-.4-.1-.8-.3-1.1-.6s-.6-.6-.8-1-.3-.9-.3-1.4c0-.6.1-1.2.5-1.7.3-.4.8-.8 1.3-1 .6-.2 1.2-.4 1.8-.5l2.1-.3c.3 0 .5-.1.7-.1s.4-.1.5-.2.3-.3.3-.4c.1-.2.1-.5.1-.7 0-.4-.1-.7-.2-1.1-.1-.3-.3-.5-.6-.7s-.6-.3-.9-.3c-.4-.1-.7-.1-1.1-.1-.7 0-1.4.2-2 .6-.6.5-.9 1.2-.8 1.9h-1.3c.2-.4.3-.9.5-1.3zm6.5 3.1c-.1.2-.3.3-.5.3-.2.1-.4.1-.6.1-.5.1-1.1.2-1.7.3-.5.1-1.1.2-1.6.3-.4.1-.8.3-1.2.6-.3.3-.5.8-.5 1.2 0 .3.1.6.2.9.1.2.3.5.5.7s.5.3.8.4.6.1.9.1c.5 0 1-.1 1.4-.2s.8-.4 1.2-.6c.3-.3.6-.6.8-1s.3-.9.3-1.4z"/><path d="m159.3 117.8v14.6h-1.3v-14.6z"/><path d="m170.9 132.4v-1.9c-.3.7-.8 1.3-1.5 1.6-.7.4-1.4.6-2.2.6-.6 0-1.2-.1-1.7-.3-.4-.2-.8-.4-1.1-.8s-.5-.8-.6-1.2c-.1-.5-.2-1.1-.2-1.7v-6.9h1.3v6.9c0 .8.2 1.5.7 2.2 1 .8 2.4 1 3.6.4.4-.2.7-.6 1-.9.3-.4.5-.9.6-1.4s.2-1 .2-1.6v-5.6h1.3v10.6z"/><path d="m177.2 128.9c.1.5.3.9.6 1.4.3.4.7.7 1.1 1 .5.3 1 .4 1.6.4.8 0 1.6-.2 2.2-.7s.9-1.2 1.1-2h1.3c-.2 1.1-.7 2-1.5 2.8-.9.7-2 1.1-3.1 1-.7 0-1.5-.1-2.2-.4-.6-.3-1.1-.7-1.5-1.2s-.7-1.1-.9-1.8-.3-1.4-.3-2.1.1-1.3.3-2c.2-.6.5-1.3.9-1.8s.9-1 1.5-1.3c.7-.3 1.4-.5 2.2-.5s1.5.2 2.2.5c.6.3 1.1.8 1.5 1.3.4.6.7 1.2.8 1.9.2.7.2 1.4.2 2.2h-8.2c0 .4.1.9.2 1.3zm6.4-3.9c-.2-.4-.4-.8-.7-1.2-.3-.3-.6-.6-1-.8s-.9-.3-1.4-.3-1 .1-1.4.3-.7.5-1 .8c-.3.4-.5.8-.7 1.2-.2.5-.3.9-.3 1.4h6.9c-.1-.5-.2-1-.4-1.4z"/><path d="m198 122.9v9.5h-1.3v-9.5h-1.8v-1.1h1.8v-1c0-.4 0-.8.1-1.2 0-.4.2-.7.4-1s.5-.5.8-.6c.4-.2.8-.2 1.3-.2h.5l.6.1v1.2l-.5-.1c-.1 0-.3 0-.4 0-.3 0-.6 0-.8.2-.2.1-.3.3-.4.4-.1.2-.1.4-.1.6v.8.9h2.1v1.1z"/><path d="m209.6 122c.6.3 1.1.7 1.6 1.2.4.5.8 1.1 1 1.8.4 1.4.4 2.9 0 4.3-.2.7-.6 1.3-1 1.8s-1 .9-1.6 1.2c-1.4.6-2.9.6-4.3 0-.6-.3-1.1-.7-1.6-1.2-.4-.5-.8-1.1-1-1.8-.4-1.4-.4-2.9 0-4.3.2-.6.6-1.3 1-1.8s1-.9 1.6-1.2c1.4-.6 3-.6 4.3 0zm-3.7 1c-.5.2-.8.6-1.1 1s-.6.9-.7 1.4c-.3 1.1-.3 2.2 0 3.3.1.5.4 1 .7 1.4s.7.8 1.1 1c.5.3 1.1.4 1.6.4.6 0 1.1-.1 1.6-.4.5-.2.9-.6 1.2-1s.6-.9.7-1.4c.3-1.1.3-2.2 0-3.3-.1-.5-.4-1-.7-1.4s-.7-.8-1.2-1c-.5-.3-1.1-.4-1.6-.4-.6 0-1.1.1-1.6.4z"/><path d="m217.3 121.8v2.5c.3-.8.8-1.5 1.5-2s1.6-.7 2.5-.6v1.3c-.5 0-1.1 0-1.6.2s-.9.4-1.2.8c-.4.3-.6.8-.8 1.2-.2.5-.3 1-.3 1.5v5.6h-1.3v-10.6h1.2z"/><path d="m232 123.5c.2-.4.5-.8.9-1.1s.8-.5 1.3-.6 1.1-.2 1.7-.2c.5 0 .9 0 1.4.1.4.1.9.3 1.2.5.4.3.7.6.9 1 .3.5.4 1.1.4 1.7v5.6c-.1.4.2.7.6.8h.2c.1 0 .3 0 .4-.1v1.1l-.4.1h-.4c-.3 0-.5 0-.8-.1-.2-.1-.3-.2-.5-.4-.1-.2-.2-.4-.2-.6s0-.5 0-.8c-.2.3-.5.6-.7.9s-.5.5-.8.7-.6.3-1 .4-.9.1-1.3.1c-.5 0-.9-.1-1.4-.2-.4-.1-.8-.3-1.1-.6s-.6-.6-.8-1-.3-.9-.3-1.4c0-.6.1-1.2.5-1.7.3-.4.8-.8 1.3-1 .6-.2 1.2-.4 1.8-.5l2.1-.3c.3 0 .5-.1.7-.1s.4-.1.5-.2.2-.3.3-.4c.1-.2.1-.5.1-.7 0-.4-.1-.7-.2-1.1-.1-.3-.3-.5-.6-.7s-.6-.3-.9-.3c-.4-.1-.7-.1-1.1-.1-.7 0-1.4.2-2 .6-.6.5-.9 1.2-.8 1.9h-1.3c0-.4.1-.9.3-1.3zm6.5 3.1c-.1.2-.3.3-.5.3-.2.1-.4.1-.6.1-.6.1-1.1.2-1.7.3-.5.1-1.1.2-1.6.3-.4.1-.8.3-1.2.6-.3.3-.5.8-.5 1.2 0 .3.1.6.2.9s.3.5.5.7.5.3.8.4.6.1.9.1c.5 0 1-.1 1.4-.2s.8-.4 1.2-.6c.3-.3.6-.6.8-1s.3-.9.3-1.4z"/><path d="m252.8 117.8v6.1c.1-.4.3-.7.6-1 .2-.3.5-.5.9-.7.3-.2.7-.3 1.1-.4s.8-.1 1.1-.1c.7 0 1.4.1 2.1.4.6.3 1.1.7 1.5 1.2s.7 1.1.9 1.8c.4 1.4.4 2.9 0 4.3-.2.6-.5 1.3-.9 1.8s-.9.9-1.5 1.2c-.7.3-1.4.5-2.1.4-.8 0-1.6-.2-2.3-.6s-1.2-1-1.5-1.7v2h-1.2v-14.6h1.3zm7 7.7c-.1-.5-.3-1-.6-1.4s-.6-.7-1.1-1-1-.4-1.6-.4-1.2.1-1.7.4c-.5.2-.8.6-1.1 1s-.5.9-.6 1.4c-.3 1.1-.3 2.2 0 3.3.1.5.3 1 .6 1.4s.7.8 1.1 1c.5.3 1.1.4 1.7.4s1.1-.1 1.6-.4c.4-.3.8-.6 1.1-1s.5-.9.6-1.4c.3-1.1.3-2.2 0-3.3z"/><path d="m266 128.9c.1.5.3.9.6 1.4.3.4.7.7 1.1 1 .5.3 1 .4 1.6.4.8 0 1.6-.2 2.2-.7s.9-1.2 1.1-2h1.3c-.2 1.1-.7 2-1.5 2.8-.9.7-2 1.1-3.1 1-.7 0-1.5-.1-2.2-.4-.6-.3-1.1-.7-1.5-1.2s-.7-1.1-.9-1.8-.3-1.4-.3-2.1.1-1.3.3-2c.2-.6.5-1.3.9-1.8s.9-1 1.5-1.3c.7-.3 1.4-.5 2.2-.5 1.5-.1 2.8.6 3.6 1.8.4.6.7 1.2.8 1.9.2.7.2 1.4.2 2.2h-8.1c0 .4.1.9.2 1.3zm6.4-3.9c-.2-.4-.4-.8-.7-1.2-.3-.3-.6-.6-1-.8-.9-.4-1.9-.4-2.8 0-.4.2-.8.5-1 .8-.3.4-.5.8-.7 1.2-.2.5-.3.9-.3 1.4h6.8c-.1-.5-.2-1-.3-1.4z"/><path d="m281.6 121.8v1.1h-2.1v7.1c0 .3 0 .7.2 1 .1.2.4.4.9.4.4 0 .7 0 1.1-.1v1.1h-.7-.6c-.6.1-1.3-.1-1.8-.5-.4-.5-.6-1.2-.5-1.9v-7.2h-1.9v-1.1h1.9v-3.2h1.3v3.2z"/><path d="m289.4 121.8v1.1h-2.2v7.1c0 .3 0 .7.2 1 .1.2.4.4.9.4.4 0 .7 0 1.1-.1v1.1h-.6-.6c-.6.1-1.3-.1-1.8-.5-.4-.5-.6-1.2-.5-1.9v-7.2h-1.8v-1.1h1.8v-3.2h1.3v3.2z"/><path d="m293.9 128.9c.1.5.3.9.6 1.4.3.4.7.7 1.1 1 .5.3 1 .4 1.6.4.8 0 1.6-.2 2.2-.7s.9-1.2 1.1-2h1.3c-.2 1.1-.7 2-1.5 2.8-.9.7-2 1.1-3.1 1-.7 0-1.5-.1-2.2-.4-.6-.3-1.1-.7-1.5-1.2s-.7-1.1-.9-1.8-.3-1.4-.3-2.1.1-1.3.3-2c.2-.6.5-1.3.9-1.8.4-.6.9-1 1.5-1.3.7-.3 1.4-.5 2.2-.5 1.5-.1 2.8.6 3.6 1.8.4.6.7 1.2.8 1.9.2.7.2 1.4.2 2.2h-8.1c0 .4 0 .8.2 1.3zm6.4-3.9c-.2-.4-.4-.8-.7-1.2-.3-.3-.6-.6-1-.8-.9-.4-1.9-.4-2.8 0-.4.2-.8.5-1 .8-.3.4-.6.8-.8 1.2-.2.5-.3.9-.3 1.4h6.8c0-.5-.1-.9-.2-1.4z"/><path d="m306.5 121.8v2.5c.6-1.7 2.2-2.8 4-2.6v1.3c-.5 0-1.1 0-1.6.2s-.9.4-1.2.8c-.4.3-.6.8-.8 1.2-.2.5-.3 1-.3 1.5v5.6h-1.3v-10.6h1.2z"/><path d="m322.2 117.8v14.6h-1.3v-14.6z"/><path d="m327.7 117.8v2.1h-1.3v-2.1zm0 4v10.6h-1.3v-10.5z"/><path d="m333.9 122.9v9.5h-1.3v-9.5h-1.8v-1.1h1.8v-1c0-.4 0-.8.1-1.2s.2-.7.4-1 .5-.5.8-.6c.4-.2.8-.2 1.3-.2h.5l.5.1v1.2l-.5-.1c-.1 0-.3 0-.5 0-.3 0-.6 0-.8.2-.2.1-.3.3-.4.4-.1.2-.1.4-.2.6v.8.9h2.1v1.1z"/><path d="m339.9 128.9c.1.5.3.9.6 1.4.3.4.7.7 1.1 1 .5.3 1 .4 1.6.4.8 0 1.6-.2 2.2-.7s.9-1.2 1.1-2h1.3c-.2 1.1-.7 2-1.5 2.8-.9.7-2 1.1-3.1 1-.7 0-1.5-.1-2.2-.4-.6-.3-1.1-.7-1.5-1.2s-.7-1.1-.9-1.8-.3-1.4-.3-2.1.1-1.3.3-2c.2-.6.5-1.3.9-1.8.4-.6.9-1 1.5-1.3.7-.3 1.4-.5 2.2-.5s1.5.2 2.2.5c.6.3 1.1.8 1.5 1.3.4.6.7 1.2.8 1.9.2.7.2 1.4.2 2.2h-8.1c-.1.4 0 .8.1 1.3zm6.4-3.9c-.2-.4-.4-.8-.7-1.2-.3-.3-.6-.6-1-.8s-.9-.3-1.4-.3-1 .1-1.4.3-.7.5-1 .8c-.3.4-.6.8-.8 1.2-.2.5-.3.9-.3 1.4h6.9c-.1-.5-.2-.9-.3-1.4z"/></g></svg>