<svg enable-background="new 0 0 425.2 226.8" viewBox="0 0 425.2 226.8" xmlns="http://www.w3.org/2000/svg"><g fill="#fff"><path d="m351.4 111.4c-.2-.7-.5-1.3-.9-1.8s-.9-1-1.5-1.3c-.7-.3-1.4-.5-2.1-.5-1.4-.1-2.8.6-3.6 1.8-.4.6-.7 1.2-.8 1.9-.2.7-.3 1.4-.2 2.1 0 .7.1 1.5.3 2.2s.5 1.3.9 1.9c.4.5.9 1 1.5 1.3.7.3 1.5.5 2.2.5.8 0 1.5-.1 2.2-.5.6-.3 1.1-.8 1.4-1.3.4-.6.6-1.2.8-1.9s.2-1.5.2-2.2c-.1-.8-.2-1.5-.4-2.2m-9.1-5.4v2h.1c.4-.8 1.1-1.5 2-1.9s1.9-.6 3-.6 2.1.2 3.1.7c.9.4 1.6 1 2.2 1.8s1 1.6 1.3 2.6.5 2 .5 3.1c0 1-.1 2.1-.4 3.1-.3.9-.7 1.8-1.3 2.6-.6.7-1.4 1.3-2.2 1.7-1 .4-2 .7-3.1.6-.4 0-.9 0-1.3-.1-.5-.1-.9-.2-1.4-.4s-.9-.4-1.3-.7-.7-.7-1-1.2h-.1v7.9h-2.5v-21.2zm-8.9 15.4v-2.5h-.1c-.5.9-1.2 1.6-2.1 2.1s-1.9.7-3 .7c-.9 0-1.7-.1-2.5-.4-.6-.2-1.2-.6-1.6-1.1s-.7-1.1-.9-1.8-.3-1.5-.3-2.3v-10.1h2.5v10.4c-.1 1.6 1.1 3 2.7 3.1h.5c.7 0 1.4-.1 2-.3.5-.2 1-.6 1.4-1s.7-1 .9-1.5c.2-.6.3-1.3.3-1.9v-8.8h2.5v15.4zm-27.2-10.9c.3-.9.8-1.8 1.4-2.6.6-.7 1.5-1.3 2.4-1.7 1-.4 2.1-.7 3.2-.6 1.1 0 2.2.2 3.2.6.9.4 1.7 1 2.3 1.7s1.1 1.6 1.4 2.6.5 2.1.5 3.2-.2 2.1-.5 3.2c-.3.9-.8 1.8-1.4 2.6-.6.7-1.4 1.3-2.3 1.7-1 .4-2.1.6-3.2.6s-2.2-.2-3.2-.6c-.9-.4-1.7-1-2.4-1.7-.6-.7-1.1-1.6-1.4-2.6s-.5-2.1-.5-3.2.2-2.2.5-3.2m2.6 5.7c.2.7.5 1.3 1 1.8.4.5.9.9 1.5 1.1.6.3 1.2.4 1.9.4.6 0 1.3-.1 1.9-.4s1.1-.6 1.5-1.1.8-1.2 1-1.8c.5-1.6.5-3.4 0-5-.2-.7-.6-1.3-1-1.8-.9-1-2.1-1.5-3.4-1.5-.6 0-1.3.1-1.9.4s-1.1.6-1.5 1.1c-.5.5-.8 1.2-1 1.8-.5 1.6-.5 3.3 0 5m-9.3-10.2v3.2h.1c.5-1.1 1.3-2.1 2.3-2.8 1-.6 2.2-.9 3.4-.8v2.7c-.9 0-1.8.1-2.6.4-.7.2-1.2.7-1.7 1.2-.5.6-.8 1.2-1 1.9-.2.9-.3 1.8-.3 2.6v6.8h-2.5v-15.4zm-12.2 15.1c-1.2.5-2.5.7-3.7.7-1.5 0-2.9-.3-4.3-.9-1.2-.6-2.3-1.4-3.2-2.4s-1.6-2.2-2-3.4c-.5-1.3-.7-2.6-.7-4 0-1.5.2-3 .6-4.4s1.1-2.6 1.9-3.8c.9-1.1 1.9-1.9 3.2-2.5 1.4-.7 2.9-1 4.4-.9 1.1 0 2.2.1 3.3.4 1 .2 1.9.7 2.8 1.3.8.6 1.5 1.3 2 2.2.6 1 1 2.1 1.1 3.2h-2.8c-.1-.7-.4-1.5-.8-2.1s-.8-1.1-1.4-1.4c-.6-.4-1.2-.7-1.9-.8-.7-.2-1.5-.3-2.2-.3-1.2 0-2.3.2-3.3.8-.9.5-1.7 1.2-2.3 2-.6.9-1 1.9-1.3 2.9-.3 1.1-.4 2.2-.4 3.3s.2 2.2.5 3.2.8 1.9 1.4 2.7 1.4 1.4 2.3 1.9c1 .5 2.1.7 3.1.7s2-.2 3-.5c.8-.3 1.6-.8 2.2-1.5.6-.6 1-1.4 1.3-2.2.3-.9.4-1.8.4-2.7h-6.8v-2.4h9.3v11.2h-1.8l-.8-2.7c-.8 1-1.9 1.8-3.1 2.4"/><path d="m85 100.2-6 6.8v-6.8h-6.8v21h6.8v-6.6l1.7-1.8 4.9 8.4h8.2l-8.4-13.1 7.6-7.9z"/><path d="m101.6 118.2c-1.2 0-1.9-.5-1.9-1.3 0-2 2.6-1.5 4.6-2.5.1 2.1-.6 3.8-2.7 3.8m9.5 3v-.3c-.6-.5-1-1.2-.8-2v-7.1c0-3.6-.4-6.3-7.6-6.3-6 0-8.2 1.9-8.2 5.1h5.8c.2-1.3 1.3-1.5 2.1-1.5.6 0 2 .2 2 1.2 0 2.8-10.8-.3-10.8 6.6 0 3.2 2.5 4.6 5.4 4.6 2.1.1 4.2-.6 5.7-2.1l.3 1.6z"/><path d="m126.5 105.9h-5.1l-2.3 9.5h-.1l-2.3-9.5h-5.8l5 15.3h5.8l2.1-8.9h.1l2.3 8.9h5.9l4.8-15.3h-5.7l-2.3 9.5h-.1z"/><path d="m144.3 118.2c-1.2 0-1.9-.5-1.9-1.3 0-2 2.6-1.5 4.6-2.5.1 2.1-.6 3.8-2.7 3.8m9.5 3v-.3c-.6-.5-1-1.2-.8-2v-7.1c0-3.6-.4-6.3-7.6-6.3-6 0-8.2 1.9-8.2 5.1h5.8c.1-1.3 1.3-1.5 2.1-1.5.6 0 2 .2 2 1.2 0 2.8-10.8-.3-10.8 6.6 0 3.2 2.5 4.6 5.4 4.6 2.1.1 4.2-.6 5.7-2.1l.3 1.6z"/><path d="m155.2 121.2h6v-7.8c0-2 .5-3.2 2.3-3.2 1.7 0 2.1 1.3 2.1 2.9v8.1h6v-9.1c0-4.2-1.9-6.6-5.8-6.6-2.1 0-4 1.1-5.1 2.8v-2.4h-5.5z"/><path d="m198.5 121.2v-4.9h-9.4v-16.1h-6.8v21z"/><path d="m207.6 118.2c-1.2 0-1.9-.5-1.9-1.3 0-2 2.6-1.5 4.6-2.5.1 2.1-.6 3.8-2.7 3.8m9.5 3v-.3c-.6-.5-1-1.2-.8-2v-7.1c0-3.6-.4-6.3-7.6-6.3-6 0-8.2 1.9-8.2 5.1h5.8c.1-1.3 1.3-1.5 2.1-1.5.6 0 2 .2 2 1.2 0 2.8-10.8-.3-10.8 6.6 0 3.2 2.5 4.6 5.4 4.6 2.1.1 4.2-.6 5.7-2.1l.3 1.6z"/><path d="m218.1 121.2h6v-7.5c0-1.8.4-3.4 2.1-3.4 1.6 0 2 .9 2 3.2v7.8h6v-7.5c0-1.8.3-3.4 2.1-3.4 1.6 0 2 .9 2 3.2v7.8h6v-9c0-4.2-1.4-6.7-5.8-6.7-2.1 0-4.1 1-5.2 2.8-.7-1.6-2.2-2.8-4.9-2.8-1.9.1-3.7 1.1-4.8 2.7v-2.4h-5.5z"/><path d="m253.5 118.1c-1.2 0-1.9-.5-1.9-1.3 0-2 2.6-1.5 4.6-2.5.1 2.2-.6 3.8-2.7 3.8m9.4 3v-.3c-.6-.5-.9-1.2-.8-2v-7.1c0-3.6-.4-6.3-7.6-6.3-6 0-8.2 1.9-8.2 5.1h5.8c.1-1.3 1.3-1.5 2.1-1.5.6 0 2 .1 2 1.2 0 2.8-10.8-.3-10.8 6.6 0 3.2 2.5 4.6 5.4 4.6 2.1.1 4.2-.6 5.7-2.1l.3 1.6z"/></g></svg>