<svg viewBox="0 0 425.2 226.77" xmlns="http://www.w3.org/2000/svg"><g fill="#231f20"><path d="m351.37 100a5.68 5.68 0 0 0 -.87-1.84 4.22 4.22 0 0 0 -1.5-1.33 4.46 4.46 0 0 0 -2.13-.47 4.15 4.15 0 0 0 -3.63 1.83 5.41 5.41 0 0 0 -.82 1.86 8.82 8.82 0 0 0 -.25 2.11 9.25 9.25 0 0 0 .26 2.19 5.62 5.62 0 0 0 .85 1.87 4.42 4.42 0 0 0 1.51 1.29 4.65 4.65 0 0 0 2.21.49 4.38 4.38 0 0 0 2.19-.5 4.15 4.15 0 0 0 1.42-1.34 6.13 6.13 0 0 0 .77-1.91 10.11 10.11 0 0 0 .24-2.21 7.74 7.74 0 0 0 -.28-2.09m-9.1-5.47v2.08h.06a3.79 3.79 0 0 1 2-1.86 7.33 7.33 0 0 1 2.95-.58 6.89 6.89 0 0 1 3.11.66 6.19 6.19 0 0 1 2.21 1.77 7.68 7.68 0 0 1 1.32 2.58 10.4 10.4 0 0 1 .45 3.09 10.75 10.75 0 0 1 -.43 3.1 7.43 7.43 0 0 1 -1.31 2.55 6.26 6.26 0 0 1 -2.21 1.71 7.09 7.09 0 0 1 -3.08.63 7.61 7.61 0 0 1 -1.27-.12 7.14 7.14 0 0 1 -1.38-.39 5.4 5.4 0 0 1 -1.3-.73 4 4 0 0 1 -1-1.15h-.06v7.93h-2.54v-21.27zm-8.82 15.4v-2.44h-.06a5.21 5.21 0 0 1 -2.06 2.1 6.21 6.21 0 0 1 -2.95.67 7.1 7.1 0 0 1 -2.53-.4 4.19 4.19 0 0 1 -1.64-1.15 4.47 4.47 0 0 1 -.88-1.77 10.08 10.08 0 0 1 -.25-2.28v-10.13h2.53v10.43a2.88 2.88 0 0 0 3.13 3.09 5.28 5.28 0 0 0 2-.35 3.78 3.78 0 0 0 1.42-1 4.48 4.48 0 0 0 .85-1.53 6.23 6.23 0 0 0 .28-1.92v-8.7h2.53v15.4zm-27.2-10.88a7.28 7.28 0 0 1 1.43-2.56 6.76 6.76 0 0 1 2.35-1.69 7.81 7.81 0 0 1 3.22-.63 7.72 7.72 0 0 1 3.23.63 6.63 6.63 0 0 1 2.34 1.71 7.13 7.13 0 0 1 1.43 2.54 10.17 10.17 0 0 1 .48 3.17 10 10 0 0 1 -.48 3.16 7.17 7.17 0 0 1 -1.43 2.55 6.61 6.61 0 0 1 -2.34 1.7 8.06 8.06 0 0 1 -3.23.61 8.14 8.14 0 0 1 -3.22-.61 6.74 6.74 0 0 1 -2.35-1.7 7.33 7.33 0 0 1 -1.43-2.55 10 10 0 0 1 -.48-3.16 10.17 10.17 0 0 1 .48-3.17m2.58 5.66a5.19 5.19 0 0 0 1 1.82 4.33 4.33 0 0 0 1.53 1.12 4.72 4.72 0 0 0 1.86.38 4.65 4.65 0 0 0 1.86-.38 4.46 4.46 0 0 0 1.54-1.12 5.35 5.35 0 0 0 1-1.82 8.53 8.53 0 0 0 0-5 5.54 5.54 0 0 0 -1-1.84 4.45 4.45 0 0 0 -3.4-1.51 4.55 4.55 0 0 0 -1.86.38 4.36 4.36 0 0 0 -1.53 1.13 5.37 5.37 0 0 0 -1 1.84 8.53 8.53 0 0 0 0 5m-9.25-10.2v3.25h.06a6.74 6.74 0 0 1 2.26-2.71 5.69 5.69 0 0 1 3.4-.84v2.64a7.1 7.1 0 0 0 -2.59.42 4.06 4.06 0 0 0 -1.68 1.22 4.94 4.94 0 0 0 -.95 2 10.54 10.54 0 0 0 -.3 2.64v6.85h-2.53v-15.45zm-12.27 15.15a10.27 10.27 0 0 1 -3.73.73 10 10 0 0 1 -4.26-.88 9.67 9.67 0 0 1 -3.18-2.37 10.32 10.32 0 0 1 -2-3.43 11.88 11.88 0 0 1 -.69-4 15.29 15.29 0 0 1 .64-4.42 11 11 0 0 1 1.94-3.68 9.34 9.34 0 0 1 3.13-2.56 9.89 9.89 0 0 1 4.42-.94 12.71 12.71 0 0 1 3.26.41 8.23 8.23 0 0 1 2.75 1.26 7.71 7.71 0 0 1 2 2.19 8.59 8.59 0 0 1 1.12 3.2h-2.83a5.59 5.59 0 0 0 -.78-2.1 4.93 4.93 0 0 0 -1.4-1.44 6 6 0 0 0 -1.89-.85 8.56 8.56 0 0 0 -2.25-.28 6.44 6.44 0 0 0 -5.53 2.85 8.94 8.94 0 0 0 -1.3 2.89 13.19 13.19 0 0 0 -.42 3.32 10.71 10.71 0 0 0 .48 3.21 8.4 8.4 0 0 0 1.4 2.71 6.9 6.9 0 0 0 2.28 1.87 6.7 6.7 0 0 0 3.14.7 7.72 7.72 0 0 0 2.95-.53 6.07 6.07 0 0 0 2.16-1.48 6.15 6.15 0 0 0 1.33-2.2 7.2 7.2 0 0 0 .38-2.73h-6.79v-2.38h9.33v11.2h-1.79l-.75-2.65a7.08 7.08 0 0 1 -3.09 2.4"/><path d="m85 88.77-5.96 6.78v-6.78h-6.81v20.96h6.81v-6.64l1.61-1.71 4.99 8.35h8.16l-8.39-13.07 7.58-7.89z"/><path d="m101.61 106.74c-1.18 0-1.9-.53-1.9-1.29 0-2 2.59-1.51 4.55-2.47.15 2.09-.55 3.76-2.65 3.76m9.46 3v-.29a2 2 0 0 1 -.81-2v-7.13c0-3.64-.43-6.32-7.58-6.32-6 0-8.25 1.89-8.25 5.13h5.77c.14-1.32 1.27-1.49 2.1-1.49.63 0 2 .15 2 1.25 0 2.85-10.75-.29-10.75 6.64 0 3.17 2.54 4.6 5.39 4.6a7.48 7.48 0 0 0 5.68-2.07l.29 1.63z"/><path d="m126.51 94.48h-5.07l-2.34 9.43h-.06l-2.3-9.43h-5.86l4.99 15.25h5.85l2.11-8.93h.05l2.34 8.93h5.85l4.82-15.25h-5.68l-2.34 9.43h-.06z"/><path d="m144.32 106.74c-1.19 0-1.91-.53-1.91-1.29 0-2 2.6-1.51 4.56-2.47.14 2.09-.55 3.76-2.65 3.76m9.45 3v-.29a2 2 0 0 1 -.81-2v-7.13c0-3.64-.43-6.32-7.58-6.32-6 0-8.24 1.89-8.24 5.13h5.76c.14-1.32 1.27-1.49 2.11-1.49.63 0 2 .15 2 1.25 0 2.85-10.76-.29-10.76 6.64 0 3.17 2.54 4.6 5.4 4.6a7.49 7.49 0 0 0 5.68-2.07l.28 1.63z"/><path d="m155.19 109.73h6v-7.73c0-1.95.49-3.15 2.34-3.15 1.7 0 2.1 1.35 2.1 2.86v8.06h6v-9.14c0-4.19-1.87-6.55-5.84-6.55a5.92 5.92 0 0 0 -5.11 2.83v-2.43h-5.47z"/><path d="m198.48 109.73v-4.89h-9.34v-16.07h-6.81v20.96z"/><path d="m207.6 106.74c-1.19 0-1.91-.53-1.91-1.29 0-2 2.6-1.51 4.56-2.47.14 2.09-.55 3.76-2.65 3.76m9.45 3v-.29a2 2 0 0 1 -.81-2v-7.13c0-3.64-.43-6.32-7.58-6.32-6 0-8.24 1.89-8.24 5.13h5.76c.15-1.32 1.27-1.49 2.11-1.49.63 0 2 .15 2 1.25 0 2.85-10.76-.29-10.76 6.64 0 3.17 2.54 4.6 5.39 4.6a7.48 7.48 0 0 0 5.68-2.07l.29 1.63z"/><path d="m218.06 109.73h6v-7.54c0-1.83.35-3.38 2.11-3.38 1.58 0 2 .91 2 3.15v7.77h6v-7.54c0-1.83.34-3.38 2.11-3.38 1.58 0 2 .91 2 3.15v7.77h6v-9c0-4.16-1.38-6.67-5.79-6.67a6.06 6.06 0 0 0 -5.22 2.8c-.72-1.63-2.22-2.8-4.93-2.8a6.16 6.16 0 0 0 -4.79 2.71v-2.29h-5.5z"/><path d="m253.49 106.66c-1.18 0-1.9-.52-1.9-1.28 0-2 2.59-1.51 4.55-2.47.14 2.09-.55 3.75-2.65 3.75m9.45 3v-.29a2 2 0 0 1 -.8-2v-7.13c0-3.64-.44-6.32-7.58-6.32-6 0-8.25 1.89-8.25 5.12h5.76c.15-1.31 1.27-1.48 2.11-1.48.63 0 2 .14 2 1.25 0 2.85-10.75-.29-10.75 6.64 0 3.17 2.53 4.6 5.39 4.6a7.48 7.48 0 0 0 5.67-2.07l.3 1.63z"/><path d="m78.53 117.79a8.44 8.44 0 0 1 1.77.17 4.57 4.57 0 0 1 1.5.59 3.14 3.14 0 0 1 1 1.11 3.43 3.43 0 0 1 .39 1.71 3.55 3.55 0 0 1 -.18 1.12 3.41 3.41 0 0 1 -.52 1 3.34 3.34 0 0 1 -.8.75 2.9 2.9 0 0 1 -1 .43 3.5 3.5 0 0 1 2.26 1.16 3.56 3.56 0 0 1 .84 2.41 4.79 4.79 0 0 1 -.07.79 4 4 0 0 1 -.24.9 3.71 3.71 0 0 1 -.53.91 3.37 3.37 0 0 1 -.94.79 5.62 5.62 0 0 1 -1.43.55 8.11 8.11 0 0 1 -2 .22h-6.24v-14.61zm0 6.41a4.88 4.88 0 0 0 1.47-.2 2.91 2.91 0 0 0 1-.54 2.11 2.11 0 0 0 .61-.79 2.24 2.24 0 0 0 .21-1q0-2.75-3.3-2.74h-4.78v5.22zm0 7a8.76 8.76 0 0 0 1.47-.1 3.34 3.34 0 0 0 1.23-.49 2.52 2.52 0 0 0 .84-.93 3.19 3.19 0 0 0 .3-1.46 2.42 2.42 0 0 0 -1-2.12 4.83 4.83 0 0 0 -2.86-.71h-4.77v5.84z"/><path d="m88.67 121.84v2.48a4 4 0 0 1 1.53-2 4 4 0 0 1 2.47-.64v1.32a3.77 3.77 0 0 0 -1.6.24 3.54 3.54 0 0 0 -2 2 4.06 4.06 0 0 0 -.28 1.54v5.64h-1.3v-10.58z"/><path d="m97 117.79v2.07h-1.32v-2.07zm0 4v10.58h-1.32v-10.53z"/><path d="m102.44 121.84v1.83a3.14 3.14 0 0 1 1.32-1.55 3.8 3.8 0 0 1 2.07-.58 5.26 5.26 0 0 1 1.85.28 2.9 2.9 0 0 1 1.2.81 3 3 0 0 1 .63 1.28 6.91 6.91 0 0 1 .19 1.7v6.81h-1.29v-6.6a5.6 5.6 0 0 0 -.13-1.26 2.6 2.6 0 0 0 -.43-1 2.06 2.06 0 0 0 -.83-.67 2.93 2.93 0 0 0 -1.3-.25 3.18 3.18 0 0 0 -1.38.28 3 3 0 0 0 -1 .76 3.56 3.56 0 0 0 -.66 1.14 4.84 4.84 0 0 0 -.26 1.45v6.17h-1.29v-10.6z"/><path d="m122.58 133.67a4.1 4.1 0 0 1 -.81 1.6 3.55 3.55 0 0 1 -1.45 1 6 6 0 0 1 -2.18.35 6.29 6.29 0 0 1 -1.56-.19 4.35 4.35 0 0 1 -1.36-.57 3.37 3.37 0 0 1 -1-1 3.07 3.07 0 0 1 -.47-1.45h1.3a2.2 2.2 0 0 0 .4 1 2.29 2.29 0 0 0 .71.64 3.4 3.4 0 0 0 .94.36 5.1 5.1 0 0 0 1 .11 3.1 3.1 0 0 0 2.6-1 4.69 4.69 0 0 0 .8-2.95v-1.44a3.77 3.77 0 0 1 -1.32 1.58 3.5 3.5 0 0 1 -2 .59 5.09 5.09 0 0 1 -2.17-.42 4.06 4.06 0 0 1 -1.49-1.15 4.75 4.75 0 0 1 -.85-1.73 8.13 8.13 0 0 1 -.26-2.13 6.67 6.67 0 0 1 .31-2.06 5.1 5.1 0 0 1 .93-1.7 4.33 4.33 0 0 1 1.45-1.11 4.74 4.74 0 0 1 2-.42 3.7 3.7 0 0 1 1.12.16 3.49 3.49 0 0 1 .95.46 4.22 4.22 0 0 1 .77.69 3.14 3.14 0 0 1 .52.82v-1.83h1.29v9.72a8.09 8.09 0 0 1 -.17 2.07zm-3-2.82a3.41 3.41 0 0 0 1.06-.94 4.28 4.28 0 0 0 .65-1.34 5.87 5.87 0 0 0 .21-1.56 6.92 6.92 0 0 0 -.18-1.56 4.45 4.45 0 0 0 -.6-1.41 3.13 3.13 0 0 0 -1.05-1 3 3 0 0 0 -1.57-.39 3.16 3.16 0 0 0 -1.58.38 3.24 3.24 0 0 0 -1.08 1 4 4 0 0 0 -.63 1.4 6.69 6.69 0 0 0 -.19 1.61 5.86 5.86 0 0 0 .2 1.56 4.06 4.06 0 0 0 .64 1.34 3.27 3.27 0 0 0 1.08.94 3.21 3.21 0 0 0 1.56.36 3 3 0 0 0 1.52-.39z"/><path d="m134.68 121.84 3.32 9.29 3.28-9.29h1.33l-4 10.58h-1.37l-4.08-10.58z"/><path d="m145.91 123.48a2.84 2.84 0 0 1 .89-1.1 3.69 3.69 0 0 1 1.32-.64 6.67 6.67 0 0 1 1.68-.2 7.27 7.27 0 0 1 1.39.13 3.46 3.46 0 0 1 1.25.5 2.71 2.71 0 0 1 .9 1 3.62 3.62 0 0 1 .35 1.73v5.61a.68.68 0 0 0 .76.78 1.07 1.07 0 0 0 .41-.08v1.09l-.4.06h-.44a1.93 1.93 0 0 1 -.79-.14 1 1 0 0 1 -.46-.38 1.3 1.3 0 0 1 -.21-.58 4.22 4.22 0 0 1 -.06-.75 8.85 8.85 0 0 1 -.7.92 3.85 3.85 0 0 1 -.8.66 3.51 3.51 0 0 1 -1 .41 5.25 5.25 0 0 1 -1.34.14 5.12 5.12 0 0 1 -1.38-.17 3.22 3.22 0 0 1 -1.13-.55 2.81 2.81 0 0 1 -.76-1 3.27 3.27 0 0 1 -.27-1.38 2.72 2.72 0 0 1 .49-1.73 3 3 0 0 1 1.3-1 7 7 0 0 1 1.82-.46l2.06-.26c.28 0 .51-.06.72-.1a1.32 1.32 0 0 0 .51-.22 1 1 0 0 0 .32-.42 1.94 1.94 0 0 0 .11-.7 2.4 2.4 0 0 0 -.21-1.07 1.76 1.76 0 0 0 -.6-.67 2.57 2.57 0 0 0 -.88-.34 6 6 0 0 0 -1.07-.09 3.26 3.26 0 0 0 -2 .59 2.26 2.26 0 0 0 -.82 1.87h-1.29a4.28 4.28 0 0 1 .33-1.46zm6.45 3.16a.75.75 0 0 1 -.47.33c-.23.06-.44.11-.62.14-.54.1-1.11.18-1.69.26a8.62 8.62 0 0 0 -1.58.33 3.26 3.26 0 0 0 -1.18.65 1.53 1.53 0 0 0 -.46 1.2 1.86 1.86 0 0 0 .19.87 2.19 2.19 0 0 0 1.28 1.07 2.67 2.67 0 0 0 .88.15 4.45 4.45 0 0 0 1.42-.23 3.65 3.65 0 0 0 1.18-.65 3.16 3.16 0 0 0 .79-1 3.12 3.12 0 0 0 .3-1.39v-1.68z"/><path d="m159.31 117.79v14.63h-1.31v-14.63z"/><path d="m170.89 132.42v-1.91a3.61 3.61 0 0 1 -1.48 1.63 4.19 4.19 0 0 1 -2.16.56 4.79 4.79 0 0 1 -1.71-.27 2.85 2.85 0 0 1 -1.15-.79 3.17 3.17 0 0 1 -.65-1.25 6.56 6.56 0 0 1 -.2-1.68v-6.87h1.29v6.89a3.48 3.48 0 0 0 .66 2.17 3.33 3.33 0 0 0 3.6.38 3 3 0 0 0 1-.95 4.23 4.23 0 0 0 .58-1.37 6.79 6.79 0 0 0 .18-1.56v-5.56h1.29v10.58z"/><path d="m177.19 128.92a4 4 0 0 0 .62 1.35 3.67 3.67 0 0 0 1.09 1 3 3 0 0 0 1.58.39 3.14 3.14 0 0 0 2.21-.74 3.86 3.86 0 0 0 1.1-2h1.3a5.17 5.17 0 0 1 -1.51 2.79 4.47 4.47 0 0 1 -3.1 1 4.86 4.86 0 0 1 -2.17-.44 3.9 3.9 0 0 1 -1.48-1.21 5 5 0 0 1 -.85-1.78 7.85 7.85 0 0 1 -.28-2.14 7.46 7.46 0 0 1 .28-2 5.2 5.2 0 0 1 .85-1.79 4.25 4.25 0 0 1 1.48-1.27 4.6 4.6 0 0 1 2.17-.48 4.35 4.35 0 0 1 2.17.51 4.28 4.28 0 0 1 1.46 1.34 5.38 5.38 0 0 1 .81 1.91 8.36 8.36 0 0 1 .21 2.18h-8.13a5.67 5.67 0 0 0 .19 1.38zm6.39-3.94a3.91 3.91 0 0 0 -.67-1.2 3.16 3.16 0 0 0 -1-.84 3 3 0 0 0 -1.39-.32 3.06 3.06 0 0 0 -1.42.32 3.16 3.16 0 0 0 -1 .84 4.1 4.1 0 0 0 -.69 1.21 6.22 6.22 0 0 0 -.34 1.4h6.85a4.75 4.75 0 0 0 -.34-1.39z"/><path d="m198 122.93v9.49h-1.3v-9.49h-1.8v-1.09h1.8v-1a6.92 6.92 0 0 1 .11-1.25 2.2 2.2 0 0 1 .39-1 1.8 1.8 0 0 1 .8-.59 3.13 3.13 0 0 1 1.28-.22 4.52 4.52 0 0 1 .53 0l.55.06v1.16l-.49-.08a3.4 3.4 0 0 0 -.45 0 1.64 1.64 0 0 0 -.82.17 1 1 0 0 0 -.42.44 1.59 1.59 0 0 0 -.15.64v.8.92h2.09v1.09z"/><path d="m209.64 122a4.5 4.5 0 0 1 1.57 1.21 5.07 5.07 0 0 1 1 1.77 7.28 7.28 0 0 1 .32 2.16 7.18 7.18 0 0 1 -.32 2.16 5.2 5.2 0 0 1 -1 1.78 4.45 4.45 0 0 1 -1.57 1.19 5.42 5.42 0 0 1 -4.28 0 4.64 4.64 0 0 1 -1.57-1.19 5.36 5.36 0 0 1 -1-1.78 6.88 6.88 0 0 1 -.33-2.16 7 7 0 0 1 .33-2.16 5.21 5.21 0 0 1 1-1.77 4.69 4.69 0 0 1 1.57-1.21 5.31 5.31 0 0 1 4.28 0zm-3.76 1a3.45 3.45 0 0 0 -1.15 1 4.59 4.59 0 0 0 -.7 1.44 5.79 5.79 0 0 0 0 3.3 4.76 4.76 0 0 0 .7 1.45 3.53 3.53 0 0 0 1.15 1 3.29 3.29 0 0 0 1.62.39 3.24 3.24 0 0 0 1.62-.39 3.56 3.56 0 0 0 1.16-1 4.76 4.76 0 0 0 .7-1.45 6 6 0 0 0 0-3.3 4.59 4.59 0 0 0 -.7-1.44 3.48 3.48 0 0 0 -1.16-1 3.24 3.24 0 0 0 -1.62-.39 3.29 3.29 0 0 0 -1.62.39z"/><path d="m217.34 121.84v2.48a4 4 0 0 1 1.53-2 4 4 0 0 1 2.47-.64v1.32a3.77 3.77 0 0 0 -1.6.24 3.54 3.54 0 0 0 -2.05 2 4.06 4.06 0 0 0 -.29 1.54v5.64h-1.29v-10.58z"/><path d="m232 123.48a3 3 0 0 1 .89-1.1 3.86 3.86 0 0 1 1.32-.64 6.79 6.79 0 0 1 1.68-.2 7.37 7.37 0 0 1 1.4.13 3.53 3.53 0 0 1 1.25.5 2.71 2.71 0 0 1 .9 1 3.74 3.74 0 0 1 .35 1.73v5.61a.68.68 0 0 0 .76.78 1.11 1.11 0 0 0 .41-.08v1.09l-.41.06h-.43a1.9 1.9 0 0 1 -.79-.14.92.92 0 0 1 -.46-.38 1.3 1.3 0 0 1 -.22-.58 5.54 5.54 0 0 1 0-.75 10.52 10.52 0 0 1 -.71.92 3.61 3.61 0 0 1 -.8.66 3.45 3.45 0 0 1 -1 .41 5.35 5.35 0 0 1 -1.34.14 5.14 5.14 0 0 1 -1.39-.17 3.17 3.17 0 0 1 -1.12-.55 2.59 2.59 0 0 1 -.76-1 3.12 3.12 0 0 1 -.28-1.38 2.72 2.72 0 0 1 .49-1.73 3 3 0 0 1 1.3-1 7 7 0 0 1 1.83-.46l2.06-.26c.27 0 .51-.06.71-.1a1.3 1.3 0 0 0 .52-.22 1 1 0 0 0 .31-.42 1.73 1.73 0 0 0 .12-.7 2.39 2.39 0 0 0 -.22-1.07 1.74 1.74 0 0 0 -.59-.67 2.7 2.7 0 0 0 -.89-.34 6 6 0 0 0 -1.07-.09 3.26 3.26 0 0 0 -2 .59 2.29 2.29 0 0 0 -.82 1.87h-1.29a4.28 4.28 0 0 1 .29-1.46zm6.46 3.16a.77.77 0 0 1 -.48.33c-.23.06-.43.11-.61.14-.55.1-1.11.18-1.69.26a8.92 8.92 0 0 0 -1.59.33 3.26 3.26 0 0 0 -1.18.65 1.57 1.57 0 0 0 -.46 1.2 1.86 1.86 0 0 0 .2.87 2 2 0 0 0 .52.65 2.09 2.09 0 0 0 .76.42 2.62 2.62 0 0 0 .88.15 4.43 4.43 0 0 0 1.41-.23 3.65 3.65 0 0 0 1.18-.65 3.33 3.33 0 0 0 .8-1 3.12 3.12 0 0 0 .3-1.39v-1.68z"/><path d="m252.81 117.79v6.06a2.94 2.94 0 0 1 .59-1 3.59 3.59 0 0 1 .87-.73 3.83 3.83 0 0 1 1.06-.44 4.53 4.53 0 0 1 1.15-.14 4.64 4.64 0 0 1 2.1.45 4.18 4.18 0 0 1 1.48 1.22 5.22 5.22 0 0 1 .94 1.79 8.32 8.32 0 0 1 0 4.28 5.22 5.22 0 0 1 -.89 1.78 4.06 4.06 0 0 1 -1.48 1.21 4.64 4.64 0 0 1 -2.1.44 4.46 4.46 0 0 1 -2.31-.59 3.43 3.43 0 0 1 -1.46-1.7v2h-1.19v-14.63zm7 7.71a4.46 4.46 0 0 0 -.62-1.44 3.43 3.43 0 0 0 -1.07-1 3.06 3.06 0 0 0 -1.58-.4 3.54 3.54 0 0 0 -1.73.4 3.39 3.39 0 0 0 -1.15 1 4.28 4.28 0 0 0 -.64 1.44 7.09 7.09 0 0 0 0 3.26 4.28 4.28 0 0 0 .64 1.44 3.39 3.39 0 0 0 1.15 1 3.43 3.43 0 0 0 1.73.4 3 3 0 0 0 1.58-.4 3.43 3.43 0 0 0 1.07-1 4.46 4.46 0 0 0 .62-1.44 7.09 7.09 0 0 0 0-3.26z"/><path d="m266 128.92a4 4 0 0 0 .63 1.35 3.67 3.67 0 0 0 1.09 1 3 3 0 0 0 1.57.39 3.17 3.17 0 0 0 2.22-.74 3.86 3.86 0 0 0 1.1-2h1.29a5.1 5.1 0 0 1 -1.5 2.79 4.48 4.48 0 0 1 -3.11 1 4.84 4.84 0 0 1 -2.16-.44 3.82 3.82 0 0 1 -1.48-1.21 5 5 0 0 1 -.85-1.78 7.85 7.85 0 0 1 -.28-2.14 7.46 7.46 0 0 1 .28-2 5.2 5.2 0 0 1 .85-1.79 4.16 4.16 0 0 1 1.48-1.27 4.59 4.59 0 0 1 2.16-.48 4.16 4.16 0 0 1 3.64 1.85 5.38 5.38 0 0 1 .81 1.91 8.36 8.36 0 0 1 .2 2.18h-8.13a5.65 5.65 0 0 0 .19 1.38zm6.4-3.94a3.91 3.91 0 0 0 -.67-1.2 3.27 3.27 0 0 0 -1-.84 3.24 3.24 0 0 0 -2.81 0 3.3 3.3 0 0 0 -1.05.84 4.31 4.31 0 0 0 -.68 1.21 5.72 5.72 0 0 0 -.34 1.4h6.84a4.75 4.75 0 0 0 -.34-1.39z"/><path d="m281.56 121.84v1.09h-2.15v7.13a2.38 2.38 0 0 0 .17 1c.12.24.41.38.87.4a10.32 10.32 0 0 0 1.11-.06v1.09h-.58-.57a2.57 2.57 0 0 1 -1.8-.5 2.52 2.52 0 0 1 -.49-1.86v-7.23h-1.85v-1.09h1.85v-3.17h1.29v3.17z"/><path d="m289.35 121.84v1.09h-2.16v7.13a2.22 2.22 0 0 0 .18 1c.11.24.4.38.87.4a10.32 10.32 0 0 0 1.11-.06v1.09h-.58-.57a2.61 2.61 0 0 1 -1.81-.5 2.56 2.56 0 0 1 -.49-1.86v-7.23h-1.84v-1.09h1.84v-3.17h1.29v3.17z"/><path d="m293.88 128.92a4 4 0 0 0 .63 1.35 3.67 3.67 0 0 0 1.09 1 3 3 0 0 0 1.57.39 3.17 3.17 0 0 0 2.22-.74 3.86 3.86 0 0 0 1.1-2h1.29a5.1 5.1 0 0 1 -1.5 2.79 4.48 4.48 0 0 1 -3.11 1 4.84 4.84 0 0 1 -2.16-.44 3.82 3.82 0 0 1 -1.48-1.21 5 5 0 0 1 -.85-1.78 7.85 7.85 0 0 1 -.28-2.14 7.46 7.46 0 0 1 .28-2 5.2 5.2 0 0 1 .85-1.79 4.16 4.16 0 0 1 1.47-1.35 4.59 4.59 0 0 1 2.16-.48 4.16 4.16 0 0 1 3.64 1.85 5.38 5.38 0 0 1 .81 1.91 8.36 8.36 0 0 1 .2 2.18h-8.13a5.65 5.65 0 0 0 .2 1.46zm6.4-3.94a3.91 3.91 0 0 0 -.67-1.2 3.27 3.27 0 0 0 -1-.84 3.24 3.24 0 0 0 -2.81 0 3.3 3.3 0 0 0 -1.05.84 4.31 4.31 0 0 0 -.75 1.22 5.72 5.72 0 0 0 -.34 1.4h6.84a4.75 4.75 0 0 0 -.22-1.4z"/><path d="m306.48 121.84v2.48a3.88 3.88 0 0 1 4-2.62v1.3a3.79 3.79 0 0 0 -1.6.24 3.38 3.38 0 0 0 -1.23.79 3.43 3.43 0 0 0 -.81 1.22 3.88 3.88 0 0 0 -.29 1.54v5.64h-1.29v-10.59z"/><path d="m322.19 117.79v14.63h-1.29v-14.63z"/><path d="m327.71 117.79v2.07h-1.3v-2.07zm0 4v10.58h-1.3v-10.53z"/><path d="m333.89 122.93v9.49h-1.29v-9.49h-1.8v-1.09h1.8v-1a8 8 0 0 1 .1-1.25 2.46 2.46 0 0 1 .39-1 1.92 1.92 0 0 1 .79-.64 3.16 3.16 0 0 1 1.28-.22 4.7 4.7 0 0 1 .54 0l.55.06v1.21l-.49-.08a3.4 3.4 0 0 0 -.45 0 1.64 1.64 0 0 0 -.82.17 1 1 0 0 0 -.42.44 1.77 1.77 0 0 0 -.16.64v.8.92h2.09v1.09z"/><path d="m339.89 128.92a4.16 4.16 0 0 0 .62 1.35 3.67 3.67 0 0 0 1.09 1 3 3 0 0 0 1.58.39 3.14 3.14 0 0 0 2.21-.74 3.94 3.94 0 0 0 1.11-2h1.29a5.17 5.17 0 0 1 -1.51 2.79 4.47 4.47 0 0 1 -3.1 1 4.86 4.86 0 0 1 -2.17-.44 3.9 3.9 0 0 1 -1.48-1.21 5.16 5.16 0 0 1 -.85-1.78 7.85 7.85 0 0 1 -.28-2.14 7.46 7.46 0 0 1 .28-2 5.39 5.39 0 0 1 .85-1.79 4.25 4.25 0 0 1 1.47-1.35 4.6 4.6 0 0 1 2.17-.48 4.35 4.35 0 0 1 2.17.51 4.28 4.28 0 0 1 1.46 1.34 5.38 5.38 0 0 1 .81 1.91 8.36 8.36 0 0 1 .21 2.18h-8.14a5.67 5.67 0 0 0 .21 1.46zm6.39-3.94a3.91 3.91 0 0 0 -.67-1.2 3.16 3.16 0 0 0 -1-.84 3 3 0 0 0 -1.39-.32 3.06 3.06 0 0 0 -1.42.32 3.16 3.16 0 0 0 -1 .84 4.1 4.1 0 0 0 -.8 1.22 6.22 6.22 0 0 0 -.34 1.4h6.85a4.75 4.75 0 0 0 -.23-1.4z"/></g></svg>