<svg viewBox="0 0 750 500" xmlns="http://www.w3.org/2000/svg"><path d="m100 220.07a40.37 40.37 0 0 1 9.31-5.27l1-9.87 16.3-2 3.36 9.34a39.94 39.94 0 0 1 10.32 2.85l7.68-6.28 12.94 10.1-4.23 9a40.07 40.07 0 0 1 5.27 9.32l9.88 1 2 16.3-9.34 3.36a40.16 40.16 0 0 1 -2.85 10.31l6.28 7.68-10.11 12.95-9-4.23a40.22 40.22 0 0 1 -9.32 5.27l-1 9.88-16.29 2-3.36-9.33a40.36 40.36 0 0 1 -10.32-2.86l-7.68 6.28-12.94-10.1 4.22-9a40.22 40.22 0 0 1 -5.27-9.32l-9.87-1-2-16.29 9.34-3.37a40.38 40.38 0 0 1 2.85-10.31l-6.28-7.68 10.11-12.95zm11 20.83a17.61 17.61 0 1 0 24.72-3.05 17.61 17.61 0 0 0 -24.72 3.05z" fill="#ebebeb"/><path d="m511.58 50.05a26.54 26.54 0 0 1 6.42-2.81l1.34-6.4 10.8-.18 1.6 6.34a26.58 26.58 0 0 1 6.55 2.58l5.47-3.58 7.77 7.51-3.38 5.58a26.76 26.76 0 0 1 2.85 6.46l6.39 1.34.19 10.8-6.34 1.56a26.58 26.58 0 0 1 -2.58 6.55l3.58 5.47-7.55 7.73-5.58-3.38a26.41 26.41 0 0 1 -6.47 2.8l-1.33 6.4-10.81.19-1.5-6.31a26.23 26.23 0 0 1 -6.56-2.57l-5.46 3.58-7.78-7.51 3.39-5.59a26.21 26.21 0 0 1 -2.81-6.46l-6.39-1.33-.24-10.82 6.34-1.55a26.65 26.65 0 0 1 2.58-6.56l-3.58-5.46 7.51-7.77zm5.76 14.4a11.59 11.59 0 1 0 16.4-.29 11.59 11.59 0 0 0 -16.4.29z" fill="#f5f5f5"/><path d="m625.65 146.07a16.54 16.54 0 0 1 4.08-1.77l.84-4 6.81-.12 1 4a17.23 17.23 0 0 1 4.14 1.63l3.44-2.26 4.9 4.74-2.13 3.52a16.64 16.64 0 0 1 1.77 4.07l4 .84.12 6.82-4 1a16.58 16.58 0 0 1 -1.62 4.13l2.25 3.45-4.73 4.9-3.52-2.19a17.33 17.33 0 0 1 -4.08 1.77l-.84 4-6.81.12-1-4a16.83 16.83 0 0 1 -4.14-1.63l-3.44 2.26-4.9-4.74 2.13-3.52a16.48 16.48 0 0 1 -1.77-4.07l-4-.84-.15-6.78 4-1a16.37 16.37 0 0 1 1.63-4.13l-2.26-3.44 4.73-4.91 3.52 2.14zm3.64 9.08a7.31 7.31 0 1 0 10.33-.19 7.29 7.29 0 0 0 -10.33.19z" fill="#f5f5f5"/><path d="m74.18 115.27a32.49 32.49 0 0 1 7.92-3.45l1.63-7.82 13.27-.25 1.91 7.78a32.33 32.33 0 0 1 8 3.16l6.7-4.39 9.54 9.21-4.15 6.85a32.11 32.11 0 0 1 3.45 7.92l7.84 1.63.23 13.26-7.78 1.9a32.33 32.33 0 0 1 -3.16 8l4.39 6.7-9.21 9.54-6.84-4.15a32.69 32.69 0 0 1 -7.93 3.44l-1.63 7.84-13.25.23-1.91-7.78a32.1 32.1 0 0 1 -8-3.16l-6.7 4.39-9.56-9.12 4.15-6.84a32.34 32.34 0 0 1 -3.45-7.93l-7.84-1.63-.23-13.25 7.78-1.91a32.48 32.48 0 0 1 3.16-8l-4.39-6.7 9.21-9.53 6.85 4.15zm7.06 17.65a14.22 14.22 0 1 0 20.1-.35 14.23 14.23 0 0 0 -20.1.35z" fill="#f5f5f5"/><path d="m630.59 206.69a26.76 26.76 0 0 1 6.46-2.81l1.33-6.39 10.81-.19 1.55 6.34a26.65 26.65 0 0 1 6.56 2.58l5.46-3.58 7.78 7.51-3.39 5.58a26.44 26.44 0 0 1 2.85 6.47l6.4 1.33.18 10.8-6.34 1.56a26.8 26.8 0 0 1 -2.58 6.56l3.58 5.46-7.51 7.77-5.58-3.38a26.76 26.76 0 0 1 -6.46 2.81l-1.34 6.39-10.8.19-1.55-6.34a26.58 26.58 0 0 1 -6.55-2.58l-5.47 3.58-7.77-7.51 3.38-5.58a26.41 26.41 0 0 1 -2.8-6.47l-6.4-1.33-.19-10.8 6.35-1.56a26.38 26.38 0 0 1 2.57-6.56l-3.57-5.46 7.5-7.77 5.59 3.38zm5.76 14.4a11.59 11.59 0 1 0 16.39-.29 11.58 11.58 0 0 0 -16.39.29z" fill="#ebebeb"/><path d="m414.91 78.92a40.54 40.54 0 0 1 9.95-4.33l2.05-9.85 16.65-.29 2.4 9.77a41 41 0 0 1 10.1 4l8.41-5.51 12 11.56-5.22 8.6a40.45 40.45 0 0 1 4.33 10l9.85 2 .29 16.65-9.77 2.39a40.74 40.74 0 0 1 -4 10.1l5.51 8.42-11.56 12-8.61-5.21a40.56 40.56 0 0 1 -9.95 4.32l-2.05 9.86-16.65.29-2.39-9.78a40.74 40.74 0 0 1 -10.1-4l-8.42 5.51-12-11.56 5.21-8.6a41.21 41.21 0 0 1 -4.33-10l-9.85-2-.29-16.64 9.77-2.4a40.77 40.77 0 0 1 4-10.1l-5.52-8.41 11.57-12 8.6 5.22zm8.87 22.17a17.86 17.86 0 1 0 25.26-.44 17.87 17.87 0 0 0 -25.26.44z" fill="#ebebeb"/><path d="m729.53 428c0 .14-158.8.26-354.64.26s-354.67-.12-354.67-.26 158.76-.26 354.67-.26 354.64.11 354.64.26z"/><path d="m536.9 120.16h-348.16a10.86 10.86 0 0 0 -10.87 10.84v245.94a10.86 10.86 0 0 0 10.87 10.87h133.62s8.5 26.29-17.85 39.89h125s-29.75-10.2-22.1-39.89h129.49a10.86 10.86 0 0 0 10.87-10.81v-246a10.86 10.86 0 0 0 -10.87-10.84z"/><path d="m367.47 362c4.73 6.77-2.68 14.18-9.45 9.45a2.5 2.5 0 0 1 -.58-.59c-4.72-6.76 2.68-14.17 9.45-9.44a2.46 2.46 0 0 1 .58.58z"/><path d="m227 144.52h338.48a9.7 9.7 0 0 1 9.7 9.7v208.46a0 0 0 0 1 0 0h-357.92a0 0 0 0 1 0 0v-208.47a9.7 9.7 0 0 1 9.74-9.69z" fill="#fff" stroke="#000" stroke-miterlimit="10"/><path d="m193 124.66h341.26a7.52 7.52 0 0 1 7.52 7.52v10.61a0 0 0 0 1 0 0h-357.92a0 0 0 0 1 0 0v-9a9.15 9.15 0 0 1 9.14-9.13z" fill="#ebebeb"/><circle cx="195.26" cy="134.11" fill="#e0e0e0" r="2.51"/><circle cx="202.76" cy="134.11" fill="#e0e0e0" r="2.51"/><circle cx="209.88" cy="134.11" fill="#e0e0e0" r="2.51"/><path d="m474.66 387.85c0 .11-49.55.21-110.65.21s-110.66-.1-110.66-.21 49.54-.21 110.66-.21 110.65.09 110.65.21z"/><g fill="#f5f5f5"><path d="m183.98 172.13h356.98v79.69h-356.98z"/><path d="m192.75 151.14h51.52v13.48h-51.52z"/><path d="m504.28 151.14h28.21v13.48h-28.21z"/><path d="m449.64 151.14h46.16v13.48h-46.16z"/><path d="m393.88 151.14h46.16v13.48h-46.16z"/><path d="m201.36 274.27h314.62v14.12h-314.62z"/><path d="m201.36 300.55h314.62v14.12h-314.62z"/></g><path d="m539.13 269.09h-121c-4.19 0-7.59-3.88-7.59-8.68v-98.26c0-4.79 3.4-8.67 7.59-8.67h121c4.2 0 7.6 3.88 7.6 8.67v98.26c0 4.8-3.4 8.68-7.6 8.68z" fill="#fff"/><path d="m418.38 153.45h120a8.54 8.54 0 0 1 8.54 8.54v11.7a0 0 0 0 1 0 0h-135.85a0 0 0 0 1 0 0v-12.94a7.31 7.31 0 0 1 7.31-7.3z" fill="#e0e0e0"/><path d="m421.48 162.94a2.29 2.29 0 1 1 -2.29-2.29 2.29 2.29 0 0 1 2.29 2.29z" fill="#fff"/><path d="m428.38 162.94a2.29 2.29 0 1 1 -2.29-2.29 2.29 2.29 0 0 1 2.29 2.29z" fill="#fff"/><path d="m435.28 162.94a2.29 2.29 0 1 1 -2.29-2.29 2.29 2.29 0 0 1 2.29 2.29z" fill="#fff"/><path d="m539.31 269.06h.32a5.18 5.18 0 0 0 .94-.11 6.94 6.94 0 0 0 3.27-1.63 8.68 8.68 0 0 0 2.86-5.15 21.64 21.64 0 0 0 .15-3.84v-4.39c0-12.4 0-30.35-.05-52.52 0-11.09 0-23.23 0-36.27v-2.46a12.49 12.49 0 0 0 -.19-2.44 8.9 8.9 0 0 0 -2.2-4.35 7 7 0 0 0 -4.34-2.25c-.83-.07-1.71 0-2.56 0h-24-95.39a10.08 10.08 0 0 0 -1.56.06 4.79 4.79 0 0 0 -.75.17l-.37.11-.35.15a6.34 6.34 0 0 0 -2.43 1.86 7.76 7.76 0 0 0 -1.43 2.71 9.54 9.54 0 0 0 -.35 3.06v36.79 46 10.86 5.31a9.27 9.27 0 0 0 .42 2.56 8.47 8.47 0 0 0 1.1 2.31 8.11 8.11 0 0 0 1.72 1.88 7.3 7.3 0 0 0 2.22 1.18 8.58 8.58 0 0 0 1.22.27c.42 0 .83.05 1.26 0h48.75l52.52.05h14.28 3.72 1.26-1.26-3.72-14.28l-52.52.05h-36.27-12.52c-.42 0-.85 0-1.29 0a7.79 7.79 0 0 1 -1.27-.29 7.62 7.62 0 0 1 -2.31-1.21 8.39 8.39 0 0 1 -1.77-1.94 8.73 8.73 0 0 1 -1.13-2.39 9.28 9.28 0 0 1 -.44-2.62c0-1.77 0-3.54 0-5.32 0-3.58 0-7.2 0-10.86 0-14.66 0-30.05 0-46v-36.68a10.15 10.15 0 0 1 .36-3.14 8.23 8.23 0 0 1 1.49-2.82 6.59 6.59 0 0 1 2.54-1.95l.37-.15.39-.12a4.11 4.11 0 0 1 .79-.17 9.62 9.62 0 0 1 1.6-.07h119.38c.86 0 1.71 0 2.58.05a7.32 7.32 0 0 1 4.51 2.34 9.07 9.07 0 0 1 2.26 4.48 12.2 12.2 0 0 1 .19 2.48v2.46 36.27 52.52 4.39a21.71 21.71 0 0 1 -.17 3.85 8.79 8.79 0 0 1 -2.91 5.19 6.91 6.91 0 0 1 -3.31 1.61 5 5 0 0 1 -.94.1z"/><path d="m493.06 176.76v33.75c.07 5.83.93 15-8.3 14.68-8-.87-10.11-8.43-10.17-13.88 0-2.58-.06-4.73-.08-5 0 0-8.75-.71-9.49-9.35-.35-4.17-.39-12.83-.33-20.67a16.15 16.15 0 0 1 15-16l.83-.06c9.02-.1 12.66 7.5 12.54 16.53z" fill="#fff" stroke="#000" stroke-miterlimit="10" stroke-width=".5"/><path d="m453.22 168.54a1.38 1.38 0 0 1 .66-.82 4.26 4.26 0 0 1 2.21-.36 12.38 12.38 0 0 0 6.49-2 29.53 29.53 0 0 1 3-3.67c2.61-2.7 4.77-4.53 7-5.43a20.05 20.05 0 0 1 10.71-.84c3 .79 5.7 3.22 6.12 6.3a6.24 6.24 0 0 1 6.27-.58h.05c2.29.82 3.59 3.23 4.26 5.57s1 4.82 2.2 6.91c.26.44.56 1 .34 1.42a1 1 0 0 1 -1 .44 3 3 0 0 1 -1.07-.49c.26.61.51 1.23.77 1.84a5.53 5.53 0 0 1 -2.49-.17 52.47 52.47 0 0 1 -1.62 6.15 3.53 3.53 0 0 0 -2.42.59c-.8.72-1.16 2.08-2.49 1.56-.68-.26-1.3-1.68-1.53-2.37a33.83 33.83 0 0 1 -1.46-14.27 11 11 0 0 0 -3.34-2.42l.1.1c-2.41-.84-5.14-1.67-7.44-.53-1.77.88-2.82 2.72-4.15 4.19a13.57 13.57 0 0 1 -9.66 4.47c-.13 2.43.07 5.87-.05 8.3l-2.05-3.9a7.75 7.75 0 0 1 -.44-.86v-.09a14.67 14.67 0 0 0 -.68-1.38 1.52 1.52 0 0 1 -2.22-2 3.71 3.71 0 0 1 .74-.74 2.37 2.37 0 0 1 -2.29.59 1.9 1.9 0 0 1 -1.34-1.86 1.61 1.61 0 0 1 1-1.29 5.43 5.43 0 0 1 -3.08-.68c-.71-.35-1.32-.92-1.1-1.68z"/><path d="m486.72 162.75a6.92 6.92 0 0 1 .87.79 6.14 6.14 0 0 1 1.32 2.87 10.59 10.59 0 0 1 .23 2.19c0 .8-.06 1.65-.13 2.55a23.93 23.93 0 0 0 -.01 2.85 11 11 0 0 0 .19 1.5 3.14 3.14 0 0 0 .61 1.45 1.31 1.31 0 0 0 1.22.41 2 2 0 0 0 1.1-.62 4.36 4.36 0 0 0 .83-2.2h-.18a7.15 7.15 0 0 0 1 1.81 2.61 2.61 0 0 0 1.68.92 1.61 1.61 0 0 0 .9-.16 1.37 1.37 0 0 0 .6-.59 1.43 1.43 0 0 0 .18-.77 1 1 0 0 0 -.27-.67l-.09.08a5.45 5.45 0 0 0 1.85 1.39 5.17 5.17 0 0 0 .58.23l.2.05s-.06 0-.19-.08-.32-.13-.56-.26a5.79 5.79 0 0 1 -1.79-1.41l-.09.08a1.12 1.12 0 0 1 .05 1.29 1.24 1.24 0 0 1 -.54.52 1.58 1.58 0 0 1 -.81.14 2.43 2.43 0 0 1 -1.56-.87 7 7 0 0 1 -1-1.78l-.13-.27v.3a4.37 4.37 0 0 1 -.8 2.1 1.75 1.75 0 0 1 -1 .55 1.1 1.1 0 0 1 -1-.35 3 3 0 0 1 -.56-1.35 10.56 10.56 0 0 1 -.19-1.47 23.68 23.68 0 0 1 .05-2.81c.06-.9.11-1.75.1-2.56a10.18 10.18 0 0 0 -.25-2.22 6.07 6.07 0 0 0 -1.4-2.89 3.55 3.55 0 0 0 -1.01-.74z"/><path d="m460 171.15s0 0 .07.06l.21.16.37.24c.15.08.32.18.52.27a7.75 7.75 0 0 0 3.7.67 9.82 9.82 0 0 0 5.22-1.93 16.94 16.94 0 0 0 4.48-5.16c.63-1.05 1.14-2.12 1.71-3.11a11.39 11.39 0 0 1 1.93-2.63 5.78 5.78 0 0 1 2.49-1.51 4 4 0 0 1 1.31-.16 5 5 0 0 1 1.2.23 5 5 0 0 1 1.8 1.09 5.09 5.09 0 0 1 1 1.26 6 6 0 0 1 .44 1.3s0 0 0-.09 0-.16 0-.26a4.46 4.46 0 0 0 -.33-1 4.78 4.78 0 0 0 -1-1.31 5.16 5.16 0 0 0 -1.83-1.14 4.87 4.87 0 0 0 -1.24-.25 4.32 4.32 0 0 0 -1.37.14 6 6 0 0 0 -2.57 1.54 11.44 11.44 0 0 0 -2 2.67c-.57 1-1.08 2.07-1.7 3.1a17 17 0 0 1 -4.42 5.12 9.69 9.69 0 0 1 -5.12 1.93 7.58 7.58 0 0 1 -3.65-.59 9.85 9.85 0 0 1 -1.22-.64z"/><path d="m459.2 167.36a1.47 1.47 0 0 0 .31.21 6.88 6.88 0 0 0 .92.47 9.84 9.84 0 0 0 1.45.48 10.36 10.36 0 0 0 1.86.24 10.08 10.08 0 0 0 1.87-.12 9.79 9.79 0 0 0 1.48-.39 7.55 7.55 0 0 0 1-.4 1.56 1.56 0 0 0 .32-.2s-.49.21-1.31.47a10.49 10.49 0 0 1 -1.47.33 10.65 10.65 0 0 1 -1.83.11 10.16 10.16 0 0 1 -1.83-.23 10.56 10.56 0 0 1 -1.44-.42c-.85-.31-1.31-.59-1.33-.55z"/><path d="m492.84 183.22c.14-.08 5.8-2.19 6 3.73s-5.74 4.94-5.76 4.77-.24-8.5-.24-8.5z" fill="#fff" stroke="#000" stroke-miterlimit="10" stroke-width=".5"/><path d="m441.39 250.64 2.61 2-.05-5.06 9.23-1.31s2.16 12.51 2.38 15.62a21.46 21.46 0 0 1 .13 5.23c-.66 4-7.31 4.58-10.6 2.18a16.82 16.82 0 0 1 -2.5-1.93c-4.85-4.7-12-14.7-12-14.7l6.5-5.3z" fill="#fff" stroke="#000" stroke-miterlimit="10" stroke-width=".5"/><path d="m440.71 250.05a11.06 11.06 0 0 0 1.44 1.44c.91.85 2.18 2 3.62 3.29s2.78 2.37 3.81 3.1a6.79 6.79 0 0 0 1.74 1.05 13.87 13.87 0 0 0 -1.56-1.3c-1-.78-2.27-1.92-3.7-3.17a46 46 0 0 0 -5.35-4.41z"/><path d="m468.46 268.67c.89.15 41.66 0 41.66 0l.56-13.91-.17-10.48-3.38-31.73s-8.86-3.05-13.39-4.51c0 0-4.76 5-13.82 4.83-8.85-.13-10.7-2.12-10.7-2.12l-12.38 4.74s-8.8 3.16-10.31 7-4.18 25.51-4.18 25.51h12.83l-.13 21z"/><path d="m489.84 234.23 1.84 13.45 8.9 3.98 6.58-5.61v-12.49z" opacity=".2"/><path d="m506.93 238.05c0 .11-3.7.2-8.26.2s-8.26-.09-8.26-.2 3.69-.21 8.26-.21 8.26.1 8.26.21z"/><path d="m511.44 221.86a6.23 6.23 0 0 1 0 1.14c0 .8-.07 1.84-.11 3.09-.11 2.69-.25 6.27-.41 10.22s-.34 7.54-.46 10.22c-.07 1.26-.13 2.3-.18 3.1a8.08 8.08 0 0 1 -.11 1.13 6 6 0 0 1 0-1.14c0-.8 0-1.84.06-3.1.06-2.62.18-6.23.35-10.22s.35-7.61.52-10.22c.08-1.31.16-2.36.23-3.09a7.79 7.79 0 0 1 .11-1.13z"/><path d="m448.57 230a22.32 22.32 0 0 0 5.82 15.89c-1.2-5.46-4.22-10.58-5.82-15.89z" opacity=".3"/><path d="m466 236.4 12.72 21a1.45 1.45 0 0 1 -1.23 2.2l-38 .39a1.46 1.46 0 0 1 -1.16-.56l-17.19-22a1.45 1.45 0 0 1 1.12-2.35l40-.76a4.37 4.37 0 0 1 3.74 2.08z" fill="#e0e0e0"/><path d="m440.87 248.3h-10a3.36 3.36 0 0 0 -3.2 2.35 3 3 0 0 1 -.24.56l-.68 2.25a6.29 6.29 0 0 0 1 5.62l2.51 2a4.9 4.9 0 0 0 5.58.35l8.57-5.19a3.23 3.23 0 0 0 .67-5l-.46-.48-2.89-.37a1.23 1.23 0 0 0 -.86-2.09z" fill="#fff" stroke="#000" stroke-miterlimit="10" stroke-width=".5"/><path d="m440.47 251.06c1.14-.26 1.58-.93 1.53-.94a4.83 4.83 0 0 1 -1.59.64c-1.05.17-2.58.06-4.26.12s-3.19.07-4.29.13a6.89 6.89 0 0 0 -1.77.18 7 7 0 0 0 1.78.13h4.29"/><path d="m515.65 234.38s-5.38 21.55-12.1 29.5c-6.51 7.71-16.71 4.17-20.24-5.8s-9.83-32.74-9.83-32.74l7.73-5.91 13.35 25.89 6-17.65z" fill="#fff" stroke="#000" stroke-miterlimit="10" stroke-width=".5"/><path d="m473.84 225.94-5.67-8.21a15.22 15.22 0 0 1 -2.42-.75c-.64-.38-1.27-3.64-1.26-4.28s-.86-2-.64-2.54.26-.79.53-1.4c.07-.16.45-1 1.11-2.16a17.37 17.37 0 0 0 .72-1.76l.78-2.05s1.7-3.7 3.43-2.36c0 0 6.52 5 7.18 5.81s3.16 11.24 3.61 13.19" fill="#fff" stroke="#000" stroke-miterlimit="10" stroke-width=".5"/><path d="m507.13 212.55s11 2.67 11 17.28-3.33 21.83-3.33 21.83l-20.31-11.06 4.51-11.38z"/><path d="m514.8 251.66a2.1 2.1 0 0 1 -.42-.19l-1.18-.6-4.33-2.28-14.48-7.8-.16-.09.06-.17c.35-.91.72-1.87 1.09-2.85 1.3-3.37 2.54-6.58 3.66-9.51.57-1.46 1.11-2.84 1.61-4.14a25 25 0 0 1 1.61-3.55 11 11 0 0 1 3.66-4.24 4.3 4.3 0 0 1 1.43-.57 1.85 1.85 0 0 1 .4 0h.14a5.32 5.32 0 0 0 -1.88.76 11.16 11.16 0 0 0 -3.48 4.25 25.25 25.25 0 0 0 -1.55 3.52c-.49 1.31-1 2.7-1.57 4.16-1.11 2.93-2.34 6.14-3.63 9.52-.37 1-.74 1.94-1.09 2.85l-.1-.26 14.41 7.87 4.27 2.4 1.14.66c.27.16.4.24.39.26z" fill="#263238"/><path d="m401.06 362.35h-103.5c-3.59 0-6.5-3.33-6.5-7.42v-84c0-4.1 2.91-7.42 6.5-7.42h103.5c3.58 0 6.49 3.32 6.49 7.42v84c0 4.07-2.91 7.42-6.49 7.42z" fill="#fff"/><path d="m299.15 263.45h99.7a8.85 8.85 0 0 1 8.85 8.85v8.47a0 0 0 0 1 0 0h-116.16a0 0 0 0 1 0 0v-9.7a7.61 7.61 0 0 1 7.61-7.62z" fill="#e0e0e0"/><circle cx="298.48" cy="271.57" fill="#fff" r="1.96"/><circle cx="304.38" cy="271.57" fill="#fff" r="1.96"/><path d="m312.24 271.57a2 2 0 1 1 -1.95-2 2 2 0 0 1 1.95 2z" fill="#fff"/><path d="m401.21 362.32h.27a5.49 5.49 0 0 0 .8-.1 6 6 0 0 0 2.8-1.39 7.49 7.49 0 0 0 2.45-4.41 20.34 20.34 0 0 0 .13-3.28c0-1.18 0-2.43 0-3.75 0-10.61 0-26 0-44.92 0-9.48 0-19.87 0-31v-2.1a9.69 9.69 0 0 0 -.17-2.08 7.51 7.51 0 0 0 -1.88-3.72 6 6 0 0 0 -3.71-1.93c-.71-.06-1.46 0-2.19 0h-102.17a8.48 8.48 0 0 0 -1.34.06 4.89 4.89 0 0 0 -.64.14l-.32.09-.3.13a5.39 5.39 0 0 0 -2.07 1.59 6.63 6.63 0 0 0 -1.22 2.32 7.94 7.94 0 0 0 -.3 2.62v10.65 20.81 39.34 9.29 4.54a7.73 7.73 0 0 0 .37 2.19 7.18 7.18 0 0 0 .93 2 6.8 6.8 0 0 0 1.47 1.6 6.22 6.22 0 0 0 1.9 1 6.35 6.35 0 0 0 1.05.23c.36 0 .71.05 1.08 0h10.67 31 44.91 12.21 3.18-3.18-12.21-44.91-31-10.68a10.39 10.39 0 0 1 -1.11 0 6.73 6.73 0 0 1 -1.08-.24 6.37 6.37 0 0 1 -2-1 7.19 7.19 0 0 1 -1.51-1.65 7.41 7.41 0 0 1 -1-2 8.41 8.41 0 0 1 -.38-2.24c0-1.51 0-3 0-4.55v-9.29c0-12.53 0-25.7 0-39.34v-31.4a8.47 8.47 0 0 1 .31-2.69 6.89 6.89 0 0 1 1.27-2.41 5.76 5.76 0 0 1 2.17-1.67l.32-.13.33-.1a5.15 5.15 0 0 1 .68-.15 10.54 10.54 0 0 1 1.37-.06h102.14 2.21a6.28 6.28 0 0 1 3.85 2 7.8 7.8 0 0 1 1.93 3.84 10.11 10.11 0 0 1 .17 2.12v2.1 31 44.92 3.75a19.38 19.38 0 0 1 -.14 3.29 7.55 7.55 0 0 1 -2.49 4.44 5.89 5.89 0 0 1 -2.83 1.37 3.56 3.56 0 0 1 -.81.09z"/><path d="m364 300.6-1.26-13-19.44-24c-1.28 5.94-2.73 17.38-.79 23.14.72 2.17 1.68 4.36 1.44 6.63-.23 2.11-1.49 4.07-1.32 6.18a9.44 9.44 0 0 0 1.91 4.29 2.65 2.65 0 0 0 3.43 1.54l14.62-2.94a1.41 1.41 0 0 0 1.41-1.84z"/><path d="m317.5 343.35 12.47-5 9.53-24.88 12.69 6.53s-1.23 2.46-3.85 8.54c-1 2.35-4.37 8.89-5.74 12.08a16.75 16.75 0 0 1 -15 10.15l-11.7.31z" fill="#fff" stroke="#000" stroke-miterlimit="10" stroke-width=".5"/><path d="m311.31 338.54-1.88-2a2.06 2.06 0 0 0 -1.22-.34l-6 .18a3.71 3.71 0 0 0 -2.76 1.67l-2.17 3.69s-1.46 2.53-1.27 3.14a1.09 1.09 0 0 0 1.26.74s.2 1.17.59 1.41a1.85 1.85 0 0 0 1.45.09 1.23 1.23 0 0 0 1.18.71 1.18 1.18 0 0 0 .31-.05c.71-.22 1-1.59 1-1.59l3-.56s4.35 2.9 5.88 4.81 5.54.45 5.54.45l1.5-7.18z" fill="#ffbf9d"/><path d="m306.91 339.39a4.59 4.59 0 0 1 -1.3.22c-.83.09-2 .12-3.3.29l.14-.1a11.81 11.81 0 0 1 -.77 1.43 15.92 15.92 0 0 1 -2.87 3.39 5.46 5.46 0 0 1 -1.5 1.07c0-.05.52-.47 1.31-1.26a20.07 20.07 0 0 0 2.74-3.4 14.88 14.88 0 0 0 .76-1.38l.05-.1h.09c1.35-.15 2.51-.13 3.33-.16a6.84 6.84 0 0 1 1.32 0z" fill="#ff9a6c"/><path d="m307.05 342.24a2.94 2.94 0 0 1 -1.13.3 8.64 8.64 0 0 1 -2.91-.1l.21-.12a9.44 9.44 0 0 1 -.44 1.08 9.07 9.07 0 0 1 -2.24 2.94 4.19 4.19 0 0 1 -1.28.85 13.48 13.48 0 0 1 1.1-1 10.55 10.55 0 0 0 2.08-2.91 10 10 0 0 0 .43-1l.06-.16h.15a14.48 14.48 0 0 0 3.97.12z" fill="#ff9a6c"/><path d="m314.63 343.71-5.33-2.47a5.34 5.34 0 0 0 -2.31-.69 5.45 5.45 0 0 0 -2.47.82l-2.86 1.48a.68.68 0 0 0 -.38.34c-.08.22.08.44.24.61a4.23 4.23 0 0 0 5.55.22 11.52 11.52 0 0 0 1.79 3.55 3.9 3.9 0 0 0 3.51 1.49" fill="#ffbf9d"/><path d="m312.37 349.06s-.05 0-.14.05a3 3 0 0 1 -.44.05 3.46 3.46 0 0 1 -1.6-.39 4.93 4.93 0 0 1 -1.88-1.72 13.41 13.41 0 0 1 -1.4-3l.27.07a4.26 4.26 0 0 1 -3.1 1 4.67 4.67 0 0 1 -1.73-.48 4.46 4.46 0 0 1 -.77-.54 1.89 1.89 0 0 1 -.34-.35.69.69 0 0 1 -.15-.58.66.66 0 0 1 .32-.4l.34-.18.67-.35 1.29-.66a11.39 11.39 0 0 1 2.57-1.12 3.92 3.92 0 0 1 2.52.38c.73.33 1.37.65 2 .93l2.83 1.39a7.68 7.68 0 0 1 1 .55 5.9 5.9 0 0 1 -1.08-.42l-2.89-1.29-2-.89a3.63 3.63 0 0 0 -2.33-.33 11.51 11.51 0 0 0 -2.47 1.1l-1.29.68-.67.34c-.22.12-.46.23-.47.34s.16.39.38.56a3.56 3.56 0 0 0 .69.48 4.13 4.13 0 0 0 1.59.45 4 4 0 0 0 2.85-.85l.18-.16.09.22a13.39 13.39 0 0 0 1.31 2.94 5 5 0 0 0 1.74 1.69 3.9 3.9 0 0 0 2.11.49z" fill="#ff9a6c"/><path d="m385.61 288.31c-2.62-4.33-4.78-16.58-4.94-20.57a19.22 19.22 0 0 0 -5.22-11.56c-2.78-2.86-7.62-4-10.88-1.65l-.66 3.4c1.28 15.4 1.1 31.06 2.39 46.46.16 2 1.81 3.85 2.73 5.66a5.36 5.36 0 0 0 4.79 3.18c2.65-.16 6.67-1.37 7.5-3.9 2.98-9.15 15.57-2.4 4.29-21.02z"/><path d="m376.51 257.91a20.13 20.13 0 0 0 -15.61-7.77c-3.55-.06-5 .68-7.57 1.37a11.11 11.11 0 0 0 -6.38 4.22 18.74 18.74 0 0 0 -3.67 8.56 52.1 52.1 0 0 0 -.47 9.66 17.65 17.65 0 0 0 3 9.07l8.18 1.42c4.53.16 9.11.31 13.52-.73s8.68-3.4 11-7.26c3.34-5.36 1.98-13.68-2-18.54z"/><path d="m369.22 257.85-10.91-4.33-2.86.33c-6.41 0-10.84 7.1-10.88 12.29-.05 5.78.12 12.83 1 17.08 1.85 8.56 9.15 9.27 9.15 9.27s-.15 4.56-.2 7.44l16.71-1.21.84-37.93a3.05 3.05 0 0 0 -2.85-2.94z" fill="#fff"/><path d="m370.63 275.29c0-.64.62-2.2 1.25-2.33 1.68-.36 4.75-.39 5 3.91.36 5.89-5.62 5-5.64 4.87s-.5-4.23-.61-6.45z" fill="#fff"/><path d="m372.12 273-1.49 1.55c-6.46-6.18-19.08-21.65-18.37-20.73a18.76 18.76 0 0 1 9.22-1c4.8.81 13.91 3.22 13.77 8.88a29.53 29.53 0 0 1 -3.13 11.3z"/><path d="m380.67 271.68a1.36 1.36 0 0 0 -.09-.34 6.39 6.39 0 0 0 -.4-.93 8.56 8.56 0 0 0 -2.46-2.77 16.07 16.07 0 0 0 -5-2.38c-2-.64-4.19-1.14-6.37-2.07a28.73 28.73 0 0 1 -5.81-3.26 30.06 30.06 0 0 1 -4.1-3.59 30.87 30.87 0 0 1 -2.37-2.81l-.59-.81a1.69 1.69 0 0 0 -.23-.28 1.94 1.94 0 0 0 .18.31c.12.2.29.49.54.85a27.52 27.52 0 0 0 2.31 2.89 29.62 29.62 0 0 0 4.1 3.67 28.46 28.46 0 0 0 5.86 3.31c2.21.94 4.44 1.43 6.4 2.06a16.18 16.18 0 0 1 4.9 2.28 9 9 0 0 1 2.49 2.66c.48.75.61 1.22.64 1.21z"/><path d="m379 272.6a3 3 0 0 0 -.23-1.28 6 6 0 0 0 -2.21-2.77 13.27 13.27 0 0 0 -4.91-1.93 28.57 28.57 0 0 1 -6.1-1.93 26.44 26.44 0 0 1 -5.44-3.36 26 26 0 0 1 -3.73-3.67 27.76 27.76 0 0 1 -2.08-2.85l-.5-.83a1.87 1.87 0 0 0 -.19-.28 1.35 1.35 0 0 0 .14.31l.45.86a25.76 25.76 0 0 0 2 2.93 26.08 26.08 0 0 0 3.72 3.74 25.49 25.49 0 0 0 5.49 3.42 28.68 28.68 0 0 0 6.17 1.93 13.45 13.45 0 0 1 4.84 1.83 6 6 0 0 1 2.23 2.64 7.85 7.85 0 0 1 .35 1.24z"/><path d="m367.07 275.16a7.76 7.76 0 1 0 7.9-7.62 7.75 7.75 0 0 0 -7.9 7.62z" fill="#f26529"/><path d="m375 267.54s-.38-16-14.48-18.1c0 0-5.62-.7-8.26 2.41a13.3 13.3 0 0 1 7.45-.6c2.41.63 11.2 4.53 11.61 17.57l3.63 1.56z" fill="#f26529"/><path d="m369.32 275.26s0 0 0-.09v-.27a1.91 1.91 0 0 1 .05-.44 4.12 4.12 0 0 1 .12-.59 5.63 5.63 0 0 1 .63-1.5 5.51 5.51 0 0 1 1.45-1.6 5.61 5.61 0 0 1 5.33-.8 5.17 5.17 0 0 1 1.42.77 6.53 6.53 0 0 1 .64.54 6.75 6.75 0 0 1 .55.65 5.67 5.67 0 0 1 1.09 3.33 5.81 5.81 0 0 1 -.29 1.77 5.3 5.3 0 0 1 -.8 1.55 5.72 5.72 0 0 1 -.55.65 6.64 6.64 0 0 1 -.64.55 5.14 5.14 0 0 1 -1.42.76 5.62 5.62 0 0 1 -3 .25 5.73 5.73 0 0 1 -3.82-2.65 5.37 5.37 0 0 1 -.63-1.5 3.76 3.76 0 0 1 -.12-.58 2 2 0 0 1 -.05-.44v-.27c0-.06 0-.09 0-.09v.36a2.43 2.43 0 0 0 0 .44 6 6 0 0 0 .11.6 5.73 5.73 0 0 0 7.51 4 5.21 5.21 0 0 0 1.47-.78 6.75 6.75 0 0 0 .65-.55c.19-.22.4-.43.57-.67a5.71 5.71 0 0 0 .82-1.59 5.67 5.67 0 0 0 0-3.64 5.45 5.45 0 0 0 -.82-1.59 6.27 6.27 0 0 0 -.57-.67 7.21 7.21 0 0 0 -.66-.56 5.56 5.56 0 0 0 -1.46-.78 5.73 5.73 0 0 0 -3-.24 5.61 5.61 0 0 0 -2.42 1.09 5.75 5.75 0 0 0 -1.45 1.64 5.58 5.58 0 0 0 -.62 1.53 5.88 5.88 0 0 0 -.11.59 2.49 2.49 0 0 0 0 .44v.37z"/><path d="m373.19 272.92s1 1.09 2.27 2.37 2.34 2.3 2.37 2.27-1-1.09-2.27-2.37-2.34-2.3-2.37-2.27z"/><path d="m374.08 275a5.9 5.9 0 0 0 .85.93 5.54 5.54 0 0 0 1 .84 5.28 5.28 0 0 0 -.85-.94 5.21 5.21 0 0 0 -1-.83z"/><path d="m354.61 297.82 16.91-1.83 3.09 2.82-12.07 7.1-5.33 2.76-5.25-1.6-1.67-3.14z" fill="#fff"/><path d="m331.82 318.41s5.3-10.17 6.61-12.4a17.93 17.93 0 0 1 6.41-5.93l9.77-2.26s-1 4.89 5.06 5.23c7.73.43 12.54-7 12.54-7s8.79.95 11.25 1.95 9.33 3.91 10.34 13.07l2.36 15-18.63 1.42.25 19.91 9.32 15-44.25-.22c-.69.24 2.3-9.42.68-17.7l-3.07-7.48a29.16 29.16 0 0 1 -2.18-9.37c-.11-2.12-.06-3.72-.06-3.72s-4.78-1.62-6.4-5.5z" fill="#f26529"/><path d="m377.75 345-.22-17.53 15.91-1.22s-1.27 9.07-1.44 13.75c-.27 6.7-3.49 16.06-5.64 18s-40.67 4.15-40.67 4.15z" fill="#fff" stroke="#000" stroke-miterlimit="10" stroke-width=".5"/><path d="m283.52 333.47 12.05 26.65a3.12 3.12 0 0 0 2.8 1.84l62.65.44a1.18 1.18 0 0 0 1.18-1.4 1.2 1.2 0 0 0 -1.15-1l-30-.49-10.8-25.92a2.22 2.22 0 0 0 -2-1.37l-33.76-.22a1.06 1.06 0 0 0 -.97 1.47z" fill="#e0e0e0"/><path d="m330 362.37a1.33 1.33 0 0 1 -.16-.29l-.4-.86-1.44-3.22c-1.17-2.7-2.77-6.45-4.48-10.6s-3.24-7.94-4.29-10.7c-.52-1.38-.94-2.5-1.21-3.28l-.3-.89a1.25 1.25 0 0 1 -.09-.33 1.62 1.62 0 0 1 .15.3l.37.88 1.31 3.23c1.14 2.77 2.68 6.52 4.37 10.65s3.26 7.88 4.4 10.65l1.31 3.23.34.89a1 1 0 0 1 .12.34z"/><path d="m308.17 346.39a1.72 1.72 0 1 1 -1.72-1.72 1.72 1.72 0 0 1 1.72 1.72z" fill="#fff"/><path d="m343.05 307.17c.05 0-.45 1-1.16 2.56a44.24 44.24 0 0 0 -2.31 6.35 45.42 45.42 0 0 0 -1.31 6.62c-.21 1.72-.27 2.79-.33 2.79a2.68 2.68 0 0 1 0-.76c0-.49 0-1.19.1-2.06a36.76 36.76 0 0 1 3.65-13.05c.38-.78.72-1.4 1-1.82a3.13 3.13 0 0 1 .36-.63z"/><path d="m396.16 326a2 2 0 0 1 -.38.06l-1.12.11-4.18.35-14.28 1.07h-.19v-.19c-.12-1.9-.24-3.9-.37-6-.21-3.58-.38-7-.44-10.12a14.33 14.33 0 0 1 1.84-8 9.9 9.9 0 0 1 4-3.85 8.17 8.17 0 0 1 1.42-.55l.51-.13c0 .06-.7.2-1.86.81a10 10 0 0 0 -3.84 3.85 14.25 14.25 0 0 0 -1.72 7.89c.08 3.1.26 6.52.46 10.1.13 2.06.25 4.06.37 6l-.2-.17 14.29-.95 4.19-.24 1.12-.05c.22.01.38.01.38.01z"/><path d="m361.12 338.21a2.46 2.46 0 0 1 -.62-.23 4.54 4.54 0 0 1 -.7-.35c-.26-.16-.57-.31-.88-.54a13.26 13.26 0 0 1 -2.06-1.75 15.09 15.09 0 0 1 -2-2.65 14.74 14.74 0 0 1 -1.27-3.06 12 12 0 0 1 -.45-2.66 9.18 9.18 0 0 1 0-1 5.39 5.39 0 0 1 .06-.78 2.45 2.45 0 0 1 .12-.66c.08 0 0 .95.1 2.45a14.1 14.1 0 0 0 .52 2.59 16.08 16.08 0 0 0 1.27 3 15.17 15.17 0 0 0 1.9 2.6 13.23 13.23 0 0 0 1.95 1.77c1.23.82 2.1 1.2 2.06 1.27z"/><path d="m382.35 287.33-10.77-2.49c0 7.61-2.11 10.66-3.9 14.67s-3.31 8.51-2 12.71a4.88 4.88 0 0 0 3 3.47 4.35 4.35 0 0 0 3.18-.5 10.89 10.89 0 0 0 4.53-5.67c.94-2.28 1.54-4.71 2.65-6.91.94-1.87 2.24-3.56 2.94-5.53s1.71-7.31.37-9.75z"/><path d="m224 251.74h112.68c3.9 0 7.06-3.62 7.06-8.08v-91.47c0-4.46-3.16-8.08-7.06-8.08h-112.68c-3.9 0-7.07 3.62-7.07 8.08v91.47c.01 4.46 3.18 8.08 7.07 8.08z" fill="#fff"/><path d="m216.78 144.08h126.44a0 0 0 0 1 0 0v10.53a8.32 8.32 0 0 1 -8.32 8.32h-111a7.08 7.08 0 0 1 -7.08-7.08v-11.77a0 0 0 0 1 -.04 0z" fill="#e0e0e0" transform="matrix(-1 0 0 -1 560 307.01)"/><path d="m333.54 152.92a2.13 2.13 0 1 0 2.13-2.13 2.13 2.13 0 0 0 -2.13 2.13z" fill="#fff"/><circle cx="329.24" cy="152.92" fill="#fff" r="2.13"/><path d="m320.69 152.92a2.13 2.13 0 1 0 2.13-2.13 2.13 2.13 0 0 0 -2.13 2.13z" fill="#fff"/><path d="m223.84 251.71h-.29a5.34 5.34 0 0 1 -.87-.11 6.57 6.57 0 0 1 -3.06-1.51 8.21 8.21 0 0 1 -2.66-4.8 21.69 21.69 0 0 1 -.14-3.58c0-1.28 0-2.64 0-4.08 0-11.55 0-28.25 0-48.9 0-10.32 0-21.62 0-33.76v-2.29a10.81 10.81 0 0 1 .18-2.27 8.31 8.31 0 0 1 2-4 6.69 6.69 0 0 1 4-2.1c.77-.06 1.59 0 2.38 0h111.32a9.92 9.92 0 0 1 1.45.07 4.37 4.37 0 0 1 .7.15l.34.1.33.14a5.93 5.93 0 0 1 2.26 1.73 7.24 7.24 0 0 1 1.33 2.53 8.81 8.81 0 0 1 .33 2.85v34.12 42.83 10.17 4.95a8.71 8.71 0 0 1 -.39 2.38 8.19 8.19 0 0 1 -2.62 3.9 7 7 0 0 1 -2.07 1.1 8.92 8.92 0 0 1 -1.14.25c-.39 0-.78 0-1.17 0h-11.62-33.77-48.89-13.29-3.46 3.46 13.29 48.89 33.77 11.62 1.2a8.32 8.32 0 0 0 1.18-.26 7.18 7.18 0 0 0 2.15-1.14 8.19 8.19 0 0 0 2.7-4 8.78 8.78 0 0 0 .41-2.44c0-1.65 0-3.29 0-5q0-5 0-10.11v-42.63q0-11.13 0-22.65v-11.56a9.12 9.12 0 0 0 -.34-2.93 7.5 7.5 0 0 0 -1.38-2.62 6.16 6.16 0 0 0 -2.36-1.81l-.35-.15-.36-.11a4.64 4.64 0 0 0 -.74-.16 10.76 10.76 0 0 0 -1.49-.07h-88.8-22.33c-.8 0-1.59 0-2.41 0a6.86 6.86 0 0 0 -4.19 2.18 8.5 8.5 0 0 0 -2.1 4.17 11.25 11.25 0 0 0 -.18 2.31v2.4 33.76 48.9 4.08a20.77 20.77 0 0 0 .15 3.59 8.22 8.22 0 0 0 2.71 4.83 6.4 6.4 0 0 0 3.08 1.49 4.32 4.32 0 0 0 .88.1z"/><path d="m305.65 251.61c-.15-.51-.18-9.62-.18-9.62l1.72-34-14.84-5-2.35-1.69-14.05.15-1.8 2.08-14.89 6.47 3.93 27.86.65 13.58" fill="#f26529"/><path d="m307.19 208s3.47.47 5.5 6.27 6.8 26.9 7.11 28.35-1 6.08-6.32 8.15a19.2 19.2 0 0 1 -9.11 1.36v-10.7l2.24-2.33-.88-3.76z" fill="#f26529"/><path d="m316.63 239.68a3.43 3.43 0 0 1 -.53-.22c-.34-.14-.83-.34-1.45-.56a13.78 13.78 0 0 0 -2.22-.6 11.31 11.31 0 0 0 -1.35-.17 5.92 5.92 0 0 0 -1.45.08 7.63 7.63 0 0 0 -4.33 2.42 4.87 4.87 0 0 0 -.76 1.29 3 3 0 0 1 -.17.52s0-.05 0-.14l.09-.4a4.39 4.39 0 0 1 .73-1.33 7.58 7.58 0 0 1 4.39-2.51 6.27 6.27 0 0 1 1.49-.08 9.85 9.85 0 0 1 1.37.18 13.4 13.4 0 0 1 2.23.64c.62.23 1.1.45 1.43.61l.38.19c.11.04.15.07.15.08z"/><path d="m313.48 237.68s-.42-.15-1.12-.29a6.66 6.66 0 0 0 -2.76.06 6.48 6.48 0 0 0 -2.46 1.19c-.55.44-.82.78-.84.76s.05-.1.17-.25a5.64 5.64 0 0 1 .6-.59 6.09 6.09 0 0 1 2.49-1.26 6.25 6.25 0 0 1 2.83 0 4.56 4.56 0 0 1 .81.26 1.14 1.14 0 0 1 .28.12z"/><path d="m306.05 216.67s0 5.2-.07 11.6-.18 11.6-.23 11.6 0-5.19.07-11.6.18-11.6.23-11.6z"/><path d="m306.32 240.31-8.32-.11a1.61 1.61 0 0 0 -1.39.76l-5.71 11.78.22.8h9.7l5.67-12.15z"/><path d="m292.34 245.25.4-.16a1.3 1.3 0 0 1 1.09.06l1.12.6 1.72.18 7.37.1 1.78-2.78 6 1.06a.88.88 0 0 1 .66 1.17l-.42 1.12a.88.88 0 0 1 -.85.57l-2.09-.07-2.21 3.83a2.29 2.29 0 0 1 -1.41 1.07l-5.9 1.44a2.24 2.24 0 0 1 -1.53-.16l-3.86-1.86a2.22 2.22 0 0 1 -1.08-1.12l-1.48-3.3a1.28 1.28 0 0 1 .69-1.75z" fill="#fff" stroke="#000" stroke-miterlimit="10" stroke-width=".5"/><path d="m307.06 209.6a3.31 3.31 0 0 1 -.08.71l-.24 1.72-.21 1.73a3.61 3.61 0 0 1 -.11.71 3.42 3.42 0 0 1 0-.72c0-.45.07-1.06.16-1.74s.2-1.28.29-1.71a2.74 2.74 0 0 1 .19-.7z"/><path d="m261 251.61 2.51-15.8-4.25-25.81s-3.21.77-6.39 12.17c-2.87 10.29-6.3 27.26-6.17 29.26" fill="#f26529"/><path d="m262.16 222.32c.09 0 .63 6.52 1.21 14.56s1 14.56.9 14.56-.63-6.51-1.21-14.55-.98-14.56-.9-14.57z"/><path d="m298 178a12.18 12.18 0 0 0 -11.86-11.48h-.63c-6.76.28-10.31 6.25-9.85 13.08l.65 24c1.52 3.66 4 6.62 8.61 7.41a6.13 6.13 0 0 0 5.18-1.43 5.21 5.21 0 0 0 1.73-3.7l.07-4.77s6.51-.91 6.71-7.48c.13-3.19-.2-9.75-.61-15.63z" fill="#fff" stroke="#000" stroke-miterlimit="10" stroke-width=".5"/><path d="m297.47 174.94s-1.64-4.15-3.59-5.15c-2.35-1.2-3.42 1.42-5.67.74s-4.5-1.84-6.84-.11c-2.57 1.89-1.4 3.27-1.61 6.18-.84 11.82-3 15.12-3.54 9.54-.06-.61-1.72-1.12-1.93-3.71-.26-3.35-.31-7.41.46-9.77a9.35 9.35 0 0 1 3.86-4.83c3.23-2.35 7.61-2.32 10.58-2s8.64 3.96 8.28 9.11z"/><path d="m276.63 186a1.77 1.77 0 0 0 -1.87-1.75c-1.21.09-2.57.76-2.54 3.3.07 4.5 4.51 3.5 4.52 3.37s-.06-3.07-.11-4.92z" fill="#fff" stroke="#000" stroke-miterlimit="10" stroke-width=".5"/><path d="m307.02 238.81 8.57-10.13v-26.81h48.54v28.3h-44.95" fill="#fff" stroke="#000" stroke-miterlimit="10" stroke-width=".5"/><path d="m344.48 219.2 1.83-1.83 3.19 2.91 5.62-5.62 1.7 1.83-7.58 7.32z" fill="#f26529"/><path d="m295 239.74a5.27 5.27 0 0 1 -.87-.91 4.61 4.61 0 0 1 -.75-1 5 5 0 0 1 .86.91 5.37 5.37 0 0 1 .76 1z"/><path d="m298.23 239.38a25.78 25.78 0 0 1 -.2-2.73 25.21 25.21 0 0 1 0-2.74 25.83 25.83 0 0 1 .2 2.74 25 25 0 0 1 0 2.73z"/><path d="m303.3 237.71a7.51 7.51 0 0 1 -.8 1.12 5.85 5.85 0 0 1 -.9 1 7 7 0 0 1 .79-1.12 5.66 5.66 0 0 1 .91-1z"/><path d="m332.28 211.7-3.73-.41-4.56.41-.41 4.15.42 4.15 4.15.52 4.14-.52.42-4.25z" fill="#fff"/><path d="m325.69 218.13a1.6 1.6 0 0 1 -.64-.92l.72-.29a1.15 1.15 0 0 0 .34.58 1 1 0 0 0 1.2 0 .7.7 0 0 0 .25-.55.66.66 0 0 0 -.27-.55 1 1 0 0 0 -.67-.22h-.41v-.71h.37a.86.86 0 0 0 .58-.19.6.6 0 0 0 .24-.51.57.57 0 0 0 -.21-.46.85.85 0 0 0 -.54-.17.68.68 0 0 0 -.5.17.87.87 0 0 0 -.27.41l-.72-.29a1.57 1.57 0 0 1 .53-.71 1.45 1.45 0 0 1 1-.31 1.79 1.79 0 0 1 .78.17 1.27 1.27 0 0 1 .55.47 1.2 1.2 0 0 1 .2.67 1.06 1.06 0 0 1 -.19.65 1.23 1.23 0 0 1 -.45.4 1.36 1.36 0 0 1 .58.45 1.22 1.22 0 0 1 .23.73 1.37 1.37 0 0 1 -.22.75 1.45 1.45 0 0 1 -.59.53 1.93 1.93 0 0 1 -.85.19 1.78 1.78 0 0 1 -1.04-.29z" fill="#4572e3"/><path d="m330.11 214.56-.79.58-.39-.6 1.41-1h.54v4.81h-.77z" fill="#4572e3"/><path d="m332.28 223.72 3.72-3.72-1.86-.83-1.87.83-.83 1.87z" fill="#ca4539"/><path d="m323.16 221.86.83 1.86h8.29v-3.72h-8.28z" fill="#67a559"/><path d="m321.51 208a1.25 1.25 0 0 0 -1.25 1.25v10.75l1.87.83 1.87-.83v-8.3h8.29l.83-1.86-.83-1.87z" fill="#5c83ef"/><path d="m320.26 220v2.49a1.24 1.24 0 0 0 1.25 1.24h2.49v-3.73z" fill="#4b7f3f"/><path d="m332.28 211.7v8.3h3.72v-8.3l-1.86-.83z" fill="#eaba2d"/><path d="m336 211.7v-2.48a1.24 1.24 0 0 0 -1.24-1.25h-2.49v3.73z" fill="#3f67cd"/><path d="m340.79 208.04h18v.93h-18z"/><path d="m340.79 210.01h18v.93h-18z"/><path d="m340.79 212.04h18v.93h-18z"/><path d="m226.62 133.73 1.66 1.9 2.25 1.44.39-3.33-.39-3.25-2.29 1.26z" fill="#498137"/><path d="m216.94 136.76v2.83a1.17 1.17 0 0 0 1.17 1.17h2.89l.59-2.14-.59-1.86-1.95-.59z" fill="#3a66d5"/><path d="m221 126.69-4 4 2.06.59 1.95-.59.58-1.84z" fill="#c94439"/><path d="m221 130.7h-4v6.06h4z" fill="#5182f7"/><path d="m233.09 128.39-2.56 2.1v6.58l2.57 2.11a.59.59 0 0 0 1-.47v-9.87a.59.59 0 0 0 -1-.45zm-6.47 5.34v3h-5.62v4h8.4a1.17 1.17 0 0 0 1.18-1.17v-2.52z" fill="#60a950"/><path d="m229.35 126.69h-8.35v4h5.67v3l3.91-3.24v-2.63a1.18 1.18 0 0 0 -1.23-1.13z" fill="#ecb82b"/><path d="m357.51 356-17.63-.47a10 10 0 0 0 -6.26 2l.79 1.79 17.93.25" fill="#fff" stroke="#000" stroke-miterlimit="10" stroke-width=".5"/><path d="m539.07 241.25a4.83 4.83 0 0 1 -1.6-9.47 5 5 0 0 1 4.78-8.25 6 6 0 0 1 9.29-4.48 6.75 6.75 0 0 1 8.32.23 4.8 4.8 0 0 1 3.84 8.34"/><path d="m538.33 241.9a20.48 20.48 0 0 1 21.28-17.9l1.06.05c11.39 1.2 16.73 11.54 15.22 22.9l-3.44 38-.9 8.95-25.89-3.06.49-9.69s-10.9-2.22-10.52-13.21c.18-5.3 1.45-16.2 2.7-26.04z" fill="#fff" stroke="#000" stroke-miterlimit="10" stroke-width=".5"/><path d="m539.63 236.91s3.21-6.74 6.6-8.19c4.11-1.75 5.63 2.73 9.5 1.84s7.8-2.57 11.57.57c4.13 3.43 2 5.61 2.05 10.49.15 19.8 3.5 25.56 5 16.3.16-1 3-1.69 3.65-6 .8-5.56 1.33-12.33.27-16.35-.89-3.39-2.69-5.78-6-8.49-5.2-4.26-12.6-4.7-17.65-4.42s-15.05 5.62-14.99 14.25z"/><path d="m573.62 257.59a3 3 0 0 1 3.35-2.72c2 .29 4.27 1.56 3.93 5.78-.59 7.5-8 5.36-8 5.14s.45-5.07.72-8.2z" fill="#fff" stroke="#000" stroke-miterlimit="10" stroke-width=".5"/><path d="m574.16 243a7.15 7.15 0 0 1 -3.25 1.32 2.47 2.47 0 0 1 -2.64-1.85c-.06-.53.09-1.13-.23-1.55s-1.15-.38-1.78-.34a4.8 4.8 0 0 1 -4.82-3.67 2 2 0 0 1 -2.71.13 11.53 11.53 0 0 1 -1.94-2.28 3.06 3.06 0 0 0 -2.51-1.41 8 8 0 0 1 -1.65.28c-1-.13-1.41-1.31-1.52-2.3s-.16-2.13-1-2.7-1.77-.29-2.68-.2-2.08-.18-2.27-1.07a1.77 1.77 0 0 1 .4-1.35 4.88 4.88 0 0 1 5.83-1.57 6.59 6.59 0 0 1 12.16-.71 6.7 6.7 0 0 1 10.58 2.93 4.85 4.85 0 0 1 5.13 7.31 4.58 4.58 0 0 1 2.36 3.78c0 1.56-1.63 3-3.11 2.56a2.68 2.68 0 0 1 -4.76 2.46"/><path d="m550.75 226.66v.14a3.76 3.76 0 0 0 0 .4 4.62 4.62 0 0 0 .48 1.47 5.29 5.29 0 0 0 1.58 1.86 5 5 0 0 0 3 1l-.12-.18a2.73 2.73 0 0 0 .06 2.08 7.81 7.81 0 0 0 1.19 1.91 6 6 0 0 0 .8.9 2.81 2.81 0 0 0 3.63-.26l-.28-.09a5.64 5.64 0 0 0 2.21 4 4.13 4.13 0 0 0 2.43.92 7.37 7.37 0 0 0 2.45-.42l-.2-.1a5.91 5.91 0 0 0 1.67 2.4 3.18 3.18 0 0 0 2.58.84 4.14 4.14 0 0 0 3.34-3.09l-.18.07a3.9 3.9 0 0 0 2.57.5 4.11 4.11 0 0 0 1.83-.72 3.41 3.41 0 0 0 .88-.87 1.65 1.65 0 0 0 .21-.38 4.54 4.54 0 0 1 -1.16 1.15 4.14 4.14 0 0 1 -1.79.64 3.74 3.74 0 0 1 -2.41-.51l-.14-.09v.16a3.92 3.92 0 0 1 -3.15 2.86 2.85 2.85 0 0 1 -2.34-.79 5.72 5.72 0 0 1 -1.57-2.27l-.05-.15-.14.05a7.25 7.25 0 0 1 -2.35.4 3.76 3.76 0 0 1 -2.24-.86 5.32 5.32 0 0 1 -2.09-3.78v-.36l-.25.27a2.45 2.45 0 0 1 -2.17.66 2.2 2.2 0 0 1 -1-.43 5.59 5.59 0 0 1 -.76-.84 8 8 0 0 1 -1.17-1.83 2.47 2.47 0 0 1 -.08-1.88l.07-.18h-.19a4.83 4.83 0 0 1 -2.9-.94 5.37 5.37 0 0 1 -1.58-1.75 6.09 6.09 0 0 1 -.67-1.91z"/><path d="m523.64 389.1 66.5.91s18.59-7.78 23.7-8 15.25.44 19.94 8c4.85 7.81 5.53 21.57-9.41 31.58-14.55 9.74-81.1 18.75-90.22 17.92l-16.81-22.57s-.18-18.5 0-19.38 3-8.81 3-8.81z"/><path d="m560.56 419 39.7 14.75-18.1 49.48c-4.62-2-4.75-31.09-4.75-31.09l-25.82-8.4z" fill="#f26529"/><path d="m538.65 418-35.58 16.5 20.3 44.37c4.12-2.2 2.13-29.05 2.13-29.05l23.23-9.63z" fill="#f26529"/><path d="m520.33 388.75s-28.71-10.72-39.28-9.33c-5.91.77-15.15 5.28-15.86 12.86s1.14 17.7 11.36 22.64 51 23.23 60.69 26.05 33.85 9.42 33.85 9.42l9.18-26.16s-50.07-17.33-52.72-19.23-9.33-4.58-9.33-4.58z"/><path d="m620.15 392.31-.2-.05-.57-.18c-.51-.15-1.26-.37-2.24-.6a26.61 26.61 0 0 0 -3.6-.63 26 26 0 0 0 -4.83 0 27.85 27.85 0 0 0 -5.71 1.15 19.6 19.6 0 0 0 -3 1.19l-3.13 1.52c-4.3 2-9.09 4.16-14.2 6.18-10.24 4.1-20.06 6-27.06 7.63-3.51.78-6.35 1.42-8.31 1.88l-2.26.54-.59.13h-.2l.2-.07.58-.16c.51-.14 1.26-.35 2.24-.59 1.95-.5 4.78-1.18 8.29-2 7-1.65 16.79-3.62 27-7.71 5.11-2 9.9-4.11 14.2-6.15l3.12-1.51a19.82 19.82 0 0 1 3.08-1.18 27.85 27.85 0 0 1 5.8-1.07 26 26 0 0 1 4.87 0 24.37 24.37 0 0 1 3.61.68c1 .25 1.73.49 2.23.66l.56.21c.06.1.13.12.12.13z"/><path d="m618.64 388.52c0 .05-.87-.1-2.28-.25a34.43 34.43 0 0 0 -5.51-.16 35 35 0 0 0 -5.47.72c-1.38.29-2.22.54-2.24.49a2.67 2.67 0 0 1 .58-.23c.37-.13.92-.3 1.61-.47a28.11 28.11 0 0 1 5.51-.82 28.85 28.85 0 0 1 5.55.25c.71.1 1.27.21 1.66.3a2.2 2.2 0 0 1 .59.17z"/><path d="m508.25 396.35s-.83-.58-2.2-1.43a29.56 29.56 0 0 0 -11.82-4.17c-1.61-.2-2.62-.22-2.61-.27a2.78 2.78 0 0 1 .7 0 19.21 19.21 0 0 1 1.93.09 27.12 27.12 0 0 1 6.22 1.37 26.3 26.3 0 0 1 5.69 2.84 16.6 16.6 0 0 1 1.56 1.14 2.55 2.55 0 0 1 .53.43z"/><path d="m522.66 435.36.23.08.65.28c.58.23 1.41.63 2.53 1.06 2.24.88 5.55 2.1 9.79 3.49 8.48 2.78 20.67 6.31 35.26 10l-.16.09 8.87-24.64.09.19-11-4.51-60.84-25c-2.48-2.62-4.76-4.93-6.89-6.79a46 46 0 0 0 -5.78-4.36 44.71 44.71 0 0 0 -4-2.21l-1.07-.49-.35-.18.37.15 1.07.47a37.75 37.75 0 0 1 4 2.17 46.25 46.25 0 0 1 5.82 4.32c2.16 1.86 4.45 4.16 6.94 6.78l60.81 24.83 11 4.52.13.06v.13c-3.16 8.76-6.17 17.09-8.9 24.64v.12h-.13c-14.59-3.7-26.77-7.27-35.25-10.09-4.23-1.41-7.53-2.66-9.76-3.57-1.12-.45-1.95-.86-2.52-1.1l-.64-.3z"/><path d="m593.64 297.24s8.27 4.76 9.94 10.36c1 3.39 8.73 46.86 9.95 55.43s-1.35 14.92-5 17.77-14.73 6.63-14.73 6.63l-15.59 5.05-4.47-11.37 14.84-21.32-1.44-14.36z" fill="#f26529"/><path d="m577.39 289.73-6.22-3.55s-5.66 6.62-13.37 5.81a19.43 19.43 0 0 1 -12.29-6.72l-23 4.68c-1.55.31-4.36 1.29-7.06 5.14-3 4.29-17.24 23.32-17.24 23.32h-10a7.39 7.39 0 0 0 -6.55 3.95c-1.71 3.24-3.75 7.58-3.55 9.38.34 3-.25 11.37 3.82 14 1.3.83 5.92 3.3 9.5 3.13 5.29-.25 11.44-3 15-5.48 3-2.09 10-9.34 12.65-12.17v.05l1.72 60.37 60.33-1.72 12.51-92.65s-15.64-7.54-16.25-7.54z" fill="#f26529"/><path d="m518.86 305.9c.09 0 .25 7.48.36 16.71s.12 16.72 0 16.72-.24-7.48-.35-16.71-.09-16.72-.01-16.72z"/><path d="m600.94 354.7s-.51.08-1.42.26a17.91 17.91 0 0 0 -3.74 1.19 24 24 0 0 0 -5 3 43.77 43.77 0 0 0 -5.24 4.85c-1.73 1.86-3.3 3.71-4.78 5.34s-2.87 3.07-4.11 4.19a30.28 30.28 0 0 1 -3.09 2.47c-.38.27-.7.45-.91.59l-.32.18s.09-.09.29-.24.5-.34.87-.63a35.72 35.72 0 0 0 3-2.53c1.22-1.13 2.58-2.57 4-4.22s3-3.49 4.77-5.36a41.23 41.23 0 0 1 5.3-4.86 23.13 23.13 0 0 1 5.06-3 15.81 15.81 0 0 1 3.8-1.11 10.44 10.44 0 0 1 1.07-.12z"/><path d="m602.31 350.61c0 .06-.92.19-2.35.59a22.17 22.17 0 0 0 -5.34 2.28 22.58 22.58 0 0 0 -4.55 3.6c-1 1.08-1.58 1.83-1.63 1.79a3.26 3.26 0 0 1 .35-.55 14.75 14.75 0 0 1 1.12-1.39 20.46 20.46 0 0 1 4.55-3.72 20.22 20.22 0 0 1 5.44-2.21 14.71 14.71 0 0 1 1.75-.32 2.94 2.94 0 0 1 .66-.07z"/><path d="m490 340c3.2.87 7-3.73 9.93-6.6 1.51-1.5 3.08-3.1 3.64-5.15a8.14 8.14 0 0 0 -.51-5.14 18.75 18.75 0 0 0 -2.06-4.11c.27 2.48.88 6.28 0 9.39a16.57 16.57 0 0 1 -4.1 6.61c-1.84 2.08-4 4.26-6.89 5" opacity=".3"/><path d="m503.67 337.39c-.06 0 .31-1.05.61-2.79a22.76 22.76 0 0 0 .29-3.06 20.89 20.89 0 0 0 -1.17-7.41 19.89 19.89 0 0 0 -1.23-2.83c-.81-1.55-1.48-2.42-1.43-2.46a4.65 4.65 0 0 1 .49.59c.15.2.33.44.52.74s.41.63.62 1a19.53 19.53 0 0 1 1.3 2.83 21.94 21.94 0 0 1 .95 3.7 21.3 21.3 0 0 1 .23 3.82 18.51 18.51 0 0 1 -.36 3.09c-.07.44-.19.83-.27 1.17a8.16 8.16 0 0 1 -.27.86 3.52 3.52 0 0 1 -.28.75z"/><path d="m548 287.6c0 .08-.66.49-1.4 1.16s-1.24 1.31-1.32 1.26a4.52 4.52 0 0 1 2.72-2.42z"/><path d="m554.3 291.25c.07.06-.54.72-1 1.68s-.67 1.83-.77 1.81a3.49 3.49 0 0 1 .49-1.95 3.38 3.38 0 0 1 1.28-1.54z"/><path d="m565.05 295a9.17 9.17 0 0 1 -.69-1.8 10.26 10.26 0 0 1 -.62-1.82 4.29 4.29 0 0 1 .91 1.72 4.51 4.51 0 0 1 .4 1.9z"/><path d="m572 291.76c-.09 0-.33-1-1-2.14s-1.49-1.82-1.43-1.89a5.32 5.32 0 0 1 2.44 4z"/><path d="m591.83 311.31c.09 0-.93 8.26-2.28 18.42s-2.5 18.39-2.59 18.37.94-8.25 2.29-18.41 2.5-18.39 2.58-18.38z"/><path d="m501.42 324.66a5.13 5.13 0 0 1 0 .86 7.29 7.29 0 0 1 -.12 1c0 .19-.07.4-.11.62s-.11.44-.17.68a18.71 18.71 0 0 1 -1.19 3.24 22.23 22.23 0 0 1 -2.22 3.6 19.32 19.32 0 0 1 -2.94 3 13 13 0 0 1 -3 1.79c-.23.09-.44.19-.65.26l-.61.17-.52.15-.46.06a5.35 5.35 0 0 1 -.85.07 16 16 0 0 0 3-.91 13.56 13.56 0 0 0 2.87-1.81 20.71 20.71 0 0 0 2.88-3 23.93 23.93 0 0 0 2.2-3.54 20.28 20.28 0 0 0 1.24-3.17 30.15 30.15 0 0 0 .65-3.07z"/><path d="m510.12 354.34 2.36 44.79a3.26 3.26 0 0 0 3.28 3.08l71.35.13a3.28 3.28 0 0 0 3.29-3.1l2.72-44c.09-1.83-1.21-4.26-3.06-4.3h-76.59a3.28 3.28 0 0 0 -3.35 3.4z" fill="#fff"/><path d="m510.12 354.34v-.17a3.18 3.18 0 0 1 0-.5 3.33 3.33 0 0 1 2-2.56 4.35 4.35 0 0 1 1.73-.24h4.33l27.65-.05h41 2.91a2.59 2.59 0 0 1 1.47.38 3.8 3.8 0 0 1 1.09 1.06 5.2 5.2 0 0 1 .9 2.89l-.18 3q-.37 6-.76 12.33c-.52 8.38-1.05 17.06-1.6 25.95l-.11 1.66a16.25 16.25 0 0 1 -.13 1.68 3.41 3.41 0 0 1 -2.15 2.53 4.26 4.26 0 0 1 -1.68.22h-4.91-12.81-24.21l-21.92-.06h-6.29c-.41 0-.82 0-1.24 0a3.42 3.42 0 0 1 -2.14-1.19 3.47 3.47 0 0 1 -.8-2.25l-.12-2.31c-.07-1.53-.15-3-.22-4.48-.6-11.65-1.07-21.08-1.4-27.61-.16-3.25-.29-5.78-.37-7.5 0-.86-.07-1.51-.09-2s0-.66 0-.66 0 .22.05.66.07 1.1.12 1.95c.1 1.73.24 4.25.43 7.51.35 6.52.86 16 1.49 27.6.08 1.46.16 2.95.24 4.48 0 .76.09 1.53.13 2.31a3.18 3.18 0 0 0 .74 2.11 3.23 3.23 0 0 0 2 1.1 12.07 12.07 0 0 0 1.21 0h6.29 21.92 24.21 12.81 4.91a3.91 3.91 0 0 0 1.57-.2 3.12 3.12 0 0 0 1.95-2.3c.09-.51.09-1.09.14-1.63l.1-1.67c.55-8.88 1.09-17.56 1.61-25.94q.39-6.29.76-12.34.09-1.52.18-3a4.88 4.88 0 0 0 -.84-2.72 2.65 2.65 0 0 0 -2.33-1.32h-2.91-41-27.65-4.33a4 4 0 0 0 -1.7.22 3.16 3.16 0 0 0 -1.17.72 3.29 3.29 0 0 0 -.86 1.71c-.03.4 0 .63-.02.63z"/><path d="m556.35 376.19a4.2 4.2 0 1 1 -4.2-4.21 4.2 4.2 0 0 1 4.2 4.21z" fill="#fff"/><path d="m556.35 376.19s0-.38-.19-1a4.15 4.15 0 0 0 -3.26-3 4.13 4.13 0 0 0 -2.13.19 4 4 0 0 0 -1.88 1.42 4 4 0 0 0 0 4.79 4 4 0 0 0 1.88 1.42 4.13 4.13 0 0 0 2.13.19 4.15 4.15 0 0 0 3.26-3c.17-.64.16-1 .19-1a.8.8 0 0 1 0 .27 3.22 3.22 0 0 1 -.09.77 4.19 4.19 0 0 1 -1.52 2.38 4.14 4.14 0 0 1 -1.81.83 4.38 4.38 0 0 1 -2.28-.17 4.32 4.32 0 0 1 -2-1.51 4.33 4.33 0 0 1 0-5.15 4.32 4.32 0 0 1 2-1.51 4.38 4.38 0 0 1 2.28-.17 4.26 4.26 0 0 1 3.33 3.22 3.17 3.17 0 0 1 .09.77.85.85 0 0 1 0 .26z"/><path d="m512.53 359.3c.08 0 .43 7.52.78 16.81s.56 16.82.48 16.82-.44-7.52-.79-16.81-.56-16.82-.47-16.82z"/><path d="m491.3 276.33 4.86-3.21-1.88-10.28a2 2 0 0 1 1.29-2.31 2 2 0 0 1 2.56 1.51l3.3 10 5.64 14.23a7.9 7.9 0 0 1 .54 5.35l-6.61 26.31s1 6.38 0 10.15-8.92 14.07-13 11.59-6.32-12.89-5.95-14.32 10.58-31.61 10.58-31.61l-4.5-11a6.12 6.12 0 0 1 3.23-6.43" fill="#fff" stroke="#000" stroke-miterlimit="10" stroke-width=".5"/></svg>